/* XPM */
static char *result[] = {
/* columns rows colors chars-per-pixel */
"50 50 215 2 ",
"   c #000000",
".  c #0C0C0C",
"X  c #131313",
"o  c #181A15",
"O  c #1A1A1A",
"+  c #273712",
"@  c #232323",
"#  c #2C2C2C",
"$  c #323928",
"%  c #323232",
"&  c #3B3B3B",
"*  c #651F20",
"=  c #463827",
"-  c #742E2E",
";  c #32471A",
":  c #3A5223",
">  c #435A2A",
",  c #4C5A35",
"<  c #785B3B",
"1  c #49682A",
"2  c #586528",
"3  c #636F34",
"4  c #69773B",
"5  c #424242",
"6  c #4D4D4D",
"7  c #50524D",
"8  c gray32",
"9  c #5C5C5C",
"0  c #675644",
"q  c #5A6C46",
"w  c #5F7348",
"e  c #617349",
"r  c #6E695A",
"t  c #636363",
"y  c #6B6F64",
"u  c #686868",
"i  c #727272",
"p  c gray49",
"a  c #980605",
"s  c #961514",
"d  c #B40506",
"f  c #B50809",
"g  c #933B16",
"h  c #892F2D",
"j  c #A83324",
"k  c #A33536",
"l  c #C80608",
"z  c #D80709",
"x  c #D3160D",
"c  c #F5100E",
"v  c #934D1C",
"b  c #A14114",
"n  c #8F6825",
"m  c #904A4B",
"M  c #8C7152",
"N  c #967654",
"B  c #BC6B46",
"V  c #8A7A67",
"C  c #B67070",
"Z  c #5C8F17",
"A  c #5B9B16",
"S  c #5D961A",
"D  c #599919",
"F  c #64971C",
"G  c #629C1D",
"H  c #77991E",
"J  c #5DA11D",
"K  c #64A31E",
"L  c #5E9C24",
"P  c #639D26",
"I  c #6A9C23",
"U  c #749D22",
"Y  c #7D9A24",
"T  c #678737",
"R  c #69953B",
"E  c #5EA422",
"W  c #64A423",
"Q  c #6BA424",
"!  c #67AA26",
"~  c #65A42B",
"^  c #6BA42B",
"/  c #66AA29",
"(  c #6CAC2C",
")  c #78A428",
"_  c #73AC2C",
"`  c #7CAC2D",
"'  c #6BB32D",
"]  c #75B12E",
"[  c #6BAF31",
"{  c #78A537",
"}  c #74AE33",
"|  c #7AAC31",
" . c #6DB231",
".. c #74B333",
"X. c #7BB334",
"o. c #75BA34",
"O. c #7BBA35",
"+. c #7BB53B",
"@. c #75B93B",
"#. c #7CBC3B",
"$. c #7EC339",
"%. c #6F894E",
"&. c #768F4D",
"*. c #7D9954",
"=. c #7BA848",
"-. c #79BA42",
";. c #7EC544",
":. c #8F8E2D",
">. c #879826",
",. c #849E2A",
"<. c #84A72A",
"1. c #84A42D",
"2. c #8BA32E",
"3. c #95A22F",
"4. c #84AC33",
"5. c #8AAB33",
"6. c #8BAB3A",
"7. c #94A535",
"8. c #95AB38",
"9. c #84B335",
"0. c #8AB133",
"q. c #83BC35",
"w. c #8BBC35",
"e. c #84B33A",
"r. c #89B43B",
"t. c #83BD3C",
"y. c #8BBD3C",
"u. c #93B43B",
"i. c #99B33B",
"p. c #93BC3D",
"a. c #9BBA3E",
"s. c #A3AB3C",
"d. c #83C435",
"f. c #85C33D",
"g. c #8CC43D",
"h. c #84CA3C",
"j. c #8CC93E",
"k. c #92C43D",
"l. c #99C73F",
"z. c #92C93E",
"x. c #8F8B4D",
"c. c #819E5B",
"v. c #AA8859",
"b. c #B08351",
"n. c #BF8F5A",
"m. c #84AA49",
"M. c #85BE43",
"N. c #8CBC43",
"B. c #84B549",
"V. c #8CBA4A",
"C. c #95B343",
"Z. c #9DB541",
"A. c #94BD42",
"S. c #9BBC43",
"D. c #97BD4A",
"F. c #88AD56",
"G. c #86B453",
"H. c #96B051",
"J. c #A5B844",
"K. c #A3BD4B",
"L. c #B2BA58",
"P. c #879972",
"I. c #B6926B",
"U. c #8CA963",
"Y. c #96B66D",
"T. c #C6965F",
"R. c #C2A45A",
"E. c #CB9963",
"W. c #CD966C",
"Q. c #D19F67",
"!. c #D5A26A",
"~. c #C8B964",
"^. c #E4AE75",
"/. c #85C442",
"(. c #8CC543",
"). c #85CA43",
"_. c #8CCA43",
"`. c #86C649",
"'. c #8CC549",
"]. c #8DCB4A",
"[. c #92C443",
"{. c #9BC344",
"}. c #93CB45",
"|. c #99CB45",
" X c #93C54B",
".X c #9BC44A",
"XX c #93CB4B",
"oX c #9ACB4B",
"OX c #8BD045",
"+X c #8DD14A",
"@X c #93D24B",
"#X c #9CD24C",
"$X c #95CD51",
"%X c #9BCC53",
"&X c #95D353",
"*X c #9BD253",
"=X c #98D855",
"-X c #A1C447",
";X c #A1C24B",
":X c #A3C84C",
">X c #A3D24D",
",X c #A5C953",
"<X c #A2D353",
"1X c #9ECE62",
"2X c #838483",
"3X c #8E8E8E",
"4X c #939393",
"5X c #9E9E9E",
"6X c #B69B9C",
"7X c #ACBB95",
"8X c #A3A3A3",
"9X c #ACACAC",
"0X c #B4B9AE",
"qX c #B6B5B5",
"wX c #F6BF82",
/* pixels */
"k.}.h.].).].XXg.k.z.j.d.h.OX).].].g.B.%.w e e , e q q q _._.g._._.+X;.).).+X_._.}.q.[.[.}.g.f.|.}.j.",
"|.t.XXf.].( (.}.g.z.z.h.j.).`._.g.V.c.i 6 6 6 & 5 & % 5 R  X}.g.#.#.J h.).).d.j.(.[.}.g.g.XX}.XX}._.",
"|.z.(.` Q Q t.|.}.}.z.g._.(.(.f.@.*.i p 6 6 6 5 % # % % % 6.[.oX4.Z | (.}.g.#Xl.k.k.k.}.f./.@.#.).(.",
"f.@X_.q.Q /.f._.j.j.}.g.}.t._ G } U.i 8 6 % % X X @ @ X % B.[.[.N. XV.XX[.g.z.k.z.k.j._...E / _.}._.",
").).}._._._.).).h.d._.k.[.[.} _ /.c.9 6 % % % X X X X X X X o [.A.(.XXq.).@Xh.).h.j.).(.O._ t.'.(.j.",
"OXh.}.}.}.].).+X).d.}.[.[.[.N.*X%XH.P.M 0 0 0 = X X X X X X X }.|.k.[.(.+Xo.o.W h.).].(.XXXXXXN.}.l.",
"_._.[.[.g.*X_.).(.'.k..XS.4.r.A.C.~.wXwX^.Q.Q.b.X X X X X X X q.a.i.p.{.[.#.A ( ).`.].'.(.y.XX>Xg.w.",
"}.f.q._ _ XX(._.(._.9.[.A.<.u.S. Xn j ^.^.a a b.X X .         }.l.H 9.{.[.t.'._.'. XN.XX XXXXX(._.g.",
"f.f.W A #.@Xf./.! A #.@X[..X.XN.^ :.W.wX^.B B b.X X .         _._./.XXf._.XX[.g.[.k.}.XX].-.@.W d._.",
"XXh.O.).]./._.(.Q O./.M.XX[.4.{.[ H.W.I.N N N < X X .         /.&X ./.].g.f.l.k.p.oXoX[.$X .E  .]._.",
"(.XX_._.(.XX<X[. X(.$XXXXX9.H -X'.c.t 6 = % # X X .           ] J ! ).).(.}.[.p.{.p.5.) A.[.9.XX`._.",
" X XXX(.[.[.y.[. X'.].#.X.[.p.p.A.U.i 6 6 O X X X X .         q.W o._.f._.(.[..XA.p.u.4.A.oXXX[.].+.",
"$X].(.'.XX[.XXXXM.'.( D +.XX|.k. X*.t 6 % % % X X X .     { %X(.|.g.oX}._._.XX/.XX(.].'.}.j.}._ ~ L ",
"-...^ (.[.[.oXX.].`.( [ ].f.g.z.}.m.t 6 % # # X X X X     T { m.[.[.|.'./.+.o.( XX].f.g._.g.j.O.~ -.",
"@.L Q [.p.` Q F M.`.].'.(._.}.g.[.[.=.6 6 o X X X X O % % O X X D.[.y.(./.K G O.g.}.@X|.}.w.f.}.].].",
"-.t.%X1.Y 0.U A.$XV. X%X'.(.g.q.{.(.G.2X6 % % X % @ O % 6 % % X V.`.].}._.q.g.(._.g.}.g.k.}.[.g.(._.",
"].'.{.a.p.-Xp..XS.1.C.,X[.XX'.].z.g.B.t 6 5 5 % 5 % @ O # & 5 @ > R +.XX(.[.[.[._.f.}.g.z.}.g.}.}.j.",
"t. X.X8.<.J.-Xp.Z.2.r.A.$XM.q.].g.g.=.9 6 6 6 6 6 5 # @ X # # & @ : ( XX.X{.|.|.f.j.h._.}.q._._.}._.",
"Z.5.8.i.2.i.Z.S.S.y.XX(.#./ ..].XX(.G.u 6 6 6 6 6 5 % % X     6 % 1 V..XS.S.g.d.w.z.h.O...+.XX[.}.j.",
"a.,.r..Xu.8.Y Z.-XoX_.f.W ( -.M._ ` =.6 6 6 6 6 6 6 5 % X       # @ : 5.2.-Xl.z.z.%.q W E +.V.(.(.j.",
">Xy._ F } A.N.S.S.-X{.k.X.].M.I ) | m.u 6 6 6 u 6 6 5 % X X X   # % , 5.4.S.5.u 7 %.].o.M.'.XXXX(.k.",
"y.}.Q _ (.XX.Xe.U p.p.A.,X%X$Xe.m.C.F.t 6 6 6 u 6 8 5 % X X X   % % , p.p.S.>.t 6 &.[. X*X'.`.#._.j.",
"'.$Xf.XX[.y.y.(.#.].N.A.D.,.u.;X>.3 % % 6 u u u u 9 5 % X X X   i.3 % % n.V u 6 $ e {.y.'.} ^ P (.g.",
" X'.XX_.k.>X[.}.o.! P  XD.2.Z.^.!.Q.N   6 6 6 u 6 6 5 % X X X   m.2 # # n.n.n.% Y >.a.k.@Xo.~ t.(._.",
" X X_.f.#X[.k.}.X.Q N.D.C.;X XL.T.T.v.2 &.8 6 u 9 8 5 % X X X   C.x.M M n.n.n.4 5.S.S.C.V. X*X(._.z.",
" XN._.@X_.g.[.[.(.[.;X5.1.C.[.r.!.!.R.,..Xh h u u 9 6 = @ X X . x.x.I.!.T.T.E.5.{.:XS.U r.[._.z._.j.",
"/._.O.#.W ].(._.g.[.[.w.p.-XJ.Z.^.^.~.6.N.x z u u 9 6 6 % O X X t 9 r ^.Q.Q.Q.4.S.r..Xr.(.(.g.}.k.k.",
"h._.o.A ( /._.(.g.k.|.g.[.S.3.Y [.#XXXXX .c c z z k t 6 % % %   9X2X5 % [. XV.) I | XX[.[.oX[.y._.j.",
"z.g.h.] +X).'.k.y.k.l.k.y.oX.Xr.y.d.(.XXt.x z z d f h 6 5 % % 8X5X3Xu % [.[. XQ | (.g.(.g.q.X.'.[.j.",
"j.j.h.@X/.}.g.[.}.g.k.j.q.g.t._ ( K ].(.[.x z z d d s 6 6 % % qX5X3Xi # k.[._.).XX(.t.}.X.S P V._._.",
"_.g.l.k.k.h.OXh.(.}.@X_./.@X_.K _ M._.}.k.y u z z l d d f 6XqX8X2Xm g (.XX}./.&X`.(.*X XM.+.`.]._.j.",
"f._.k.l.|.}.f.OXf.t.g.].).).j.(.].XX[.|.g.k.(.r.d d d d qX8X5X2X[.f.f.XX}.'.].f.].#.`.^ '.].).$._.}.",
"(._.g.g.g.oX` Q F  X_.).]._.[.XX.XA.[.z.O.h.+X).* - m C 8X4X3Xk v :.].@.+.X.]._._.] D ^ '. X(.(.j.(.",
"j._.}.g.}.(.X.Q y.(.`.+X)./.oXoX[.[.g.}.z.OX_.].& 9 4X9X4Xu t b a g :.E ^ | _.].(.#.#.(.$X X_./.}.}.",
"h.h.}.q.'.(.)._.(.].;.;.' ;.oXk.d.h.).].f.N.(.C.6 p qX5X2X& % e.f a g ] t.(.`.&X&X'.`.].g.f.+X+XX.f.",
"h.j.[.[.].].).`./.].' D E `.}.z.h.h.' ..G [..X.XqX9X4X2X% o X '.XXn g }.|.XX`.-.} +./.).f.f.@.( Q q.",
"g.}.k.[.}.(.).).).].g.X.@X[.(._.OXh.$.D M.y.,X7X8X4Xi 5 O X X (.].r.5.h.h.j.`.~ P +.OX_.}.|.4.I X.}.",
"g.g.k.g.}.'.&X].+X/./.oX[.[.(.=X).`.)./.XX X[.qX5X4Xu % X X X (.XX'.d.h.h.j.$X{ V. XoXXX[.u.5.D.}.}.",
"f.)._.z.[.k.$XM.[ E ( oXy.<X'.(. X(.].}.j.0XqX5X2Xu & X 6 O X _._.h.g.{.|.[.(.(.K.7.C.S.S.1.,.K.[.k.",
"_.).d.f.) p.;X.X^ ~ [..X{.p.[.'.'.$X}.d.0X8X5X2X8 5 5 t 6 O X ].$._.oXN.{..Xt.'.J.,.8.D..X;XZ..X[.j.",
"k.|._ S Q {.s.3.[..XK.J.J.Y 5.[.'.(.1X7X8X4X3Xi 6 5 5 u 6 # # ; K @X(.XX/./.OX).XXg.N.'.{ D..Xk.g.}.",
"k.g.d.o.N.{.s.:.Z.;X7.>.L.8.u.oX XV.Y.9X4XP.P.u 6 5 & 9 6 % % X t.(.} ..S `.OXh.f.XX} L I V.9.y.g.}.",
"|.j.).).]..XJ.s.:.s.Z.{ 9.r.J.a.p.U.9X5X2X'./.u 6 5 & 6 6 % % X e.f./.F e.M.(.O.) S.r.|  X9.U p.[.j.",
").f.f.@X/.y.1.C.i.8.J.U G X.{.Y ` U.5X2X]._._.u 6 5 & 6 8 % % X M._.t.XX[.$X#X9.2.S..X[.<X.XS..X[.j.",
")._.w.{.XXXX4.C.D..XJ.>.u.[.[.| y. XY.F.(._.).u 6 5 & 6 6 % % @ M.#.(./.XX` o.G  XA. Xp.5.2.-X{.k.}.",
"+XXXl.a.}._.A.%XM.A.s.>.l.g.(.$XoX[.q.(._.d.h.u 6 5 & 6 7 % % % V.`.&X).#X` G ..].(.[.}.8.,.A..X(.}.",
"j.g..Xy.' / X./.].].N.N.]./.].(.g.oX#X_.f._.(.u 6 5 & u 6 % % t. X/./.o.X.'./.*X(.]._.g.{.{.oXt.(.j.",
"k.g.(.'.J / #.].`.].N.} ~ ( }.'._._.g.g.}._.X.u 6 5 5 u 6 6 6 M.'.(.J D O.oX'.g.'.XX/.XX_.X.] G g.g.",
"z.g.[._._._.g.j._.}./.I ( /._.(._.g.}.h.z.}.+.T O X $ =.O O O '.'.g.O.q.'.[.#Xg.g.g.d.g.XX} ~ o.'.k.",
"z.j.g.(.(._.j.z.g.(.'.M.'.'._.'.(.t.z.g.z.OX`.M.+ + 1 /.+ + + (._.}.}._.}.g.}.g._.}.(.'.XX/.M.$X(._."
};
