/* XPM */
static char *result[] = {
/* columns rows colors chars-per-pixel */
"50 50 216 2 ",
"   c #000000",
".  c #0C0C0C",
"X  c #131313",
"o  c #181A15",
"O  c #1B1B1B",
"+  c #283814",
"@  c #242424",
"#  c #2D2D2D",
"$  c #33352E",
"%  c #323232",
"&  c #3B3B3B",
"*  c #651F20",
"=  c #463827",
"-  c #742E2E",
";  c #344622",
":  c #435729",
">  c #4A5A34",
",  c #785B3B",
"<  c #486826",
"1  c #5A6C2E",
"2  c #52643A",
"3  c #5C7B3A",
"4  c #657739",
"5  c #424242",
"6  c #4D4D4D",
"7  c #50534D",
"8  c #545454",
"9  c #5D5D5D",
"0  c #665643",
"q  c #5B6F44",
"w  c #62754A",
"e  c #646464",
"r  c #6C6863",
"t  c #686868",
"y  c #797065",
"u  c #727272",
"i  c #7D7D7D",
"p  c #990806",
"a  c #951615",
"s  c #B40506",
"d  c #B40A09",
"f  c #85320C",
"g  c #933C15",
"h  c #8D2425",
"j  c #863632",
"k  c #A33536",
"l  c #C80608",
"z  c #D90709",
"x  c #D3160E",
"c  c #F5110F",
"v  c #924D1F",
"b  c #A5501C",
"n  c #906621",
"m  c #904B4B",
"M  c #8C7052",
"N  c #957654",
"B  c #BB6B46",
"V  c #907F6B",
"C  c #B67070",
"Z  c #56881A",
"A  c #5B9B16",
"S  c #599718",
"D  c #5B9B1B",
"F  c #63961C",
"G  c #629B1C",
"H  c #77991E",
"J  c #5DA11E",
"K  c #62A31E",
"L  c #6AA81F",
"P  c #5E9C24",
"I  c #629D27",
"U  c #6A9C23",
"Y  c #739D22",
"T  c #7C9B22",
"R  c #6D9336",
"E  c #5DA322",
"W  c #5EA826",
"Q  c #64A423",
"!  c #6BA424",
"~  c #67AA26",
"^  c #65A42B",
"/  c #6CA42B",
"(  c #67AC2A",
")  c #6BAC2C",
"_  c #79A428",
"`  c #73AC2C",
"'  c #7BAC2D",
"]  c #6BB32D",
"[  c #74B22E",
"{  c #6CAE31",
"}  c #77A934",
"|  c #75AE34",
" . c #73B333",
".. c #7BB334",
"X. c #75BA34",
"o. c #7CBA35",
"O. c #7CB53B",
"+. c #75B93B",
"@. c #7CBC3B",
"#. c #7EC33A",
"$. c #6F8547",
"%. c #779B49",
"&. c #748956",
"*. c #7B9656",
"=. c #7AAB43",
"-. c #76B542",
";. c #7DBC42",
":. c #7EC544",
">. c #8C9626",
",. c #849C25",
"<. c #849C2A",
"1. c #968F30",
"2. c #8A9F34",
"3. c #84A42D",
"4. c #88A52C",
"5. c #95A22F",
"6. c #84AC33",
"7. c #8AAB32",
"8. c #89AB37",
"9. c #95AA38",
"0. c #84B335",
"q. c #8AB133",
"w. c #83BC35",
"e. c #8CBC35",
"r. c #83B43B",
"t. c #8BB53B",
"y. c #84BD3C",
"u. c #8CBD3C",
"i. c #93B43B",
"p. c #9AB53C",
"a. c #93BC3C",
"s. c #A3AB3C",
"d. c #83C435",
"f. c #85C33D",
"g. c #8BC43D",
"h. c #85CA3C",
"j. c #8CC93E",
"k. c #92C43D",
"l. c #99C73F",
"z. c #93C93E",
"x. c #899847",
"c. c #829B53",
"v. c #969956",
"b. c #A98959",
"n. c #B08351",
"m. c #BF8F5A",
"M. c #85A54C",
"N. c #95AD40",
"B. c #84BE43",
"V. c #8CBC42",
"C. c #8BB94A",
"Z. c #9BB744",
"A. c #94BD43",
"S. c #9CBC43",
"D. c #93BE4B",
"F. c #8EA957",
"G. c #88B157",
"H. c #A5B845",
"J. c #A4BD4B",
"K. c #B5A956",
"L. c #869A68",
"P. c #879970",
"I. c #B7926B",
"U. c #92B071",
"Y. c #A6BC72",
"T. c #C6965F",
"R. c #CC9B63",
"E. c #CD966C",
"W. c #D19F67",
"Q. c #D5A26A",
"!. c #C8B763",
"~. c #E4AE75",
"^. c #85C442",
"/. c #8CC543",
"(. c #85CA43",
"). c #8CCA43",
"_. c #86C34A",
"`. c #8CC549",
"'. c #86CA49",
"]. c #8DCB4A",
"[. c #92C443",
"{. c #9BC344",
"}. c #93CB45",
"|. c #99CA45",
" X c #93C54B",
".X c #9BC44A",
"XX c #93CB4B",
"oX c #9ACB4B",
"OX c #8BD046",
"+X c #8DD14B",
"@X c #93D24B",
"#X c #9CD24C",
"$X c #99C553",
"%X c #94CD51",
"&X c #9BCB52",
"*X c #95D353",
"=X c #9BD253",
"-X c #98D855",
";X c #A1C447",
":X c #A1C24C",
">X c #A3C84C",
",X c #A3D24D",
"<X c #A6C652",
"1X c #A2D353",
"2X c #838483",
"3X c #8E8E8E",
"4X c #949494",
"5X c #9D9D9D",
"6X c #A09F9F",
"7X c #9CB286",
"8X c #A3A3A3",
"9X c #ADADAD",
"0X c #B6A5A5",
"qX c #B4B8AF",
"wX c #B6B5B5",
"eX c #F6BF82",
/* pixels */
"k.}.f.'.(.+XXXj.k.g.j.#.h.OX^.].).f.[. Xf.[.w 2 2 w > q w w y C./.+X:.(.(.+X).).}.w.[.[.|.g.g.}.OX}.",
"|.y.@Xf.].` /.[.g.z.z.j.h.OX].).(.}.oXj.`.R 5 & > 5 & 6 6 6 u *.O.o.J h.(.'.d.j./.[.}.g.f.XX}.).}.}.",
"|.}.j.' ! ! y.|.}.}.z.f.j.f./.^.o.(.(.o._.% % % # # 6 6 6 6 &.u &.S | /.z.g.#Xl.k.k.k.}.f.).+.@.).j.",
"f.@X/.w.! f.f.).j.z.}.k.}.u.` G [ '.).h.@.% X @ O X X # % 6 6 i L.{.D.oX[.g.z.k.z.k.j.). .E ( _.)./.",
"(.h.}.).).].(.(.h.d.).k. X[.` ` f.#X).o o X X X X X X # % % 6 e c.D. Xw.(.@Xh.(.h.j.).(.o.` r.)./.k.",
"+Xh.XX}.XX).(.OX'.f.}.k.[.[.V.=XoX[.[.X X X X X X X = 0 8 0 M V F.k. Xf.).X.X.Q h.(.).`.XX XoX/.}.}.",
"j.).}.[.f.=X).(.).).[.{.S.6.q.D.[.A. XX X X X X X X n.W.E.~.eXeX!.p.a.{.}.@.D ) ^.].`.`.`.u.XX#Xg.e.",
"}.f.w._ ` XX).).f.[...|.S._ Z.S.|.A.0.        . X X n.p p ~.~.k n T 7.|.[.y./.).`.XXB.XX[.XXXX[.}.f.",
"f.f.K A @.+Xf./.~ D o.@X/..X:Xu.~ D ..        . X X n.B B ~.eXE.K.w.}././.|.k.[.[.k.[.XX].@.+.W f.j.",
"XX(.o.(.].f.)./.~ ..f.B.XX[.6.[.)  .f.        . X X , M N b.I.E.Y.] #.].f.f.}.k.a.oXoX[.XX .P { '.).",
"/.XX).)./.XX1X[. X/.%XXXXXq.H ;X}.XXi.          . X X # % % 6 9 $.W (.(./.}.k.a.{.a.7._ [.D.0.XX).).",
" X XXX/.[.[.V.[. X`.].;...[.a.a.[. X7.        . X X X X O 6 6 u *. .).(.).`.[..X[.a.a.6.a.oXoX/._.@.",
"%X].).`.XX[.|.XX/._.) D +.XX|.k.}.}.[..X=.    . X X X # % % 6 9 c./.oX)._.).XX/. X_.[.).}.j.}.[ ^ I ",
";. ./ /.[.V.oX..].`.) ) ).f.g.}.}.[.} } Z     X X X X # # % 6 e c.[.|.).f.@.+.) @X].^./.).g.j.o.{ -.",
"+.I ! A.A.3.! F B._.].`.)./.|.g.[.V.X X X % % O X X X X o 6 6 x..X Xf././.K A o.f.}.XX|.|.w.g. X].].",
";.@.&X3._ q.Y g.%XV.$X%X`./.f.w.{.V.X % % 6 % O @ % X % % 6 2Xx. X/.XX}./.w.j.j.z.g. Xj.k.}.z.f./.(.",
"].).{.a.p.;Xa.{.Z.2.Z.<XD.XX`. XR : @ > 5 # O @ % 5 % 5 5 6 e F.`.'.+.)./. X[.[.).j.}.g.k.}.f.}.}.).",
"B..X>X9.4.S.;Xi.S.4.t.A.XXf.y.].1 O & # # X @ @ 5 6 6 6 6 6 8 %.( E |  X|.{.[.|.f.(.j.z.}.w.}.).}.}.",
"Z.4.9.i.4.p.Z.Z.A.a.|.(.@.( +.`.q % 6     X % % 5 6 6 6 6 6 t G.( ) /..XZ.S.k.d.e.z.h.X. ...%X[.}.j.",
"H.,.t..Xi.9.<.w $. X).f.Q ( ;.; @ %       X % 5 6 6 6 6 6 6 6 =.(.`.&X8.4.;Xl.z.z.k.h.W Q O._././.j.",
"oXu.` G } V.A.Z.$.6 r [.w.).B.; % #   X X X % 5 6 6 t 6 6 6 t =.k.{.{.q.6.S.9.S.XX(.`.o.y.].XX].j.[.",
"f.}.! ` ).%X Xq.4 7 e A.$XS.D.> % $   X X X % 5 6 6 t 7 6 6 e M.a.S.l.[.u.S.,.5..XXX X X=X`._.@./.j.",
"`.%X/.XX[.e.u.`.3 % 6 t y m.% % 1 5.  X X X % 5 9 t t t e 6 # $ 4 i.p.a.i.|.u.A.N.;X[.u.`. .) U /.j.",
" X`.XX/.k.,X[.).X.I # T.m.T.% % 4 N.  X X X % 5 6 6 t 6 6 6   N Q.Q.~.:Xk.}.}. X<.5.i.[.XX..^ @./.j.",
" X X).f.oX[.k.|...U 4 m.m.m.M M v.Z.  X X X # 5 8 9 t 6 7 %.1 b.R.R.K.$XXXO.k.p.i.Z.Z.A.V. X*X/.).j.",
" X/.).@X).j.[.[./.[.>XR.m.R.Q.I.v.*.. X X @ & 6 9 t e j j 0.@.K.Q.R.B.O.Q / 6.6.l.>XZ.Y r.[.}.}.j.[.",
"f.OXo.@.Q )././.g.k.[.W.W.W.~.y 9 e X X X % 6 6 9 t t z x ~ D !.~.~.V.O./ O.6.6.A.t..Xt.V.[.g.k.k.z.",
"f.).X.A ] ^.)./.g.z.}.g.[.{.% 5 2X9X  % % % 6 e k z z c c @.;.`.XX&X XV.{.$XC.} U ' XX}.[.oX}.u.).j.",
"z.h.d.[ ].'.`.k.u.k.z.k.g.oX% e 3X5X8X% % 6 6 h d s z z x %X].%XB.r.XXXX X[.[.! ' V.f.[.f.0.O.D.[.j.",
"z.).j.@X(.)./.k.|.g.k.k.w.f.% t 4X5XwX% % 6 6 a s s z z x ]./ +.) ) XXf.k.[.)./. X).f.}...S U _.)./.",
"/.f.|.k.k.h.OXh.j.}.@X/.^.@X).f m 2X5XwX0Xs s s l z z t t :XB.! o.d.XX/.XX}.(.*X_.).=X XB.O.'.].).j.",
"f.).e.l.#X|.d.OXf.y.^.].).(./.V.`. X2X6X6XwXs s s s 3.N.4.J.t.oXz.j.f.XX).`.+Xf.'.@._./ `.XX(.#.).).",
"/.).f.z.g.|...! G  X'.).'.).).oX1.v k 3X4X8XC m - * $X$XZ.H.H.N.a.z.'.X.O...].).).[ S ^  X X(.j.j.f.",
"j.j. Xj. X/.' ! u./.'.+X(./.&X1.g p b e t 4X9X4X9 = $XD.<.9.N.2.i.g.f.E / } ).]./.@.@._.$X X).f.}.}.",
"h.h.z.w.`.).(.'./.].^.:.] :.XXg p d (.% & 2X5X9Xi 6 p.S.8.$Xr.6.[.j.}.[ w.[.].*X*X`.].].f.f.+X+XX.g.",
"h.(.[.A.XX].h.'.(.].( S W '.|.g n h.] X X % 2X4X9XwXi.<X6.} Y `.XX).@X}.oXXX:.;.| O.^.(.g.f.+.) ! w.",
"z.z.k.[.}.).^.'.^.).f...@X/.f.9.u.#.#.X X o 5 u 4X8XqX.X6.F ..}.`./.h.h.h.j._.^ I O.@X(.}.|.6.U ..).",
"g.g.k.g. X/.*X].+X'./.oXk. X/.-X(.].'.X X X % t 4X6XwXC.&XV.@Xf.XX/.d.h.j.j.].| C. XXXXX[.i.7.D.[.|.",
"f.(.}.z.[.k.%XB.{ W ) |.u.1X`./.`./.`.X o 6 X & t 2X5XwXqXXX/.`.).h.g. X|. X/.D.J.9.i.S.a.4.<.J.{./.",
"(.(.d.f._ a.:X{./ ^  X.X{.a.[.`.D.%X}.X O 6 e 5 5 8 2X6X8XqX`.).#.'.oXa.{. Xw.}.H.<.N.S.:X:XZ.:X[.j.",
"k.|.` A U {.s.5.D..XJ.H.H.T 0.[.[.u.: @ # 6 t 5 5 6 u 3X3X8X7X} L @X`.XXB.'.OX(.}.V.V.C.} D..Xk./.j.",
"k.g.d.X./.:Xs.>.p.:X5.>.K.i.i.oX}...X % % 6 9 5 5 6 t P.P.4X9XU.$Xj.| | S ].OXh.f.XX| P U V.0.u.k.j.",
"}.j.'.'.]..XZ.s.>.9.H.} 0.t.J.p.g.F X % % 6 7 & 5 6 t `._.2X5XwXY.^.y.D r.u.)..._ {.t... Xr.Y a.z.).",
"j.f.f.XX^.u.3.9.s.9.H.Y G ..{.T 6.| X % % 6 6 & 5 6 t `.B.%X2X4XU.].y.XX XXX#X0.7.Z.{.[.>X{.S.:X[.}.",
"(.).e.{.@XXX6.Z.D.:XH.>.i. X[.' u.V.@ % % 6 6 & 5 6 t } I /.G.G.$X@.(.^.XX' X.G  XD.[.a.8.5.;X.X[.j.",
"+X@X{.p.}.).D.&XB. X5.>.l././.XXoXV.$ % % 6 6 & & 6 t I | /.XXXX`._.*X(.oX..G  .)./.[.|.i.,.a. X[.j.",
").g.|.V.] ~  ._.].].A.V.`.(.`./.g.oX#X% % 6 t 5 5 6 t `.|.)._.B.XXB.^.X...}./.*X_.XX)./.|..XoXy.[.j.",
"j.g.k.`.K ( o.].^.%XB.| ^ ] XX/.)././.6 6 6 t 5 5 6 t V.j.).`.B._.).K S ..XX`./.[.).f.].[...` K f./.",
"k.j././.).).).j.j.XXB.U ) B.).j.)./.}.o O o %.+ X O G./.f.j.[.).`.j...o.}.[.#Xf.j.g.y./.].| Q ..)./.",
"z.g.k./.).k.j.j.j./. XB.`.`./.).f.y.}.+ + + C.< + + ].^.g././.j.}. X}.j.}.g.}.j.[.}.f.}.XX/.B.%X)./."
};
