/* XPM */
static char *result[] = {
/* columns rows colors chars-per-pixel */
"50 50 220 2 ",
"   c #010101",
".  c #0C0F05",
"X  c #0D0D0D",
"o  c #131313",
"O  c #181F10",
"+  c #1B1B1B",
"@  c #2A291C",
"#  c #293816",
"$  c #242424",
"%  c #292E23",
"&  c #2B2B2B",
"*  c #323232",
"=  c #393D33",
"-  c #3D3D3D",
";  c #510A0B",
":  c #6D0A0A",
">  c #44392C",
",  c #344220",
"<  c #3F413C",
"1  c #485C1D",
"2  c #4E4A32",
"3  c #444939",
"4  c #574B3E",
"5  c #4A6526",
"6  c #516A2A",
"7  c #5A7F2E",
"8  c #5B6B39",
"9  c #5A7533",
"0  c #434343",
"q  c #494D43",
"w  c #4D4D4D",
"e  c #5C4F41",
"r  c #4F524D",
"t  c #51554B",
"y  c #535353",
"u  c #5B5B5B",
"i  c #685641",
"p  c #5F6752",
"a  c #6E744F",
"s  c #616558",
"d  c #646564",
"f  c #696B65",
"g  c #696969",
"h  c #6E7363",
"j  c #757763",
"k  c #737373",
"l  c #7B7C7A",
"z  c #8D0B09",
"x  c #940507",
"c  c #A9090A",
"v  c #B30506",
"b  c #B10708",
"n  c #982B18",
"m  c #9A2E2F",
"M  c #A92626",
"N  c #B12A2B",
"B  c #C90C0D",
"V  c #D30709",
"C  c #D80709",
"Z  c #F3090C",
"A  c #B64C1C",
"S  c #AB5730",
"D  c #C54719",
"F  c #854647",
"G  c #8B6B45",
"H  c #8C7359",
"J  c #8A7D6E",
"K  c #C26C49",
"L  c #5B9B16",
"P  c #599718",
"I  c #5B9B1B",
"U  c #64971C",
"Y  c #639C1D",
"T  c #77991E",
"R  c #5DA11E",
"E  c #64A31E",
"W  c #5E9C24",
"Q  c #5F8330",
"!  c #669B24",
"~  c #739D22",
"^  c #779628",
"/  c #64863A",
"(  c #728935",
")  c #669433",
"_  c #7C9C3D",
"`  c #5DA322",
"'  c #5EA826",
"]  c #64A323",
"[  c #6BA424",
"{  c #69A825",
"}  c #65A42B",
"|  c #6CA42B",
" . c #66AA2A",
".. c #6BAC2C",
"X. c #79A629",
"o. c #72AD2C",
"O. c #6BB32D",
"+. c #74B22E",
"@. c #6AAD31",
"#. c #74AD33",
"$. c #77A836",
"%. c #6FB134",
"&. c #74B333",
"*. c #7BB334",
"=. c #75BA37",
"-. c #7CBA35",
";. c #7CB53B",
":. c #7CBB3B",
">. c #7FC238",
",. c #6C8448",
"<. c #749C49",
"1. c #768D5A",
"2. c #798A5A",
"3. c #7A9659",
"4. c #7BA546",
"5. c #7CBA42",
"6. c #7BA250",
"7. c #7EC544",
"8. c #849C25",
"9. c #89952E",
"0. c #899928",
"q. c #A48F34",
"w. c #84A72A",
"e. c #85A42D",
"r. c #8AA22D",
"t. c #95A22F",
"y. c #84AC33",
"u. c #8AAB32",
"i. c #8CAA36",
"p. c #94A636",
"a. c #95AB38",
"s. c #83B335",
"d. c #8DB135",
"f. c #83BC35",
"g. c #8CBC35",
"h. c #84B43A",
"j. c #8BB53B",
"k. c #84BD3C",
"l. c #8BBD3C",
"z. c #93B43C",
"x. c #99B53C",
"c. c #93BB3D",
"v. c #A3AB3C",
"b. c #83C435",
"n. c #85C43D",
"m. c #8BC43D",
"M. c #85CA3C",
"N. c #8CC93E",
"B. c #92C43D",
"V. c #99C73F",
"C. c #93C93E",
"Z. c #B88959",
"A. c #BE8F5A",
"S. c #82B445",
"D. c #84BE43",
"F. c #8CBC43",
"G. c #8BBC4B",
"H. c #94BD42",
"J. c #9CBC43",
"K. c #99B845",
"L. c #8BB050",
"P. c #ADAF4E",
"I. c #A5B846",
"U. c #A5BC4B",
"Y. c #A8B955",
"T. c #869E6A",
"R. c #838A78",
"E. c #859474",
"W. c #B0926F",
"Q. c #8CA76B",
"!. c #CA8C5B",
"~. c #CA9962",
"^. c #C69868",
"/. c #D19F67",
"(. c #D2A168",
"). c #DEAB71",
"_. c #E4AE75",
"`. c #EDAE77",
"'. c #EEB279",
"]. c #85C442",
"[. c #8CC543",
"{. c #85CA43",
"}. c #8CCA43",
"|. c #86C34A",
" X c #8CC549",
".X c #87CA49",
"XX c #8DCB4A",
"oX c #93C443",
"OX c #9BC345",
"+X c #92CA45",
"@X c #99CA45",
"#X c #93C54B",
"$X c #9BC54A",
"%X c #93CB4B",
"&X c #9ACB4B",
"*X c #8BD045",
"=X c #8DD14B",
"-X c #93D24B",
";X c #9CD24B",
":X c #93CD51",
">X c #9BCC51",
",X c #9FCD58",
"<X c #95D353",
"1X c #9BD253",
"2X c #98D855",
"3X c #A1C447",
"4X c #A2C24C",
"5X c #A3C84C",
"6X c #A3D24D",
"7X c #A5C752",
"8X c #A2D353",
"9X c #838383",
"0X c #8B8B8B",
"qX c #90948C",
"wX c #909090",
"eX c #9D9D9D",
"rX c #A3A3A3",
"tX c #ABACA9",
"yX c #B6B5B5",
"uX c #F4BD80",
/* pixels */
"B.+Xm..X{.=X%Xm.V.m.N.b.M.*X].}.%X[.[.@Xm.[.@Xn.r 0 * r < < r r f 3.>.*X7.=X+X}.+Xf.oXoX+Xm.n.+X+XN.",
"@Xk.%Xn.XXo.[.+Xm.C.N.N.M.{..X.Xm.+X-Xm.}.m.F.3 = * * * 0 q w w l l h >.{.*Xb.N.[.oX@Xn.m.%X+X%X*X+X",
"@XC.}.+.[ [ k.@X+X+XC.m.N.[.[.].-.}.{.-.*X}.S.* & & * $ * - 0 w g k k oX}.B.;XC.B.B.B.+X].].=.:.}.m.",
"n.-X[.f.[ n.n.}.N.N.+XB.+Xm.| Y +.XX{.M.{.[.$.* o $ * o o $ * w w d 9X%X+Xf.+XB.C.m.N.}.&.]  ..X+X[.",
"{.M.+X}.}.XX{.{.M.b.}.m.+XoXo.o.m.-X[.+X}.6 o o o o o o o $ * * w u d k.{.-XM.*XM.N..Xn.f.o.k.[.+Xm.",
"=XM.%X+X%X}.{.*X{.n.+XoXoXH.[.,X&XoXoX[.c.5 o o o o o o 2 i G H W.W.W.m.*XO.=.] M.{.XX[.%X X#X[.@X@X",
"N.}.+XB.n.1X.X}.}.[.oX$XJ.y.y.oXoXc.#XoXz.1 o X o o o o G K !.'.'.'.).$X+Xk.P ..].XXXX%X[.l.&X6Xb.k.",
"}.n.f.X.o.%X}.[.m.[.s.oXJ.X.K.J.$X[.s.$XJ.1         o o G S n `._.K x OXoXk. X}. X%XF. X#X%X%X[.oXm.",
"[.n.{ L >.=Xn.[.{ I -.:XoX#X5Xl.{ I *.oX%X1         o o G A.~.`.uX'.`.F.oX%Xm.B.oXB.oX%XXX:.=.] b.N.",
"XXn.-.{.XXn.}.[.{ =.].k.#XoXy.OX .&.].c.&X1           o @ > 4 e a j J #Xm.m.@XV.c.6X&XoX:X%.` %.XX.X",
"oX%X}..X[.%X1XoX#X[.:X%X%Xs.T 3X+X%Xz.r.H.5           o o + & * w u g {.[.+XoXc.OXc.u.X.H.oXh.%X[..X",
"#X#X%Xm.[.oXH.H.#X XXX5.*.oXc.c.oX+Xu.r.oX5         o o o o + w w d 0X].}.[.[.$XH.c.j.y.H.&X+XoX|.:.",
"%XXX[.[.%XoX%X%X X X..I ;.%X@XOX+X#XOX$XO           o o o + * * w y f +X[.XX%X].XX[. X+XN.}.+Xo.| W ",
"5.&.|  XoX[.;X*.XX|...@.|.n.b.+X+X$.Q 7 O X X       o o o + & - w p 1.}.].-.=...%XXXn.[.+Xm.N.-.@.5.",
"=.! | oXH.w.[ U D.|.XXXX[.}.@Xm.oX6 o o * * & o   X + + + o + w y a m.[.[.E L -.n.+X%X@X+Xl.m.+X XXX",
"5.5.&Xw.~ d.~ H.%XF.#X>XoX}.n.f.oX6 o * w < & o * < w w $ + * w 9XT.XXXX[.f.m.+X}.n.@Xm.B.+X[.m.}.M.",
"XX[.OXc.x.5Xc.OXK.8.K.7XoX%X}.N.@ % & w o X + & * < w w w 0 w g G.7.5.#X[.#XOX[.{.n.+Xm.+XC.m.+X+X+X",
"D.$X4Xa.w.x.3Xz.J.r.j.H.%XD.k.XX& * 0 o   X + & 0 w w w w w w y @.` @.#X$XoXB.@XN.N.N.}.+Xf.}.}.}.}.",
"K.r.a.z.r.x.K.K.J.l.+X}.:.{ O.|.* 3 r     X o * w w w w w w w w  ...H.$XI.OXm.b.b.C.M.=.&.*.%X[.+XN.",
"x.e.z.$Xc.a.( w $X&XXX].] ..) o * 9 [.  X o + * w w w g y w y g ].|.,Xi.e.3XV.V.V.N.M.] W ;. X[.[.N.",
"6Xc.X.Y #.H.F.K.w u f oX:.{.<.* & 9 %X  X o o * w u g g g u w * * 9 V.d.w.J.p.J.@X].|.-.D.%X%X%X}.N.",
"n.+X[ ..[.:X#Xd.0 u s L.Y.L.,.* 2 ,.&X  X o + * w u u g d u 0 $ 4 a I.U.H.J.8.p.#X:XoX#X>X X.X:.[.C.",
" X>X].%XoXg.l.[.= 0 w g Z.i * * 0.p.oX  X o + & w w r g y r q . ~.(.~.).U.$Xl.H.x.U.OXl.}.%.{ ] [.}.",
"#X X-X[.B.6XoXXX&.5 * !.!.i * * K.I.$X  X o + * w u g g y a +XH.~.~.~.OXoX+X+XOX0.r.c.oX%X;.} S.m.m.",
"#X#X}.b.%XoXB.@X*.! <.!.A.Z.Z.W.$X4XK.X o $ * 0 w u g g N S =X%X).).).G.:Xh.oXc.a.K.J.F.G.#X<X[.}.+X",
"#XF.XX-X+Xm.oXoX[.oX5X~.~.(.^.H 2.L.0.X + & * w u F N N C D =.*.P.P.Y.5.! | y.e.V.5XK.~ h.oX+X[.}.m.",
"n.XX-.-.] .X}.[.B.B.OX/.(._.^.w g 3.H.  & * - w g m C C Z D W ;.H.j.F.;.| h.h.y.J.j.$Xj.[.B.m.@XB.N.",
"M.}.=.L O.n.XX[.n.C.+Xm.oX8 * w yX,X#X  $ - w w b v b C C A ].|.%X>XoX[.#X#XG.X.~ $.&XoXoX&XoXl.+XN.",
"C.M.>.+.XX[.[.oXg.B.C.C.m.8 0 l rXtXyXz z x b c v v V C q. X|.:XD.5.%X#XOXoX%X[ +.[.m.m.m.h.*.oX[.+X",
"C.C.M.-Xn.*X}.oX@Xm.B.m.k.7 t R.rXrXtXm x c v v v B V B q.G.| 5.@.{ %Xm.B.oX}.{.#X[.n.+X*.P ! |.}.m.",
"}.m.V.B.m.m.*XM.m.%X-Xm.n.-X}.] R.wXeXyXN b v v v v v w d 2.D.[ -.b.&Xm.%X}.].<XXX].<X#XD.;..X.X}.N.",
"n.[.B.V.;X+Xb.*Xn.k.[.XX.X{.[.F.#XE.9XeXyXk * w * - w w d 2.z.%XC.m.M.%XXX XXXn..Xk.G.|  X%X{.>.}.+X",
"}.}.m.C.m.&X+.[ U #X{..XXX+X[.&Xn n M 0XeXeX0X* 0 - - w y s j K.B.C.{.:.;.;.XX}.XX+.P @.G.#Xm.}.m.m.",
"M.[.+Xm.+X[.*.[ l.F..X=X{.n.&X&Xx : : q 9XeXrXk < 0 - w w y h 0.g.m.>.` ! *.[.XX[.-.:.|.:X#X}.m.%X+X",
"M.M.}.f. X[.{.{.[.%X7.7.O.7.%XB.z ; o o g wXrXyX* - w w w u h $.[.}.%X+.k.[..X<X<X|.XXXXm.].*X=X-.b.",
"M.}.oXH.%XXX{.*X{.XX..P ' XX+XC.>.5 o * w d 0XeXyXl * * 0 w y g  X[.;X+X;X%X|.5.#.;.].N.b.].=...[ f.",
"N.C.B.oX+X[.].|..XXXm.*.%XoXn.}.# % & w r u g 0XrXeXeX* * - y d j 3.M.M.b.}.|.} ! 5.*X}.+X@X*.! *.+X",
"m.m.B.m.&X[.<XXX.X].].&XoXoX[.2Xo $ * r y s j R.eXrXyX0 * - y d f 1.b.M.M.N.XX$.G.#X%X%XOXz.i.K.oX+X",
"M.N.}.C.B.oX&X|.@. ...@Xl.8XoX|.o * w w S.M.}.%X9XwXeXyX- & w w d 1.m.@X@XoX[.oXY.p.a.J.J.e.0.4XoXN.",
"{..X>.n.X.l.4XH.| } #X3XOXc.[.#Xo * w g F.n.o.| $.Q.9XeXtX9X* w f 1.%XH.$X%Xk.oXJ.8.K.J.$XU.K.$XOXN.",
"B.@Xo.L ~ OXv.t.oX#XU.P.I.8.^ , & - w g h 6.] ..[.G.L.0XeXeX0Xw g 3.|.%X].|.{.M.+Xl.F.G.$.H.$XH.m.}.",
"B.m.b.&.].U.v.0.x.U.p.9.Y.a.( o * 0 w u g 3.].XX[.[.N.T.qXeXrXl g 1.#.*.P XX*X{.n.%X#.W ~ D.s.l.oXN.",
"+XN..X.XXX#XK.v.0.v.K.X.h.h._ o * - w w d 3.].;X}.m.[.%XE.wXeXyXg 1.].P h.D.[.f.X.J.j.;.#Xs.~ c.oXN.",
"n.N.n.%X[.l.e.a.v.a.I.~ U *.9.o * < w w d 3.}.}.}.}. X:X# - 0XeXg 3.k.%XoX&X;Xs.r.J.$XoX7X$XJ.$XoXC.",
"{..Xg.3X-X%Xy.K.H.4Xv.0.g.%X_ $ * - w w d 3.*Xm.[.XX;.#.# & y g g 1.].n.%X+.*.Y #XH.$XH.i.r.3X$XoX}.",
"=X-XV.x.+X}.H.,XD.#Xa.0.c.oX$.< * - w y s <.n.}.XXXX#.| # + * w g 2.2X].&X*.Y &..X].+XoXz.8.c.$X+Xm.",
"}.m.$Xl.O. .&.[.XX:XF.H.XX].XX[.* - w g G.}. XXXk.[.k.+X, + * w d 1.].=.*.[. X<X[.%X[.m.$X$X&Xn.[.N.",
"B.n.oX[.R ..-..X|.XXD.#.| ..XX[.w w w g G.}.;.*.Y m.@Xm.l./ * w f 1.R L -.&X[.[.oX}.M.%X[.*.o.Y m.}.",
"C.m.oX}.}.}.m.N.}.+X].! ..D.}.[.+ o O 4.m.XX;.! ;.k.+Xm.m.Q X + 6.S.-.-.oX[.;Xm.m.m.b.[.XX#.} *.[.}.",
"C.N.m.[.[.}.N.C.m.[.#XD.|.XXm.+X# # # m.N.+X|.D.].[.XX[.b.) # # [.+X+X[.+X[.+Xm.}.+X[.oX%X[.D.:X[.N."
};
