/* XPM */
static char *result[] = {
/* columns rows colors chars-per-pixel */
"50 50 221 2 ",
"   c #010101",
".  c #0C0C0C",
"X  c #161F0B",
"o  c #131313",
"O  c #1B1B1B",
"+  c #19210C",
"@  c #303F1E",
"#  c #232323",
"$  c #2B2B2B",
"%  c #313428",
"&  c #323232",
"*  c #393633",
"=  c #3D3D3D",
"-  c #510A0B",
";  c #473A2E",
":  c #31401F",
">  c #364923",
",  c #4E5E28",
"<  c #404639",
"1  c #515336",
"2  c #4B6625",
"3  c #536B2E",
"4  c #4E702A",
"5  c #53742F",
"6  c #596A38",
"7  c #5B7A38",
"8  c #677F38",
"9  c #434343",
"0  c #4D4D4D",
"q  c #514A4A",
"w  c #4E5447",
"e  c #535353",
"r  c #5B5B5B",
"t  c #695641",
"y  c #74564B",
"u  c #59634C",
"i  c #5B6056",
"p  c #6C7550",
"a  c #656565",
"s  c #686966",
"d  c #696969",
"f  c #6C7463",
"g  c #707A60",
"h  c #747474",
"j  c #7B7979",
"k  c #840607",
"l  c #910304",
"z  c #960A0B",
"x  c #9A1711",
"c  c #A50A0B",
"v  c #B40506",
"b  c #96393A",
"n  c #B42728",
"m  c #C80B0C",
"M  c #D30607",
"N  c #D80709",
"B  c #F3090C",
"V  c #B34518",
"C  c #9A5732",
"Z  c #A55435",
"A  c #956F22",
"S  c #CE4C21",
"D  c #984041",
"F  c #886845",
"G  c #8F7253",
"H  c #AB7E52",
"J  c #907A61",
"K  c #C4764E",
"L  c #5C8F17",
"P  c #5B9B16",
"I  c #599819",
"U  c #64971C",
"Y  c #629C1D",
"T  c #77991E",
"R  c #5DA11D",
"E  c #63A31E",
"W  c #5D8C2E",
"Q  c #5E9C24",
"!  c #688B2D",
"~  c #639C26",
"^  c #6A9C23",
"/  c #749D22",
"(  c #7D9B23",
")  c #6A8636",
"_  c #6F9E39",
"`  c #779938",
"'  c #5EA422",
"]  c #64A323",
"[  c #6BA424",
"{  c #67AA26",
"}  c #65A42B",
"|  c #6CA42B",
" . c #66AA29",
".. c #6CAC2C",
"X. c #79A629",
"o. c #73AC2C",
"O. c #6BB32D",
"+. c #76B22E",
"@. c #6BAF31",
"#. c #74AD33",
"$. c #7AAB32",
"%. c #77AA3B",
"&. c #6DB231",
"*. c #73B333",
"=. c #7BB334",
"-. c #75BA34",
";. c #7CBA35",
":. c #7CB53B",
">. c #75B93B",
",. c #7CBC3B",
"<. c #7FC238",
"1. c #6E8748",
"2. c #768A56",
"3. c #768C56",
"4. c #788E5B",
"5. c #7A9657",
"6. c #7A945B",
"7. c #79BA42",
"8. c #7BA354",
"9. c #77826A",
"0. c #7EC544",
"q. c #879826",
"w. c #849C2A",
"e. c #919222",
"r. c #85A72B",
"t. c #84A42D",
"y. c #8AA22D",
"u. c #95A22F",
"i. c #85AC33",
"p. c #89AB33",
"a. c #8DAA37",
"s. c #94A535",
"d. c #95AB38",
"f. c #84B335",
"g. c #89B335",
"h. c #83BB36",
"j. c #8BBC35",
"k. c #84B43A",
"l. c #8AB43B",
"z. c #84BD3C",
"x. c #8BBD3C",
"c. c #93B33B",
"v. c #99B33B",
"b. c #93BC3D",
"n. c #9BBA3E",
"m. c #A4A93B",
"M. c #83C435",
"N. c #85C43D",
"B. c #8BC43D",
"V. c #85CA3C",
"C. c #8CC93E",
"Z. c #92C43D",
"A. c #99C73F",
"S. c #93C93E",
"D. c #B48A5C",
"F. c #BF8F5A",
"G. c #86AC4F",
"H. c #99AA48",
"J. c #84BE43",
"K. c #8CBC43",
"L. c #86B44B",
"P. c #89B84A",
"I. c #9DB441",
"U. c #94BD42",
"Y. c #97BA47",
"T. c #9CBC43",
"R. c #A8B445",
"E. c #A1BC44",
"W. c #A3BD4B",
"Q. c #BFB45E",
"!. c #8F8E6D",
"~. c #A68B6E",
"^. c #8BA564",
"/. c #C6955F",
"(. c #C89966",
"). c #DD9263",
"_. c #D19F67",
"`. c #D8A46B",
"'. c #C8B063",
"]. c #E4AE75",
"[. c #E9AB74",
"{. c #F1BA7E",
"}. c #85C442",
"|. c #8CC543",
" X c #85CA43",
".X c #8CCA43",
"XX c #86C649",
"oX c #8CC549",
"OX c #8DCB4A",
"+X c #92C443",
"@X c #9BC344",
"#X c #92CB44",
"$X c #99CB45",
"%X c #93C54B",
"&X c #9BC44A",
"*X c #93CC4B",
"=X c #9BCB4B",
"-X c #8BD045",
";X c #8DD14B",
":X c #94D24B",
">X c #9CD24C",
",X c #94CD50",
"<X c #9ACA54",
"1X c #95D353",
"2X c #9AD453",
"3X c #A2C447",
"4X c #A1C24C",
"5X c #A3C84C",
"6X c #A3D24D",
"7X c #A5C953",
"8X c #A2D353",
"9X c #848484",
"0X c #8C8C8C",
"qX c #929292",
"wX c #9D9D9D",
"eX c #A1A1A1",
"rX c #A9AAA8",
"tX c #B2B3AC",
"yX c #B7B7B7",
"uX c #F6BF82",
"iX c #A5C281",
/* pixels */
"Z.#XC.OX X;X*XB.@XB.C.M.V.-X}.OX5.g u u w > i > e u  XN. X.X|..X|.;X<. X X-XOX|.#Xh.+X+X$XB.N.#X-X#X",
"$Xz.*XN.OX..|.#XM.S.S.V.V.-X X6.9.h 0 0 0 9 9 & = = 6 >..X$X#XB.,.z.'  X X XM.C.Z.#X#XB.B.*X#X.X#X#X",
"$XS.|.o.[ [ z.#X#X#XS.B..X|.}.d h j 0 0 9 > $ & $ $ & %.B.+X+X=X$.L =.|.#XZ.6XA.Z.Z.Z.#X|.}.>.,..XB.",
"N.:X.Xh.[ N.B..XC.C.#XZ.#Xx.o.9Xa 0 0 & O o o & # o & %.=X#X+X+XK.%X|.%X+XM.#XB.S.B.B..Xo.' .. XOXB.",
" XV.#X#XoXOX X XV.M..XZ.+X|.#.d e 0 * & O o o o o o o o 5 .X#X+X+X|.*Xz. X:XV. XV.C..X|.,.o.z.oXB.S.",
";XV.OX.X#XOX X-X XN.#XZ.+X+XK.~.!.J y y 1 ; o o o o o o 4 V.B.+X$Xb.+XK.-X-.-.'  X X X|.*X+X%X|.$X#X",
"C..X#X+XB.2X.X X|.OXU.$XT.i.l.uXuX{.[._./.F o o o o o o 5  XC.h.b.v.b.@X+Xz.I o.}.OXOX*XoXj.%X6XB.z.",
"OXB.h.X.o.#X.X|.N.#X=.@XT.X.Y.l K [.[.x Z C o o         2  X.X#XA.( g.+X+Xz.|.oXoX*XK.oX*X*X*XoX.XB.",
"N.N.E P ,.-XN..X{ I ,.=X|.&X5X).[.{.].K H F o o         2 $XN. X X}.*X|.oX$X+XZ.+XB.+X%XOX,.>.] N.C.",
"*XN.;. X:X}.OXB.[ -.0.}.*X+Xi.~.~.!.G F t ; o .         2 g.+X}.1X&.}..XB.N.S.S.b.6X=X+X,X#.' @..X.X",
"|.*X.X.XB.*X8XU.%XK.,X*X%Xf.T d r q * & O o o           , ( =X+.R {  X X.X.X+Xb.@Xn.g.X.U.|.:.*XoX X",
"%X*X*X|.oX+XK.+X*XoXOX,.=.Z.n.9Xa 0 q O o o o o .       , d.&Xh.[ -. X}..X|.+X&Xb.b.c.i.U.=X$X.XoX,.",
",XoXoXoX#X+X#X*XK.XX .I :.*X$Xs e 0 & & O o o o           + =X|.=XB.=X#X|.OX*XN.OXoXOXoXB..X#Xo.} } ",
"7.*...|.+XU.=X=.XXOX..@.OXN.M.g r 0 & $ O o o o           X ` G.l.+X#X+X}.,.-...*XOXN.B.#XB.C.h.} 7.",
">.Q ^ U.U.X.X.Y J.XXOXoX|..X#XB.p 0 0 O o o o o .   o $ & $ o o 3 +XB.B.|.E Y -.B.#X*X$X#Xz.x.#XOXOX",
"0.z.<Xr.X.p./ x.<XK.,X<XoX|.B.h.^.9X0 & # # 0 0 ; & o $ < 9 & o 3 oXOXOX|.h.B..X.XN.$XB.Z.#X#XB.}..X",
"OXoX&Xb.v.3Xb.&XY.t.Y.7X+X*XOX+XP.G.r 0 = = 0 0 9 & $ O O # 9 $ % > <.#X|.=X+X+XOXN.#XB.S.#XZ..X#X#X",
"J.%X3Xd.r.3X3Xc.T.y.a.U.*XJ.z.OXZ.x.r 0 0 0 0 0 9 = & o .   $ = & # ..%X&X+XS.$XN.B.C.S.#Xh..X#X.X.X",
"v.a.d.c.r.v.v.T.T.b.#X|.,. .*.OXOXK.0 0 0 0 0 0 0 0 & O .     0 9 & P.Y.T.@XZ.M.M.S.V.-.*.-.*X+X#XC.",
"n.q.c.&Xc.d.w.T.3X#XOXN.] ..7.XX#.$.d e 0 e s 0 0 0 & O o .    X7 & o ! y.3XA.S.A.B.0 W Q 7.K.|.|.C.",
"6Xj.X.^ $.K.K.T.T.3XA.+X:.oXJ.~ , & & 0 r s d d r 0 & O o .   V.8 & & ` i.T.s.s r q  X:.z.*XOXOX.XC.",
"B.OX[ ..|.,X&Xk./ n.U.b.8X7X<Xa.6 * $ 0 r a d a r 0 & o o .   S.) * & ` l.Y.w.s r 0 %X+X2XoXOX,.|.S.",
"oX,XN.*X+Xj.x.|.,.OXJ.U.Y.s.]._._.(.  9 0 e s 0 0 0 & O o .   @XT.d.& & t D.a q < & U.K.|.#.| ~ |.C.",
"%XoX*X|.Z.6X+X#X-.} Q &XW.y.l.F.(._.&X+Xp e d s r 0 & O o .   b.I.q.& $ t /./.& , u.c.+X,X-.} J.|.B.",
"%X%XOXz.$XS.Z.#X;.[ K.Y.I.&X%X`.`.`.T.v.C D d s r 0 9 $ O . . oX4Xa.J G H F.F.8 ` n.Y.Y.|.%X1X|..X#X",
"+XoX*X-X#XB.+X+X+X+X&Xa.( Y.U.Q.'.'.w.w.S m D D y e 0 * $ O . %.Y.1.~._.(./.(.p.n.5XT./ k.%X+X#XC.B.",
"}.-X;.,.{  XOXB.B.+X+Xj.U.W.I.I.#X#XU.k.S B N N b d q * & #   :.6.d e F.`._._.i.Y.l.&Xl.K.+XZ.S.S..X",
"N..X-.P ..}.#X|.j.#X#XB.+XE.s.( +X>X*X,XV N N v v v 0 0 9 #   oXiXyX0 * 6 &XK.X.^ $.=X+XB.=X+Xx.|.S.",
"S.B.M.+.OX X+X+Xx.Z.S.Z.B.=X&Xg.B.z.N.*Xa.A N M m v c c z k - tXrXeXj 9 6 +XoX[ $.|.B.B.|.:.$.oX#XB.",
"C.C.V.:X}..X.X|.$XB.Z.Z.h.B.z.....E *XOXY.m.N N m v v v c l v yXrXwX9X9 6 Z.OX.X*X|.N.#X=.I ~ oXoXC.",
".XB.A.Z.B.V.-XC.B.#X*X|.}.:X.XE ..N.|.#X2.a 0 v v v v v v n yXwXqX9X*XB.#X#X}.1X XOX2X%XJ.:. XOX.XC.",
"N.oXZ.A.>X#XM.-XN.N.|.OX X X|.|.*X*X+X$X2.a 0 q = & q ; h rXwX!.^.B.B.*XOXoXOXN.OX7.K.| %XOX X<.C.#X",
".X.XB.C.B.=X+.[ U +XXX XOX.X|.%X%X+XS.G.i r 0 = = = = h qXeX0XD Z A x.>.:.%.OX.X.X&.I } %X%X|.|.B.B.",
"B.C.#XB.#X|.=.[ K.|. X;X X|.>X=X+X#XB.f e 0 0 = 9 9 r eXwX0Xa - l c }.I | =.OX.X.Xz.,.XX,X%X.XN.#X#X",
"V.V.#Xh.oX|. X X|.OX X0.O. X=XZ.V.V. Xf r q 0 0 = & yXeXqXh o o - l #X+.h.+XXX1X1XoXOXOXN.N.OX;X-.B.",
"V..X+X+X*XOX X X}.OX..I ' XX#XS.<.0.d e 0 9 & & j yXwX9Xs 9 & o 3 |.:XS.=X*XXX7.#.:.}.N.N.N.>...[ h.",
"B.S.Z.+X#X|.XXXX XOXN.=.*XoXB. X8.9.a 0 9 & & qXeXeX9Xh r 0 9 $ % : V.V.V.C.XX' ~ 7.-X.X#X$Xi.^ =.#X",
"B.B.Z.B.#XoX1XOX;X}.|.=X+X+X|.2X4.d a 0 = & & yXrXwX9Xh r 0 0 & # o M.V.C.C.,X#.Y.%X*X*X@Xb.i.Y.+X#X",
"N. X#XS.+XA.*X}.@.' ..=Xj.8X*XoX4.d 0 0 $ = yXwX0X9X%.z.+XL.0 0 & o B.#X$X+XoXU.W.s.d.T.Y.r.w.W.+X#X",
" X XM.N.X.b.4XY.| } %X=XT.b.+X|.4.d 0 & j eXeX9X6.<XoX%XoXP.a 0 & o %Xb.@X%Xz.#XY.w.Y.T.4X4XI.&X+XC.",
"S.$Xo.I [ @Xm.s.U.%XW.R.R.q.i.#X4.d 0 d qXrXqX6.G.#X.XB.L.3.d 0 * # 3 J.J.XX-X X#XK.J.oXX.Y.&X+XB..X",
"Z.B.N.-.}.=Xm.e.I.4Xs.e.W.H.c.=X4.s a rXeXqX!.*X|.|.C.B.5.a a 0 9 & . W I OX-XV.N.*X#.Q _ l.f.x.Z.C.",
"#XC. X X*X%Xv.m.e.s.R.$.k.g.T.n.2.d yXeX0X!.XX:X.X|.N.*X5.a 0 0 < & o 4 k.z..X=.r.T.l.=.%Xf./ b.Z.#X",
"V.B.N.*X|.l.t.H.H.v.E./ Y =.3X( 2.d wX9X= @  X.XC.OX}.OX3.a 0 0 9 & o %.+X,X=Xh.r.T.&XU.<X&XT.&X+X.X",
" X Xb.@X:X*Xi.Y.Y.T.R.q.c.%X+X$.4.d h r $ : -XV.C.*X:.#.1.a 0 0 = & # _ >Xo.=.Y %XK.+Xb.d.r.3X&X+XC.",
";X*XA.n.#X|.K.7XXX%Xd.e.A.B.}.<X4.a 0 & O : B..X*X X#.| 1.a 0 0 9 & & _ =X+.Y *. XoX#X@Xc.q.b.@X+X#X",
".XB.@Xx.&.{ *.}.OXXXU.K.OX}.OXB.3.d 0 * O : |.*Xz.oXz.#X%XP.s 0 9 & }.>.=.oX|.1XoX*X.X|.$X&X=XN.B.C.",
"Z.M.+XoXE  .,.OX X,XJ.#. ...*X|.4.d 0 * 7 :.:.$.Y |.#XB..XL.s 0 0 9 R I ;.=XoX|.+X#XN.#XoX=.o.Y B.C.",
"S.B.|.|..X.XB..X.X#XoX~ ..J.OXC.G.2.$ O ! OX:.~ :.z.#X|.B.J.5.$ $ $ -.h.oX#X>XB.B.|.N.|.#X#.~ :.oXC.",
"C.S.+X|..XS.C.C.B.B.oXJ.oXOX|.B.|.=.+ X !  XXXP.}.|.OX|.N.C.+XX X X #X|.#XB.#XB.B.#XB.|.*X|.0.,XoXC."
};
