/* XPM */
static char *result[] = {
/* columns rows colors chars-per-pixel */
"50 50 214 2 ",
"   c #57180B",
".  c #611D0C",
"X  c #4D201B",
"o  c #5A261C",
"O  c #5A281C",
"+  c #66200F",
"@  c #662516",
"#  c #622A1D",
"$  c #6D2C1B",
"%  c #752B19",
"&  c #752E1D",
"*  c #75321C",
"=  c #7B341E",
"-  c #58352C",
";  c #593B34",
":  c #632C22",
">  c #6B2F23",
",  c #6C3123",
"<  c #663528",
"1  c #723524",
"2  c #7D3621",
"3  c #7F3824",
"4  c #723A28",
"5  c #7C3E2D",
"6  c #693A35",
"7  c #584538",
"8  c #7A402A",
"9  c #654A3E",
"0  c #724637",
"q  c #794433",
"w  c #5D4A43",
"e  c #6B534B",
"r  c #77544B",
"t  c #705753",
"y  c #765A54",
"u  c #6B625E",
"i  c #7B655C",
"p  c #6D6B67",
"a  c #776B65",
"s  c #7C726D",
"d  c #6E7C7A",
"f  c #7D7371",
"g  c #747D7D",
"h  c #787978",
"j  c #823B25",
"k  c #873C27",
"l  c #853E29",
"z  c #86412A",
"x  c #8C442C",
"c  c #90462C",
"v  c #93492E",
"b  c #814432",
"n  c #874935",
"m  c #924731",
"M  c #954C32",
"N  c #994E34",
"B  c #9B5136",
"V  c #975139",
"C  c #9C5339",
"Z  c #875C4A",
"A  c #985944",
"S  c #835C50",
"D  c #98644D",
"F  c #886254",
"G  c #926758",
"H  c #886C68",
"J  c #85756C",
"K  c #897B77",
"L  c #917773",
"P  c #589B0D",
"I  c #5C9A15",
"U  c #669C17",
"Y  c #759D1C",
"T  c #5CA41B",
"R  c #62A51C",
"E  c #6AA51D",
"W  c #78A21F",
"Q  c #5F9F28",
"!  c #65A221",
"~  c #6DA522",
"^  c #65AB24",
"/  c #6AAA26",
"(  c #6BA62A",
")  c #73AB24",
"_  c #73AE2A",
"`  c #79A828",
"'  c #6CB22B",
"]  c #74B529",
"[  c #75B22C",
"{  c #79B22E",
"}  c #75B533",
"|  c #7CB432",
" . c #76BB35",
".. c #7DBB34",
"X. c #7CBC3A",
"o. c #7EC235",
"O. c #77B640",
"+. c #75807E",
"@. c #7FC143",
"#. c #8A981F",
"$. c #93931C",
"%. c #849E24",
"&. c #89A52A",
"*. c #84AB2A",
"=. c #96A32C",
"-. c #85AB33",
";. c #96AC35",
":. c #84B434",
">. c #8AB333",
",. c #84BB34",
"<. c #89BB36",
"1. c #83BC3D",
"2. c #8BBD3C",
"3. c #96B437",
"4. c #95B43A",
"5. c #93BC3C",
"6. c #9CBB3D",
"7. c #A2AB37",
"8. c #84C336",
"9. c #8CC336",
"0. c #85C43C",
"q. c #8CC53C",
"w. c #85CA3C",
"e. c #8DCA3D",
"r. c #96C53A",
"t. c #92C53C",
"y. c #92CA3E",
"u. c #86BD42",
"i. c #94B642",
"p. c #95BE43",
"a. c #9CBC42",
"s. c #8DB657",
"d. c #A4BC45",
"f. c #A1B857",
"g. c #8E8079",
"h. c #8EB26B",
"j. c #9AB76B",
"k. c #9FB57B",
"l. c #ABBB6F",
"z. c #86C343",
"x. c #8CC542",
"c. c #86CA42",
"v. c #8CCA43",
"b. c #8BC64A",
"n. c #8DCC4A",
"m. c #93C543",
"M. c #9BC445",
"N. c #93CB43",
"B. c #9ACC45",
"V. c #93C54B",
"C. c #9DC54B",
"Z. c #94CC4B",
"A. c #9BCD4C",
"S. c #8CD145",
"D. c #8CD14B",
"F. c #96D145",
"G. c #94D14A",
"H. c #9AD14B",
"J. c #94CD51",
"K. c #9ACA54",
"L. c #9AD353",
"P. c #A2C546",
"I. c #A4C945",
"U. c #A2C34B",
"Y. c #A1D448",
"T. c #A1CC57",
"R. c #A3D356",
"E. c #97CA66",
"W. c #A7C563",
"Q. c #A4D462",
"!. c #A3D56C",
"~. c #A9CA77",
"^. c #ABD670",
"/. c #767E81",
"(. c #758181",
"). c #7B8484",
"_. c #7E8789",
"`. c #868887",
"'. c #8C8E8D",
"]. c #948C86",
"[. c #8B9494",
"{. c #8B9496",
"}. c #8E9A9A",
"|. c #949796",
" X c #939D9D",
".X c #A2908D",
"XX c #A39996",
"oX c #9BAB86",
"OX c #98AA93",
"+X c #A3BA88",
"@X c #A5AD96",
"#X c #A6AB9E",
"$X c #A9AC9C",
"%X c #A9B39A",
"&X c #949DA1",
"*X c #A5A5A5",
"=X c #A6A9A6",
"-X c #A9A7A8",
";X c #ABABAB",
":X c #ACB1A2",
">X c #B6B4AC",
",X c #AFB0B0",
"<X c #B4B4B3",
"1X c #B9BCB4",
"2X c #BCBCBC",
"3X c #AECB88",
"4X c #B1C697",
"5X c #B7C2A6",
"6X c #BEC4B5",
"7X c #BEC1BC",
"8X c #C1C2BC",
"9X c #BEBFC0",
"0X c #BFC1C2",
"qX c #C2C3C2",
/* pixels */
"t.y.w.v.c.G.Z.q.y.y.e.8.w.w.z.n.n.q.y.A.0XqXqXqXqXqXqXqXqXqX2X=Xn.S.w.c.c.S.v.v.N.,.t.N.N.9.9.F.y.e.",
"B.9.Z.0.n._ q.y.9.y.y.w.e.e.v.v.q.Z.~.%XqXqXqXqXqXqXqXqXqXqX;X-X>XE.E w.c.n.8.e.t.y.B.9.q.G.S.Z.S.y.",
"N.y.m.{ E E 0.B.y.F.y.9.e.v.v.w.X.6XqX2XqXqXqXqXqXqXqXqXqX<X*X=XqXqX1Xb.e.t.Y.r.r.y.t.y.q.z. .X.v.e.",
"q.F.e.,.) z.q.w.e.y.y.t.F.9.~ s.6XqXqX0X,XqXqX,X,X;X;X-X*X*X*X9XqXqXqX>XQ.,.y.y.y.9.y.v.[ T / z.N.y.",
"e.w.N.v.x.n.w.c.w.8.e.t.M.m.s.9XqXqXqX2X*X*X*XXXy r r t XX*X-XqXqXqXqX2X=X!.w.e.w.e.N.0.,._ 1.x.y.t.",
"S.8.Z.N.B.n.c.S.S.8.N.t.m.T.qXqXqXqX2X-X*XH @ j = = j j o o H 9XqXqXqX<X*X;X@.R w.w.n.c.Z.m.B.q.N.y.",
"e.S.B.t.9.L.v.w.e.m.m.C.l.,X<XqXqX9X<X].@ $ z N N M C B x k % @ >XqX2X*X=X<XqXh.c.n.x.N.x.2.B.R.9.0.",
"v.9.,.] ) B.v.v.0.n.:.T.qXqXqX<X<X=XK % V j x B B M B B l k c x + K *X*X<XqXqX,XJ.Z.q.V.N.Z.Z.x.N.q.",
"e.w.R P o.Z.0.c.^ P ..4XqXqXqX-X*Xg.% B B j x B B N B B k l N B m . ].,XqXqXqX2Xk.t.m.Z.D.O. .! ,.e.",
"G.w...v.Z.w.v.q.~ ..w.6XqXqXqX-X-X1 B N B j z B N N B B k k B B M = > qXqXqXqX9X:XI.B.t.Z.} T ' S.v.",
"x.N.n.x.q.Z.R.m.m.p.!.qXqXqX9X*Xy j B v N = x B B N B B k k B B N C + L 9XqXqX2X*XU.>.W m.m.| Z.v.n.",
"V.Z.Z.q.m.m.2.m.Z.z.3XqXqX9X9X*X$ N B N C 2 x N B N B B k x B B N M j 1 qXqXqX,X=X~.5.>.5.C.B.x.c.X.",
"J.n.z.m.Z.N.B.Z.z.b.h.=X;X-X*X.X= M N N B = c M B N B B j x N B B N N . XX;X;X-X*X~.N.x.e.e.N.) ( Q ",
"X.} ~ m.m.t.H.{ n.b./ +X*X*X*X6 j N N B B = c v B B B N j z N B N N M j - *X*X*X+Xn.z.x.F.9.e.8.( O.",
" .I ( t.p.*.W U 0.b.V.qXqXqX2X4 x N N B B j c M B v B N j z N B B M V j O qXqXqX1XN.H.B.B.,.q.N.n.S.",
"u.X.T.*.Y >.Y 2.Z.u.T.qXqXqX;X, m N N C N j x M B N B B j x B C N m C l < qXqXqX<Xy.N.q.t.N.y.q.e.q.",
"n.x.M.6.6.I.5.M.a.%.W.qXqXqX*X$ v C N B v 2 x M B v B N z z B B v B M v : qXqXqX2Xn.Z.9.r.y.y.N.F.N.",
"1.M.U.>.#.r.P.4.d.&.W.qXqXqX-X, N N N B c j v M C v B N 3 x B M v B M M : qXqXqX<XL.w.y.N.,.m.e.e.y.",
"a.=.;.4.&.6.6.d.a.2.^.2XqX2X*X$ B B M N m j x M B c B B j k B v B B M N # qX7XqX-XR.q.o.} } Z.m.N.e.",
"6.&.4.C.4.;.%.6.P.B.Q.*X*X*X*X, B B N B x 2 v N C v N M j j B c B N M v O ;X*X*X-XB.w.T R ..x.x.y.e.",
"B.2.` U ` V.5.a.6.P.U.<X;X;X*X, C B N B c = & y g.`.`.`.r $ B v C B B c # =X,X,X<Xn.x...1.V.n.Z.x.y.",
"q.N.E _ x.A.V.>.Y 6.5X0XqXqX;X# B B N C F J |.}.&X{.). X X|.J F n V C c : qXqXqXqX@Xb.B.L.v.b...e.e.",
"b.A.0.Z.N.<.2.x.o.n.qXqXqXqX*X- b G H  X&X X X&X X[.[. X X X X X XF G q 7 8XqXqX0X#Xm.9.n.[ ( ! v.q.",
"V.b.Z.v.t.Y.r.N. .^ qXqXqXqX*X9 &X X X X X X{.'.+.+.+.(.`.}. X X X X&X}.w qXqXqXqX=X3.m.Z.| ( X.q.e.",
"V.B.v.8.B.y.r.B.| ~ qXqXqXqX*X9  X[. X X X(.(.s < @ + 6 p +.d }. X X{.{.w qXqXqX0X=Xa.4.x.V.L.x.x.y.",
"m.z.Z.S.N.q.m.t.t.N.qXqXqXqX*X9 }._.}.).+.p 8 m M B B B 3 o h +.(.(._.+.w qXqXqXqX;Xa.Y >.m.N.N.y.e.",
"q.S...o.R v.x.v.q.t.2XqXqX;X*X7 ).).g e 4 = c B M B B B j l x 4 t (.+.+.w 0X0X0X2X=XC.<.p.x.9.y.y.e.",
"q.e...P ' 0.n.x.9.y.*X-X*X*X*X7 h e 5 j B = x M N B B M j z N v v b e +.7 ;X,X;X*X*XA.m.x.B.B.2.q.N.",
"y.w.w.] D.w.m.t.9.r.j.:X;X<X=X- 5 A B v C = x B B B N N j x B v N N N 1 ; ;X<X;X#Xh.q.y.0.,.:.u.x.y.",
"y.e.q.F.q.n.v.t.B.9.t.qXqXqX2X$ D h C v B = c B B N B N 2 z B c B N M v O qXqXqX<Xx.8.N.{ I U b.N.e.",
"e.e.y.r.r.w.S.9.e.N.H.qXqXqX9X& G `.n B B = x N B N N N j x B c C N M v : qXqXqX2Xx.L.V.u.X.n.n.v.q.",
"0.e.y.r.Y.y.8.S.0.1.J.qXqXqX2X1 N s B B B j x N B v N M j x B c C N N v : qXqXqX<Xz.z.( V.n.c.8.w.y.",
"v.N.9.y.9.B.{ ) U m.!.9X9X9X;X1 B f B N M 2 v V B v N B j x B c B N B v # qXqXqX-Xu.I ( b.C.q.e.w.q.",
"w.q.F.t.B.q.{ ~ 2.q.!.<X<X<X-X1 V f C B M = x N B c v N 2 x B c B B V v : <X2X;X=XV.X.c.V.V.e.w.F.N.",
"w.q.e.,.n.x.c.c.z.n.E.,X;X;X*X1 L ).Z B x = v M B c v B = x B c B M B v O -X;X,X;XJ.n.n.0.0.S.D...9.",
"w.e.m.m.Z.n.w.S.v.n.4XqXqX9X1X3 N S B C z = x V B N c B = x C v B N B c O qX8XqXqXOXz.q.8.q. .' E ,.",
"r.y.t.t.N.v.z.c.c.S.8XqXqXqX<Xl N C N C k 2 x B B B v M = x B N N N B x # qXqXqX9X@XD.e.y.B.:.Y :.e.",
"e.9.t.y.N.m.L.n.D.w.6XqXqXqX;X< M C m B j 2 c B N B N N = x N B c B B z ; qXqXqXqX%XH.Z.r.5.-.p.m.N.",
"w.c.e.y.r.r.A.u.' ^ 6X8XqXqX;Xa K b M C = = x B v B B B = x B B v C q i 7 qXqXqXqX#X4.a.a.-.%.d.m.y.",
"e.e.o.w.` 5.U.V.( ^ 8XqXqXqX*XJ  X XJ q 2 = x N N c v B = x M v Z J  X+.7 qXqXqX9X@X4.a.U.d.a.U.m.e.",
"r.F.] P E C.7.=.p.m.8X8X8XqX*XL  X X X X'.0 x N C x c C j j q |.&X}.{.g 7 0XqX2X2X$Xu.s.` p.C.t.t.e.",
"r.9.8.} z.U.7.$.6.U.6X9X8X,X*Xf }.'. X X X X|.q V m x M X |.&X&X&X{.|.d 7 -X,X-X*X@X_ U ( i.:.2.q.y.",
"y.e.v.n.Z.m.d.7.$.=.:X-X*X*X*Xs g ). X X&X X X X[.'.'.[.|. X X X)./.d /.7 *X-X*X*X@X<.| V.:.Y r.r.v.",
"w.q.8.A.z.2.&.;.7.;.f.>X<X2X*XJ w u g ).`. X X X&X|. X X&X X_././.d u w 7 1X2X2X$Xf.M.m.U.C.a.P.N.e.",
"c.v.<.I.F.B.-.i.p.U.d.qXqXqX;Xq z m z F u h g _.'.{./._.).+.(.u S z m M O 0XqXqX<XV.m.5.>.&.U.M.t.N.",
"D.G.r.6.N.v.x.T.u.M.l.qXqXqX,XA B M N M 2 o t p /.d d (.u r $ x B N M v # qXqXqX2XK.N.M.3.#.5.B.m.y.",
"e.q.B.t.] ^ { z.n.V.3XqXqXqX-XA C M N j 2 2 x M @ < <   $ k B v B M N l : qXqXqX<X3Xv.q.M.M.A.2.x.e.",
"y.<.t.x.T ^ ..G.c.D.%XqXqX9X*XA V M 2 2 = 2 v B v B k % j z B B C m M * , qXqXqX<X+Xq.S.x.:._ R q.q.",
"t.e.t.e.v.e.e.e.v.Z.4XqXqX2X-Xl 2 * = 2 = 2 2 2 = = = = = k N B B z = = > qXqXqX<XoX8.q.Z.{ ! } x.y.",
"y.y.e.q.x.y.y.e.e.q.%X<X;X*X*Xq 2 = 2 2 * = = 2 = 2 = * = = = j = = = = : ;X<X;X*XoXq.N.Z.z.z.J.N.e."
};
