/* XPM */
static char *result[] = {
/* columns rows colors chars-per-pixel */
"50 50 223 2 ",
"   c #030402",
".  c #0C0502",
"X  c #060904",
"o  c #0A0C05",
"O  c #0C0D0A",
"+  c #150803",
"@  c #0D1306",
"#  c #0E110A",
"$  c #12150D",
"%  c #161908",
"&  c #141B0A",
"*  c #141512",
"=  c #171A12",
"-  c #191D14",
";  c #1C1D19",
":  c #2A0803",
">  c #3B0B04",
",  c #261307",
"<  c #361508",
"1  c #1A250C",
"2  c #1E2B0D",
"3  c #1D2214",
"4  c #1E211A",
"5  c #222E0F",
"6  c #24340D",
"7  c #222D11",
"8  c #22251C",
"9  c #24291C",
"0  c #272A1C",
"q  c #243211",
"w  c #2C3B14",
"e  c #2B3518",
"r  c #323915",
"t  c #242622",
"y  c #262923",
"u  c #292B24",
"i  c #2B2C2A",
"p  c #2D3325",
"a  c #2E312B",
"s  c #32352D",
"d  c #373B29",
"f  c #34392E",
"g  c #343533",
"h  c #373A33",
"j  c #393C35",
"k  c #373738",
"l  c #3B3C3A",
"z  c #470401",
"x  c #570702",
"c  c #461305",
"v  c #670B03",
"b  c #6C0903",
"n  c #790803",
"m  c #2E4616",
"M  c #324416",
"N  c #334619",
"B  c #38511B",
"V  c #3C4134",
"C  c #3E413A",
"Z  c #414E1C",
"A  c #485813",
"S  c #425B1C",
"D  c #44611E",
"F  c #4F6E1D",
"G  c #435C22",
"H  c #4D5E20",
"J  c #41443D",
"K  c #454A38",
"L  c #4D513D",
"P  c #466521",
"I  c #4A6624",
"U  c #4C6C23",
"Y  c #556927",
"T  c #4D7121",
"R  c #567727",
"E  c #667C2C",
"W  c #454643",
"Q  c #474943",
"!  c #494D45",
"~  c #4D4D4B",
"^  c #4D5149",
"/  c #525741",
"(  c #51534E",
")  c #525351",
"_  c #565953",
"`  c #5B5C5A",
"'  c #5F615B",
"]  c #636655",
"[  c #61625F",
"{  c #646563",
"}  c #676A63",
"|  c #696B66",
" . c #6C6D6B",
".. c #6E716B",
"X. c #71726E",
"o. c #757674",
"O. c #787976",
"+. c #7D7D7C",
"@. c #880401",
"#. c #930502",
"$. c #9A0301",
"%. c #A40100",
"&. c #A90000",
"*. c #558919",
"=. c #5B9B16",
"-. c #599719",
";. c #62971B",
":. c #639C1C",
">. c #5DA11D",
",. c #63A31E",
"<. c #5A8527",
"1. c #5B822B",
"2. c #5E9A26",
"3. c #5F8B31",
"4. c #64892A",
"5. c #71882C",
"6. c #689827",
"7. c #749D22",
"8. c #799927",
"9. c #648431",
"0. c #669234",
"q. c #6A9534",
"w. c #6B9B36",
"e. c #739D38",
"r. c #5EA221",
"t. c #63A323",
"y. c #6AA423",
"u. c #67AA26",
"i. c #65A42B",
"p. c #6BA42B",
"a. c #66AA29",
"s. c #6CAC2C",
"d. c #79A62A",
"f. c #73AD2B",
"g. c #6DB32D",
"h. c #76B12E",
"j. c #6CA832",
"k. c #75AC34",
"l. c #7AAB32",
"z. c #78A539",
"x. c #74AA3B",
"c. c #6DB231",
"v. c #73B333",
"b. c #7BB334",
"n. c #75BA34",
"m. c #7CBA35",
"M. c #7BB43B",
"N. c #75B93B",
"B. c #7CBC3B",
"V. c #7FC439",
"C. c #79B943",
"Z. c #7F807E",
"A. c #7EC043",
"S. c #849C25",
"D. c #899927",
"F. c #919222",
"G. c #84A42E",
"H. c #88A42B",
"J. c #95A22F",
"K. c #84AC34",
"L. c #88A936",
"P. c #95AA37",
"I. c #84B235",
"U. c #82BB36",
"Y. c #8BBC35",
"T. c #84B33C",
"R. c #8AB43A",
"E. c #84BC3B",
"W. c #8BBC3C",
"Q. c #94B43B",
"!. c #98B33A",
"~. c #93BC3C",
"^. c #9BBA3E",
"/. c #A3AB3C",
"(. c #82C435",
"). c #85C43D",
"_. c #8CC43D",
"`. c #84CA3D",
"'. c #8DC93E",
"]. c #92C43D",
"[. c #99C73F",
"{. c #93C93E",
"}. c #84BD42",
"|. c #8CBC43",
" X c #89B844",
".X c #94BD42",
"XX c #9CBC43",
"oX c #99BA46",
"OX c #A5BA47",
"+X c #80817F",
"@X c #84C442",
"#X c #8CC543",
"$X c #85CA43",
"%X c #8CCA43",
"&X c #86C54A",
"*X c #8CC549",
"=X c #8DCB4A",
"-X c #92C443",
";X c #9AC344",
":X c #92CB45",
">X c #99CD46",
",X c #93C54B",
"<X c #9CC44A",
"1X c #93CC4B",
"2X c #9ACB4B",
"3X c #88D047",
"4X c #8DD14A",
"5X c #93D24B",
"6X c #9BD24C",
"7X c #95CD51",
"8X c #9ECC55",
"9X c #95D453",
"0X c #9AD353",
"qX c #A2C447",
"wX c #A2C24C",
"eX c #A3C84C",
"rX c #A3D24D",
"tX c #A7C651",
"yX c #A2D353",
"uX c #848483",
"iX c #888887",
"pX c #8A8A8A",
"aX c #909090",
/* pixels */
"].:X_.=X$X=X1X_.].'.'.(.`.3X@X@Xx.1.R 9.k.#X:X).#X=X).$X%X$X_.:X$X=X`.$X$X=X%X=X-XU.-X-X>XW._.:X4X{.",
">XE.1X).=Xg.#X:X_.{.{.`.`.%X3.m # @ o @ 2 S z.1X:X%X`.V.#X>X-X).B.E.>.$X$X%X(.'._.:X-X_._.1X:X%X:X%X",
":X{.#Xf.y.y.E.>X:X:X{._.'.0.  + c n @.v , o % q._._.4X)._.].;X2XK.-.l.#X%X].rX[.].].{.:X).$XN.B.%X#X",
"_.5X%XU.y.).).$X'.'.{.].T.& : $.&.&.&.&.&.@.: 5  XU.:X_.6X,X-X-X X,X#X1X-X(.:X_.{._.'.%Xv.r.a.&X=X_.",
"%X`.:X:X:X=X$X$X`.(.%X-Xe.  z %.%.&.&.$.&.&.n + S y.).).5X:X:X-X-X-X1XE.$X4X$X%X`.'.&X).E.f.E.%X{.].",
"4X).4X:X,X=X$X3X%X).%X].T.m + b %.#.v z b $.%.> @ ;.-X#X`.`.'.-X>X~.-XW.4Xn.n.r.`.$X%X*X1X=X2X|.-X:X",
"'.%X:X-X).0X%X`.$X-X].<X.X8.r : #.v r B % x $.n . F z.1.w.@X).Y.^.!.~.;X-XB.=.f.$X=X=X=X#XW.1X6X_.).",
"%X).U.d.f.,X%X%X).=XI.,X;X8.Y . < + B |.E % v %., & M % & P $X:X[.7.I.;X-XE.).=X#X,X|.,X,X1X1X-X%X_.",
"'.).u.=.B.5X).$Xy.=.m.0X#X,XY     X 1  X XS , #.b   1 K K G ).%X%X}.1X$X#X>X_.-X-X].-X2X=XB.N.t.E.'.",
"=X).n.$X4X).%X$Xp.b.@XB.,X.XF $ J l . # 7 w % n &., o K d A #X).9Xc.A.%X_.).-X[.].eX2X-X7Xv.2.c.%X%X",
"-X1X:X$X#X,X0X-X,X|.0X=X=X6.6 @ $ $ * i t = o > #.b O K u A <Xf.,.u.$X$X$X:X.X~.;X^.K.d..X-Xb.1X&X$X",
",X,X,X#X#X:X.X.X7X*X=XB.0.2 @ * y ! | +XO.| l # > b * L 0 R oXU.,.n.=X).%X:X-X<X-XR.R.K..X2X>X=X=XB.",
"1X=X#X%X,X:X1X2X|.&Xs.*.2 # [ ..O.iXaXpXpXpXuXj   , ; / 3 N  X.X2X_.5X:X$X=X1X$X,X*X=X#X%X{.:Xf.i.6.",
"C.v.p.#X%X.X2Xb.*X=Xi.m X ' pXpXiX[ d  .pX+XJ $ X   8 / % X 7  X;X-X>X%X$XM.b.s.5X=X)._.%X).'.m.j.C.",
"N.2.y.-X.XG.y.;.@X&X0.& 4 aXuX[ y # # 3 iX) o 3 o   0 / , z . X Y  XW.$X).,.:.n.).:X1X>X>XY._.:X=X=X",
"A.E.8XG.8.I.7.].7X XG   3 V 3 # = u =   ! l 3 { l   $ 0 X + : . X w 0.|.-XU._._.:X).>X_.{.-X#X_.`.%X",
"=X&X<X.X^.qX~.;XXX8.Z o * = 3 8 3 & t # = u O C t               .   @ G q.-X-X-X$X).>X_.].-X'.:X:X%X",
"}.<XqXP.H.XXqX!.OXG.H o $ $ $ $ 4 a ^ j   - a 8 o   X X O t i o - 8 @ 5 7 L.-X>X)._.`.:X:XU.%X%X:X%X",
"^.J.P.Q.H.!.XXXX.XW.I o g j j h V J ; ` 4 t ..' O     * _ O.o.X O # 7 9.5..X_.(.(.{.).n.v.M.1X*X:X'.",
"^.H.Q.oX.XL.S.XX<X;XI # j ! h u = W = ^ l ; } g   t O _ pXpX! X * $ o % 5.qX[.[.[.{.$Xt.r.M.*X#X%X_.",
"2XW.d.6.f.,X XXX^.qX9.@ 8 $ s 4 y W ` a # J k X g 4 t uXpXpX9 & l k y X w oXJ.XX>X).*Xb.}.=X1X1X#X].",
").:X,.g.*X2X<XI.7.^.L.w $ u ! f j 9 O   - ; O k o.# - C p 3   3 k k l t @ .XS.P.,X7X*X:X0X*X$XB.%X'.",
"*X7X).1X-XR.W.%XB.=XE.I X X O o     X O ; i ~ ` i * * #   X X * = y j i o .XW..X!.wXXX|.$Xv.p.6.#X_.",
",X*X5X-X].rX-X:XN.s.*.r = ) 8 8 ^ ) ) ` | [ J ; i _ ( 8 8 l X X X $ ; * @ |.:X-XD.H.~.;X2XM.i.B.$X'.",
".X,X%X).5X[.].,Xb.y.Y $ ! pX! ; {  .| ` h - ; C [ } a 4 ` +X$ X X O o     4.-X^.!.^.oX.X|.,X0X$X:X-X",
",X*X%X5X:X).-X-X]. XZ * +.pX[ X O O O X * j [ .._ = $ ' iXpX#   s +.o.i   T K.G.^.eXoX7.T.,X:X%X'.'.",
"$X%Xm.B.t.=X$X_._.z.q f uXiX|   ; W ( _  . .` a X = } pX+.C   O  .iX) # m M.K.K.;XR.<XT.|.-X_.[._.:X",
").%Xn.=.s.x.1.R 6.q.5 j uXpXJ   4 l W Q l 8 o ; W Z.pXiX! O * a +.~ - B  X,X|.l.6.l.<X:X-X>X-XW.:X_.",
"'._.(.g.x.m *   & N w $ ! o.9   # 8 4 4 4 t 4 } pXpXpXo.u = { +.' & B  X-X-X=X7.l.#X).#X).T.b.-X:X_.",
"{.%X_.}.B 8 _   O 2 I 5 o 4 o   # ) ....o...f | pXpXpXX.; V uXuXC 1 z.#X-X-X%X$X:X%XE.>Xb.-.6.&X#X'.",
"%X_.>Xe.1 Q +.O X 1 0.1.o $ = 4 X y Z.pXpXiXC ^ pXpXpX+.a ; ` ` 3 m |.#X,X:X$X0X$X*X0X,X}.M.$X=X%X'.",
").%XW.L.w k uXg X # # q X t k a #   9 uXiXpX_ = O.iXiXuX) O     @ R ).,X%X=X4X).&XB.&Xp.*X7X$XV.%X%X",
"*X%X_._.R % Q o l o.s X   $ g t % 2 X 3 o.iX) * # @ # # o X     o S @XN.M.b.=X%X%Xg.-.j.|.,X#X%X'._.",
"`._.:X_.#XI @ @ 4 O._ # u y g * r z.D @ u ^ u ! ( Q V f -   O 8 8 6 w.r.p.b.*X%X$XE.B.*X7X,X%X).:X:X",
"`.`.:XU.1XC.1.1.e k k X 4 g i & T V.@XU O X a _ ( J i * + 0 L ] / 5 0.h.E.#X=X9X9X*X=X=X@X).=X4Xn._.",
"`.'.-X-X=X4XA.=Xj.e O o X # # 6 c.V.g.j.2   * = $ X $ 3 8 0 0 8 = X T ].>X,X&XC.x.M.).`.).).N.s.y.U.",
"{.{.].-X:X*X@X$X@Xw.M F 9.w M 0.$XV.V.-.M X 3 r d p % O o @ p ! ( - 2 R s.%X&Xi.6.M.4X'.-X>XK.6.b.-X",
"_._.]._.,X#X9X=X3X$X}.2X|.-X@X9X=X&X$X@Xe.7 / ' p X       u [ +XpX[ $   @ 0.=Xx.|.,X1X,X[.~.K.oX:X:X",
").$X%X{.[.-X2X&Xc.r.f.1XR.yX,X*X,X#X=X:Xx.1 # 4 % X d o O O X X y ) t   & 2 M..XtXP.P.oX.XL.S.wX;X%X",
"$X%XV.).d.Y.<XoXi.j.-X2X<X~.-X%X*X1X:X).k.1 Q +Xs X V X t g a $   X O   C # P |.oXD.oXoX<XOXXXqX-X_.",
"[.>Xf.-.6.<X/.F..X,XOXOXOXD.G..X-X:X6X%Xx.2 ! } O O - o i k g o   O * O { g 2 3.=XW.|.*Xz.oX<X]._.%X",
"]._.V.v.#XoX/.F.XXwXJ.D.OXoXQ.2X-XU.b.b.M.M j a # i o # g k *       & & +X..# m l.1Xf.2.6.|.I.W.].'.",
":X_.%X3X=X,XOXOXF.P.OXz.T.R.XX^.].,.=.b.*XI 4 #   #   $ g a   o B 1.1.@ l y X q 5.XXR.M.,XK.7.~.].%X",
").`.).1X#XW.G.P./.P.OX8.;.b.qX8.d.I.E.*X*Xq.1 # &     X t g # 1 }.&XM.w     w q.G.;X;X-X8X<X;X<X-X:X",
"$X%XR.>X5X1XK.oX,XOXOXD.Q.;X-Xl.W.:X,X:X$X).1.T M.x.R 1   X @ o M k.$XB.e.R f.=.,X|.<X~.P.H.qX;X:X'.",
"4X1X;X^.:X%X|.yX}.,XJ.D.].#X#X7X2X-XU.#X_.(.).%X4X*X<.q X 4 ! K 3 0.9X$X1Xb.:.b.*X#X:X;XQ.S..X,X-X_.",
"%X#X<X_.g.a.b.@X=X=X|..X&X@X=X).).2X6X%X$X#X*X=XE.x.q # o f pXuX3 U A.m.b.%X@X0X#X1X%X$X;X;X2XE._.-X",
"'.Y.-X#X>.a.B.=X&X=X|.k.a.g.,X:X:X%X_._.:X:XM.b.:.R # V ' ..pXpXW N -.-.m.2X#X#X-X=X).=X:Xb.v.:.$X_.",
"]._.-X%X%X%X'.%X_.=X#Xy.p.@X=X_.:X_.:X(.{.:XM.6.M.D X 0 J ! Q V = q 6.B.=X:X6X)._.'.E._.=Xk.t.M.#X%X",
"{.'.#X_.#X'.{._.].$X*X}.*X&X%X#X#XE.:X_.{.4X&XA.$XR $ X     X @ q T |.&X-X_.,X_.{.{._.=X1X$X}.7X%X{."
};
