/* XPM */
static char *result[] = {
/* columns rows colors chars-per-pixel */
"50 50 228 2 ",
"   c #2A1D35",
".  c #2A1E35",
"X  c #2A2032",
"o  c #2F213B",
"O  c #312937",
"+  c #3C3D36",
"@  c #484F39",
"#  c #525C3C",
"$  c #567236",
"%  c #637C3E",
"&  c #372745",
"*  c #372845",
"=  c #453D49",
"-  c #402F50",
";  c #443255",
":  c #4A365B",
">  c #4F3A61",
",  c #503B63",
"<  c #57307E",
"1  c #46464D",
"2  c #5D6B49",
"3  c #4D5668",
"4  c #5A5173",
"5  c #546266",
"6  c #5B667B",
"7  c #637170",
"8  c #5C8F17",
"9  c #5A9A18",
"0  c #64971C",
"q  c #629C1D",
"w  c #77991E",
"e  c #5DA11D",
"r  c #63A31E",
"t  c #5E9C24",
"y  c #679C24",
"u  c #769D23",
"i  c #6A8A3B",
"p  c #6A9937",
"a  c #5FA424",
"s  c #64A323",
"d  c #6BA424",
"f  c #65A62A",
"g  c #6CA42B",
"h  c #66AA29",
"j  c #6CAC2C",
"k  c #79A529",
"l  c #73AC2C",
"z  c #6BB32D",
"x  c #74B12E",
"c  c #6CAB34",
"v  c #76AB35",
"b  c #6DB231",
"n  c #73B433",
"m  c #7BB334",
"M  c #75B936",
"N  c #7BBA35",
"B  c #7DB63B",
"V  c #7CBC3B",
"C  c #7FC238",
"Z  c #6D8941",
"A  c #79B145",
"S  c #7EC445",
"D  c #869A28",
"F  c #919222",
"G  c #85A32D",
"H  c #88A52C",
"J  c #95A22F",
"K  c #84AC33",
"L  c #8AA935",
"P  c #94A937",
"I  c #84B335",
"U  c #86BB35",
"Y  c #84B43A",
"T  c #8BB33B",
"R  c #83BD3B",
"E  c #8CBD3C",
"W  c #94B33C",
"Q  c #99B63C",
"!  c #94BC3D",
"~  c #A3AB3C",
"^  c #87C335",
"/  c #85C43D",
"(  c #8CC43D",
")  c #85CA3D",
"_  c #8DC93E",
"`  c #91C43D",
"'  c #99C43F",
"]  c #93C93E",
"[  c #8DAA4C",
"{  c #84BE43",
"}  c #8CBC43",
"|  c #85B648",
" . c #94BD43",
".. c #9CBC43",
"X. c #98B945",
"o. c #89BC55",
"O. c #99B857",
"+. c #A4B947",
"@. c #809E79",
"#. c #89BC67",
"$. c #8EAD75",
"%. c #87B978",
"&. c #9AB978",
"*. c #A7B76B",
"=. c #A8B775",
"-. c #84C443",
";. c #8CC543",
":. c #85CA43",
">. c #8CCA43",
",. c #86C649",
"<. c #8CC549",
"1. c #8DCB4A",
"2. c #92C443",
"3. c #9AC344",
"4. c #93CA45",
"5. c #99C945",
"6. c #93C54B",
"7. c #9BC44A",
"8. c #93CB4B",
"9. c #9ACB4B",
"0. c #8AD046",
"q. c #8DD14B",
"w. c #93D24C",
"e. c #9CD24C",
"r. c #8DC957",
"t. c #98C756",
"y. c #93CD52",
"u. c #95CB5E",
"i. c #9BCB5C",
"p. c #95D353",
"a. c #9BD255",
"s. c #A2C548",
"d. c #A1C24C",
"f. c #A3D24D",
"g. c #A3C756",
"h. c #A0D259",
"j. c #9BC766",
"k. c #94CD6D",
"l. c #9ACB79",
"z. c #A2CA68",
"x. c #A5CB74",
"c. c #593281",
"v. c #5D3B84",
"b. c #6B3D99",
"n. c #6F509A",
"m. c #6C6F99",
"M. c #6D7199",
"N. c #7543A4",
"B. c #7944AC",
"V. c #7E4FB0",
"C. c #814AB6",
"Z. c #834FB9",
"A. c #9772BB",
"S. c #9274BF",
"D. c #9357CD",
"F. c #975CD0",
"G. c #9E6BCF",
"H. c #9E72C8",
"J. c #9C69D3",
"K. c #A176C8",
"L. c #A36FD7",
"P. c #A575D4",
"I. c #A769E3",
"U. c #AE6EEC",
"Y. c #AA71E3",
"T. c #AF70EE",
"R. c #B174ED",
"E. c #B47CEC",
"W. c #7996A7",
"Q. c #87B785",
"!. c #92B298",
"~. c #AAB985",
"^. c #A8B194",
"/. c #8784AC",
"(. c #9197BE",
"). c #B59EB7",
"_. c #83A9A8",
"`. c #9ABBA2",
"'. c #81A6B3",
"]. c #84A8B1",
"[. c #B4A8A8",
"{. c #B0B3A9",
"}. c #B6B7B8",
"|. c #97C887",
" X c #91C58C",
".X c #9DD383",
"XX c #A9C784",
"oX c #A5D387",
"OX c #A6CA96",
"+X c #B2C397",
"@X c #A7D398",
"#X c #9DC0A3",
"$X c #A9CDA9",
"%X c #B7C4A7",
"&X c #AAD6A6",
"*X c #BAC6B5",
"=X c #ACD0B9",
"-X c #ABD6B8",
";X c #C0C1B8",
":X c #9989CC",
">X c #9696C5",
",X c #9D9DCD",
"<X c #A784C8",
"1X c #A596D8",
"2X c #B490D3",
"3X c #ADAAD6",
"4X c #B1BADC",
"5X c #B887E9",
"6X c #BB8BE9",
"7X c #A991E1",
"8X c #BD93E6",
"9X c #B7A9EA",
"0X c #B6B1EE",
"qX c #B8BBEB",
"wX c #C9B8D6",
"eX c #C29CE6",
"rX c #C199E8",
"tX c #C7A3E8",
"yX c #CCAEE9",
"uX c #BCC8CB",
"iX c #ACD5C5",
"pX c #B2D8C5",
"aX c #B3DBC9",
"sX c #B8D8D7",
"dX c #BBD1E9",
"fX c #BAE0E7",
"gX c #C4CADE",
"hX c #C3CBED",
/* pixels */
"` 4./ 1.:.q.8.( ` ] _ C ) 0.,.1.4.( ;.4.( ;.4.#     $ -.>.;.( >.>.1.S :.:.q.1.>.>.U ;.2.4.( ^ 4.q._ ",
"5.R 8./ 1.j ( 4.( _ _ _ ) 0.:.>.-.4.e.;.>.B Z @ o . @ $ B 8.4.( B R e ) :.1.^ ] 2.4.4.( ( 8.4.8.4.] ",
"5.4.( x d d R 8.] 5.] _ _ ;.-.;.M >.>.N >.i O o * * & O i } 2.9.m 8 x ;.] ` e.] ` ` ` 4./ ,.M C >.;.",
") w.2.U d / ( >.>._ ] ( ] ( g q x >.:.) % + X . . .   . + % 2.2.} 6.2.8.;.^ 5.^ ` _ ` >.x a c ,.>.;.",
">./ 4.4.>.>.:.:.) ^ >.2.2.2.v l ( 8.Y Z 1 * O * & & & & & 1 i L 2.2.9.Y >.w.) 1._ _ >.-.U x Y >._ _ ",
"0.) 1.>.4.1.:.q.0./ ;.` 2.2.} a.9.4.i . - , , , , , , > , - X i 5.! 2.-.q.z M a C :.,.<.9.1.8.} 4.5.",
">.>.4.` ( a.>.:.>.;.` 7...K L 2. . .Z . - , , : - - : > > - X i ! Q Q 5.2.N 9 x :.1.1.4.;.E 8.f.E ( ",
"4.) U l l 8.>.;./ ;.I 5...k  ...6.( p @ = ; : ; - - - : ; = @ v ' u K 5.2.R -.>.<.8.{ 6.<.8.8.;.;.( ",
"/ / r 9 C w.-.-.d 9 N 9.2.7.7.E h 9 n } 1 o * * , > ; * o # V >.1./ 1./ ;.5.2.` 4.` 2.8.q.A M a ^ ) ",
"8./ M >.1.-.>.;.j M C { 6.2.K 7.j n } <.# o : ; , , > ; o # ;.-.p.z -.1./ ( ] ' ! s.9.2.8.v a b 1.>.",
"<.8.>.>.;.4.a.2.6.} p.y.8.I w s.4.8.W D 2 1 3 3 4 4 4 4 : # 9.x e h :.:.>.4.2.! 3.! L k 2.2.I 8.,.>.",
"6.8.4.;.2.2.E 2.9.<.1.V m 2.! ! 2.2.L D Q.W.W.W.W./.W.W.W.@.5.Y d M >.-.>.;.;.7.2.! E K  .9.9.;.<.V ",
"8.1.;.;.8.2.4.9.-.,.j 9 B 8.5.` 4.2.j.@XZ m.m.m.6 6 6 m.6 Z -Xk.5.( e.4.>.,.8.-.<.;.<.2._ _ 4.j f t ",
"A n g ;.2.2.9.m <.<.j b >.-.) ] 8.y.oXsX7 O   & & & o * O 7 sX@Xt.2.5.>.;.N M j w.1./ >.4.( _ U c A ",
"M 9 g ;. .G d 0 ,.,.1.1.-.;.4.( 9.@X&Xk.p $ O   .     O Z [ z.$X&X7.( ;./ r q N ( 4.8.5.4.R ( >.,.1.",
"S { g.G u T u ( 6.} 6.t.6.;.( U 9.-X-X0.-.o.5 3 3 3 3 3 A Y H *XpX<.1.1.;.U ( ;.>.) 5.( ` 4.2.( >.) ",
"1.<.7.Q Q s.! 3.X.D  .g.} 4.>.4.1.-X-X:.S #.W.].].].]._.u.-. .=X-Xr.M ;.;.5.2.2.1./ 5.^ ] 4.( 4.4.>.",
"R 9.s.L G ' s.W ..G W  .t.-.R 1.1.-X-X1. X_.r.#.j.3X`.#.Q.%.6.-X-Xf c 8.7. .4.5.) ) ) 4.>.U 4.>.4._ ",
"X.L P W H Q X.+...} 4.>.C h n 1.w.@X&Xl. XA <.w.j.uXOX-.%. Xl.&X Xb <.s.....` ^ ^ ] ) N n m y.2.>._ ",
"Q D W 3.W P D ..s.5.>.-.s j A ,.x U l.fX.X) ( ;.u.iX Xl 8.oXfXl.-.<.9.L H s.' ] ` ` :.s a B <.-.4._ ",
"f.E k q v <.W ....s.3.` Y ,.-.y g K j..X|.%.<.=.=XsX#X{ %. X.X1.` 3.3.I K ..P +.5.:.>.B A 8.1.8.;._ ",
"( 4.s l <.9.6.I u ! !  .h.7.7.Y T X.h.k.Q.%.7.XX;XfX&Xr.!.`.k.9.....' 2.! ! D L 9.9.6.2.p.>.>.Y ;._ ",
"<.9./ 8.2.U ( ;.V 1.} } X.k } +.D J l.sXl.2.2...l.aX@XA *XgXsXx.X.W ! ! E 5.E  .X.d...E >.b j s ;._ ",
"6.;.y.>.` f.2.>.M f y 7.+.G W 7.+.XX&XOXj.g.~.x.h.oX@X@XOXOX@X@XXXD W 5.` 2.2.2.D D ! 2.9.B f A ;.( ",
"6.6.>.^ 9.` ` 8.m d T X.X.d.8.<.z.pX*XX.3.*.*XXX( 5..XpXoXi.>.&X&XO.O.6.y.B 2...W Q X. .<.6.p.;.>.4.",
"6.<.4.q.>.;.2.2.;.6.9.L u X. .l.sXgX{.G 7.r.o.,.>.>.y.z.&XOXV A XXiXl.A y g K G ' g...u I 6.2.>.( _ ",
"/ q.N C s >.>.;.( ` ` E ..g.~.+X@X+Xx.T &.&.t :.1.XXj.( .X X%.o.j.OXOXl.v B K K ..T 7.Y } 2.( ] ] 4.",
"/ >.n 9 z -.>.;.( ] 5.( 2.g.pXOX3.e.4.i.^.{.o.<.t.*X+X^ -.|.fX.Xi.j.&XaXj.6.} v w v 9.2.2.5.4.E ;._ ",
"_ _ ^ z 1.:.;.2.E ` ] ` E z.pX$X} B &.*X~.&.*Xl.<.i.O.7.+X$Xl.&X=X}.gXaXi.2.4.d l ;.( ;.( Y m } 4.( ",
"_ ] ) w.-.4.>.2.5.( ` ` U r.pX=X$.v z.+Xz.z.+Xj.>.8.O.~.%XXXc $XsX{.aXaXt.2.>.>.1.;.^ 4.m 9 y <.;._ ",
">.( 5.` ^ ) 0._ ;.>.9.:./ u.aXhXrX&.6.2.` E ` 4.4.6.~.wXO.7.} $X=XR &XaXj.>.-.p.,.<.a.6.| B ,.0.>._ ",
"/ ;.` ' f.] ^ 0./ / -.1.0.p.aXqXK.).}.*Xj.] ` ( r.^.^.*.[ =.).dXdX}.sXaXu.1.1.-.>.S { g ,.y.:.^ >.>.",
">.>.( _ ( 9.m k 0 <.>.:.1.u.aX4XK.2XeXyX{.j.1.-.p ^.~.d.*.[.8XdX4X8XdXiXo.v 1.>.>.n 9 g o.7.( ) ( ;.",
"( >.4._ 4.;.x d E } :.q.-.r.aXhXwX<X<XtXtX3Xr.9.-.t.g.O.).2XA.4X4XA.3X=XA m <.>.;.V V ,.y.6.>.( 4.4.",
") ) ` Y <.<.:.:.;.1.S S z r.aXdXrXP.P.P.<X<X[.*.O.^.[.[.<XP.L.9X9XL.3XiXr.2.q.p.p.,.1.1.R / q.q.N ( ",
") _ 2.;.4.>.:.1.:.1.z 9 a u.aX0XR.E.P.A.A.K.rX[.=.2X8X8XK.G.U.5X6XR.0XaXi.8.,.A v B -.) / / V j s U ",
"] ] ` 2.2.>.,.:.:.>.( m y.u.pX0XR.eXeXY.Y.L.A.2XeXA.A.A.L.R.U.G.K.U.0XiXr.>.,.f y B 1.>.5.5.K y m >.",
"( _ ` ( 8.;.p.1.q.,.-.e.;.i.aX0XR.6XrX8XE.Y.G.P.P.P.G.P.5X5XU.7X1XT.0XaXy.>.1.v o.6.8.4.2.! K X.4.5.",
"/ :._ ] 2.` y.-.c a j 5.( x.aX0XI.R.6XyXrXR.T.P.K.P.R.R.eXeXU.dXqXY.0XaXi.2.;.} +.P W ..X.G D d.3._ ",
":.>.C ) k ! d.X.g f 2.9.3.O.iX3XD.8XeX5XrXrXR.6XeXE.R.U.E.E.U.yX4XZ.,XaXj.8./ 2...D X.X.d.d.X.s.2.( ",
"` 9.l 9 y 7.~ J  .7.+.+.+.L uX,XC.K.5XT.6X8XR.5X8XR.E.6XT.U.T.7X:XB.,XaXr.,.0.) 4.E { <.k  .7.2.( >.",
"` ( C n ;...~ F X.d.P F +.*.pX,XN.C.D.I.U.U.R.R.T.T.8X0X7XU.U.F.V.N.,XiXp 1.0.:./ 9.v t p } I E ] >.",
"5.) :.0.1.2.+.+.F ~ X.v Y O.aX,XN.B.C.D.I.E.tX5XT.T.E.5XT.I.D.1X,XB.,XiXo.( >.m k ..T m 6.I w ! 2._ ",
"( ) / 9.>.T D P P P +.u 0 | aX,Xb.b.B.C.D.Y.eX5XR.5XE.U.I.I.H.,X:Xn.>XaXj.9.9.U H ..7.2.g.7...7.2._ ",
":.>.E 3.8.8.K  .O.7.+.D T i.aX(.c.N.N.b.V.D.U.T.E.yX8XU.D.:XdXS.b.< (.iXz.x M q 7. .2.! L H s.7.` 4.",
"q.w.' Q 4.>. .i.-.6.J F  .6.l.`.>Xn.b.N.B.C.D.D.J.J.J.J.1X1X:Xn.n.(.#Xk.9.m q n ,.-.2.5.W D ! 5.2.>.",
">.( 7.( z h n ;.,.1. .} ;.-.>.l.=XM.n.b.b.N.B.B.B.B.B.V.>X/.n.n.W.iXl.M m ;.-.p.>.8.>.( 7.7.9.R ;._ ",
"] E 2.;.e j N 1.>.1.{ v j z q.8.r.=X>Xc.c.c.c.c.c.c.c.c.v.v.c.>X=Xu.a 9 B 9.2.>.2.1./ q.2.m l r ( _ ",
"_ ( 2.;.>.>.>._ _ 4.-.y j { >.>.4.l.!.m.m.M.M.m.M.M.M.M.M.M.M.`.l.} N N 2.>.e.( ( ;.^ ;.1.x f m ;.;.",
"] ( _ ;.>.( _ ] ( ;.<.{ <.1.;.;.;.R k.].W.].'.W.'.'.'.'.'.W.W.l.;.6.4.;.4.( 4.( ;.4.;.;.9.-.{ y.;.>."
};
