/* XPM */
static char *result[] = {
/* columns rows colors chars-per-pixel */
"50 50 238 2 ",
"   c #5B960F",
".  c #5B9B14",
"X  c #659C19",
"o  c #7A9C1E",
"O  c #5EA219",
"+  c #63A31A",
"@  c #6AA61F",
"#  c #61A81E",
"$  c #73A51F",
"%  c #679D29",
"&  c #5DA221",
"*  c #6BA324",
"=  c #6AAC26",
"-  c #66A528",
";  c #6CAC2B",
":  c #77A928",
">  c #73AE2B",
",  c #6CB22D",
"<  c #74B22C",
"1  c #7AB52E",
"2  c #6FAB35",
"3  c #76B332",
"4  c #7DB533",
"5  c #78BA37",
"6  c #7CBB34",
"7  c #7DBC3B",
"8  c #7EC038",
"9  c #6DAA44",
"0  c #7DB946",
"q  c #7AA164",
"w  c #94941F",
"e  c #879C25",
"r  c #8F9A2A",
"t  c #87A529",
"y  c #84AC2D",
"u  c #90A82E",
"i  c #8AAC35",
"p  c #97AB36",
"a  c #83B535",
"s  c #8AB637",
"d  c #83BD35",
"f  c #83BD3B",
"g  c #8CBD3B",
"h  c #97B739",
"j  c #94BB3C",
"k  c #A5AD3B",
"l  c #F8A23B",
"z  c #83C536",
"x  c #8BC336",
"c  c #8AC835",
"v  c #85C43B",
"b  c #8CC43C",
"n  c #85CA3D",
"m  c #8CCA3D",
"M  c #96C53B",
"N  c #92C53C",
"B  c #92C93D",
"V  c #90A94C",
"C  c #85BB47",
"Z  c #8CBE42",
"A  c #93BD42",
"S  c #96B847",
"D  c #9CBC43",
"F  c #89B957",
"G  c #94B85A",
"H  c #A4BB45",
"J  c #A1B758",
"K  c #98BA65",
"L  c #8BAC71",
"P  c #96B779",
"I  c #D1BE5E",
"U  c #F8A848",
"Y  c #ECA657",
"T  c #C68F77",
"R  c #E7A261",
"E  c #FCB765",
"W  c #85C442",
"Q  c #8CC542",
"!  c #86CA43",
"~  c #8CCB43",
"^  c #8BC54A",
"/  c #8DCC4A",
"(  c #93C543",
")  c #9BC344",
"_  c #92CB43",
"`  c #99CB44",
"'  c #94C54C",
"]  c #9BC54A",
"[  c #94CC4B",
"{  c #9BCB4B",
"}  c #8CD145",
"|  c #8ED24B",
" . c #93D145",
".. c #9AD045",
"X. c #94D24C",
"o. c #9AD14B",
"O. c #8EC756",
"+. c #92C354",
"@. c #93CC52",
"#. c #9ACA56",
"$. c #93C35B",
"%. c #8AD150",
"&. c #96D353",
"*. c #9BD253",
"=. c #95D854",
"-. c #A2C346",
";. c #A2C945",
":. c #A3C34C",
">. c #A2CB4C",
",. c #A2D44B",
"<. c #A4CB53",
"1. c #B0C253",
"2. c #A3D355",
"3. c #9AC766",
"4. c #A3C674",
"5. c #C0C057",
"6. c #E8C26E",
"7. c #F0C170",
"8. c #FAC176",
"9. c #7434AF",
"0. c #3D58AA",
"q. c #3B53B2",
"w. c #446299",
"e. c #567399",
"r. c #4057B0",
"t. c #536BA9",
"y. c #677AAD",
"u. c #1D34C4",
"i. c #2238C4",
"p. c #2C42CB",
"a. c #2D43CC",
"s. c #3144D4",
"d. c #3A4DD5",
"f. c #4A5ECC",
"g. c #535FCE",
"h. c #465AD7",
"j. c #5469CD",
"k. c #6E79CD",
"l. c #636ADF",
"z. c #5C57F7",
"x. c #5C58F7",
"c. c #5C58F8",
"v. c #6450E5",
"b. c #615AF8",
"n. c #5266E1",
"m. c #6C68EC",
"M. c #6578E6",
"N. c #7678F9",
"B. c #823EAF",
"V. c #894AB6",
"C. c #9161D7",
"Z. c #AA72CD",
"A. c #956BE7",
"S. c #8B72EE",
"D. c #866EFA",
"F. c #8974F7",
"G. c #9778FA",
"H. c #9C7CFB",
"J. c #A07EFB",
"K. c #7B9D9C",
"L. c #6D85AE",
"P. c #7180C5",
"I. c #93B18B",
"U. c #A6BC8A",
"Y. c #ABB79E",
"T. c #8394AA",
"R. c #8A8FB1",
"E. c #8996B5",
"W. c #959CB8",
"Q. c #B295AE",
"!. c #8DA6A5",
"~. c #94A8A8",
"^. c #9DB3AC",
"/. c #8DA1B7",
"(. c #94A4BB",
"). c #97A6BB",
"_. c #A9A4B6",
"`. c #AFB1B6",
"'. c #CF9D8F",
"]. c #D29C88",
"[. c #CCA39C",
"{. c #D1A090",
"}. c #D3A59E",
"|. c #CFAFA5",
" X c #D2A6A0",
".X c #9FC983",
"XX c #A8C186",
"oX c #F5C586",
"OX c #FDD191",
"+X c #FEDDAD",
"@X c #E3C4B0",
"#X c #8B93CD",
"$X c #9695CA",
"%X c #A68DC9",
"&X c #A696C9",
"*X c #96A4CA",
"=X c #B7A5CC",
"-X c #ABADD0",
";X c #9B8EEA",
":X c #8F92E0",
">X c #9394E6",
",X c #9B88FA",
"<X c #8394F8",
"1X c #9D99FA",
"2X c #A896EB",
"3X c #A58AF6",
"4X c #AF89FD",
"5X c #B18BFD",
"6X c #A996F8",
"7X c #B692FC",
"8X c #BE99FC",
"9X c #98AEF1",
"0X c #96ABFD",
"qX c #ADB1F1",
"wX c #B5B2F9",
"eX c #C1A8C0",
"rX c #C19AFC",
"tX c #CB9FFB",
"yX c #CCAEF3",
"uX c #CBA7F8",
"iX c #CCA0FC",
"pX c #E4BEFB",
"aX c #ADC4ED",
"sX c #ABC4FC",
"dX c #B5CDF8",
"fX c #B8D3FA",
"gX c #BBD4FD",
"hX c #E0D0D6",
"jX c #C9D0FA",
"kX c #D4D4FD",
"lX c #E9C3F6",
"zX c #EADAFB",
"xX c #F7D0FC",
"cX c #C6E1FD",
"vX c #DAE4FB",
"bX c #EEE1FE",
"nX c #E3E9FE",
"mX c #FDE3FD",
/* pixels */
"N B n ~ ! | [ b B c B z n } W / _ Q _ _ b ~ ` x ~ ! v m ~ ~ b ~ W } n ! ! } ~ ~ _ d ( ( _ b x _  .m ",
"` x ` b ~ < b _ x B B c n } ~ ~ b ~ o.b _ x o._ _ m m z m ` _ b f a O n ! ~ x B m M _ b b ` _  . .B ",
"` B Q < @ @ g ` _ ..B b m m Q n 6 } ~ 6 } ~ _ _ b x X.v b N _ { 4   1 Q B N ..B M M N B n W 5 5 ~ b ",
"b X._ d * Q n ~ m B B M B b > X < } m n n m _ ( ,.d } ~ X.` ( ) A +.( { _ x ..c B c B _ < # ; ~ ~ _ ",
"} n _ ` _ / ! } n z B _ ` ( 1 > b o.~ ~ _ [ ` s d $ v b X. .B _ ( ( [ d n =.! ~ n m } b f < f / B B ",
" .n  ._ ` / ! } } v _ N ) ( Z *.o.( ( ( j s ` y X $ _ ~ m n B ( >.M ( Q } 1 6 # n } ^ Q @._ { ( ` _ ",
"~ ~ ` B b *.~ ! ~ / ( ] ) y s ) ( A ` ] s e ( g d M ` _ } } m g j h j ` _ f . , ! / [ [ ( g ` o.b x ",
"_ b d < : o.~ ~ b _ a ] ( t S D ] ( a ] H j { _ ~ ` ( N ~ ! m ` M o s ) _ g Q _ / [ Q _ [ [ [ ' _ b ",
"~ b @ . 8 X.! ~ = X 6 X.( { <.g @ O 4 ( ] A { { [ ) ) -.) <._ [ / x [ Q ~ ` M ( _ B [ o./ W 5 - v m ",
"| n 6 !  .W ~ Q = 4 W v [ ( y ] = 3 b ( <.5.8.8.8.8.8.8.8.8.7.-.=., W / m b ` M M ;.;.( [ 3 & , | ~ ",
"( [ ~ / Q ` 2.( ( ^ &.[ [ s o :./ { p p I oXOXOXOXOXOXOXOXOXOX6.: = ! W ~ [ M M ) j i $ ( ' a @.^ ~ ",
"[ [ [ Q / ( A ( { ^ / W a M j M ( [ #XW.R E +X+X+X+X+X+X+X+XOXU Q.:X#.v ~ Q ( { M j j s j { ` ( / 7 ",
"@.[ Q ( [ _ ` { ^ ^ ; . 7 o.` B _ :XqXjX=XR Y U E E E E E U Y ].jXwX:X3.~ / X.b [ Q [ _ m B _ > ; % ",
"W 3 > Q ( ( *.4 / ^ ; 3 ~ n b B ` :X1XyX@XeXQ.].}.}.}.}. X].Q. XhX0X>X$.Q 7 5 , @./ W ~  .m m z - 0 ",
"5 O * A A y $ . W / / / Q _ _ x [ >X-X^.`.oXU {.}.}.}.}.}.].Y Q.yXwX>X+.m + + 1 m _ ` ` ` g b _ /  .",
"0 C 2.y t s o g { Z +.{ ' ~ m d B O.>X.X|.2X%XU E E E E E U %XR hX1X4.[ / d B ~ _ b [ N B _ _ b ! m ",
"%.^ ] D h ;.M ) S t S <.' [ _ _ B B @.^.|.oXY ;X;X;X;X;X;X;Xl R =XL 8 [ Q ` ( ( ~ n _ x B ` B _  .~ ",
"Z ` -.p t -.-.h H u h A { W f ~ M b @.$X;XQ.].'. X X X X X'.].%X<X2 < [ :.( _ ..m ~ m .._ d _ _ _ _ ",
"D u p h u h D H ) g ` ~ 8 ; < / &.( @.*XqX[.T '.}. X X X[.'.T |.6X9 ' H D -.x c x B n 5 < 6 [ ' _ B ",
"j e h ) S p e D >.` _ n # ; C W > 1 :XqXwX`.M M D y * 4 -.] G qXqX>X3.i i -.` M M B ! # - 7 Q ( _ ~ ",
",.j : + : ' A D h :.M ) d ^ W * L W.-X`.3.&.m C 0 % 2 C +.+.~ @.`.qX).I.C H u H ..! / d f [ [ [ B _ ",
"( [ @ > ~ { ' s o ) ) ) 2.#.#.L L K P L F F q w.w.w.w.w.w.w.0 F K L J 3.P +.e p { *.' [ *.Q ^ d ~ m ",
"' { Q [ [ g g / 8 | g Z S e S ~.r V q.r.0.0.q.u.u.u.u.u.u.u.0.0.r.0.G A J Y.g A h 1.( b / 3 ; & Q B ",
"' ^ &._ M ,.M [ 5 - X ] H u G W.J t.i.i.u.u.u.u.u.u.u.u.u.u.u.u.u.p.q.K K (.[ ) e r h ( @.6 * C Q m ",
"' [ / v o.B M ` d * Z D S :.K /.L.aXdXj.i.i.u.i.u.u.u.u.u.u.u.u.q.aXj.t.I.).( ) h D D S ' [ *.Q _ B ",
"( ^  . ._ m [ ( ( ( :.i t D G E.K.cXvXaXl.h.h.d.u.u.u.u.u.h.h.h.9XvXcX!.q /.y y M >.D o a ( [ _ _ m ",
"~  .6 8 = ~ Q _ N B B g j H J W.e.aXcXdXP.n.n.n.M.M.M.M.M.n.n.n.M.fXfXL.q /.d i D A ] g A ( M B B _ ",
"m m 6   , W ~ ( N B ` x ( ) V R.e.aXcXaXd.s.a.s.d.d.d.d.s.a.a.s.p.fXfXL.L *XQ : o : { [ _ ` B g _ m ",
"m m z < | ~ / N x M ` B M { $./.L.fXcX9Xh.s.s.s.d.s.s.s.s.s.d.s.s.wXfXL.P )._ * 3 ( Q b b d 4 ^ ( _ ",
"B  .m X.b / ~ N ` b B N x b F E.y.dXfXN.z.x.x.m.jX1Xx.c.c.c.0Xc.c.c.sXL.P )./ ~ [ Q v _ a . % ^ ~ m ",
"m m ` B b c  .m ~ _ [ ~ W X.$.L.y.fXgXN.x.x.z.N.jX6Xc.c.c.b.b.b.c.c.P.P.P (.Q &.~ ^ *.@.C 7 / | ~ B ",
"W _ M M ,...z } x v Q | } ! $./.L.fXgXN.x.x.z.c.b.c.c.c.c.c.9.9.v.c.b.k.I.(.| n / f ^ * ' @.! z ! B ",
"~ _ b B N ..1 : X ( ! ~ | _ G (.L.jXgXN.b.b.b.b.b.b.b.b.z.B.xXxXZ.v.b.k.L E./ ~  .< . ; +.' m m m b ",
"m m  .N [ Q 4 * Z b ! %.! ~ 3.(.R.zXnX,XG.6XD.D.D.D.6XD.V.pXmXxXlXB.m.C.L (.Q ~ Q v 7 ^ +.[ B m  .` ",
"n m _ s [ ~ ! ~ Q [ ! ! , ! 3.E.R.vXnX,XF.6XD.D.D.D.6XD.V.pXxXpXyX9.A.R.L )./ &.&.^ [ / n n | | 6 b ",
"c ~ _ ( [ / ! / ~ / ; . # } $./.R.vXnXwXwX,XG.G.G.G.G.G.J.V.yXyXZ.A.G.$X4.*X! 0 3 7 ! b x b 5 , @ d ",
"B B N ( [ ~ ! ! ! / Q 4 X./ F /.E.vXnX6X3XH.H.G.H.H.H.H.H.A.V.V.C.H.H.$XP ).^ - & C | m ` ` a * 4 _ ",
"B m B N ` ( &.@.%.! Q { ( ( $.).E.vXnX7XH.H.H.,XH.H.J.3XH.H.A.A.G.H.H.$XP ).@.3 S ' { [ ( j i S [ ` ",
"n ! B _ M ( o.W , - > ` g 2.$.E.E.kXnX6X,XG.F.F.F.,X4XwXJ.J.J.J.J.J.J.%X4.).^ A J p h ] D t e :.( B ",
"~ } z n : j :.] - = [ >.) A $.(._.bXbXiX3XS.f.f.f.S.4X5X5X5X4X4X4X4X4X&XU.).d [ h t p :.] :.H :._ B ",
"M ..<   * ] k p ( ` H H H e V E._.zXzX8XS.j.cXgXfXh.,X5X7X5X4X7X7X5X5X&XP ).} n ` ( Z +.: S :.( N ~ ",
"M b z 5 Q H k w D :.p r J k V (._.zXbX2Xl.dXcXgXsXwXd.5XyX7X5XkXkX5X5X%Xq ).} n b [ 2 X : C s b B _ ",
"..m ~ | / ) H k w k S y s g J (._.zXbX2Xl.dXfXsXsX0Xd.7X8X8X8XkXkX7X7X_.P (.~ a t ) s a ' a o j ( B ",
"! n n X.Q g i p k p H o X a J T._.bXbX6Xl.sXfXsX0X0Xd.8X8X8XrXrXrXrX8X-XU.).&.s y D ] ( 2.] -.] _ ~ ",
"! ~ j M o.o.y S ' :.H r s ` K E._.xXbXuX3Xg.0X0XP.h.8X8XrXrXrXrXrXrXrX=XU.E.6 + ( ( ] j u u :.) M _ ",
"X.X.-.M _ ~ ( #.C ) p e ) Q G /.U.uXlXyXtX8Xl.l.N.8XtXtXtXtXtXtXiXiXuXY.4.W.+ 3 / Q [ ` h e S ` ( _ ",
"B ~ ` A , = 1 Q / / A A / W $./.^ XXtXtXtXtXiXiXiXiXtXiXtXtXiXiXtXtXU.0 F ).Q *.Q [ ~ Q ` ) o.b _ m ",
"_ x ( Q # = 6 [ ! &.C 3 - , | I.:X+.] G #.4.iXtXtXiXiXiXuXrXyXG K 3.% K.!.3._ Q [ [ W  .' a < X b b ",
"B m N ~ / ~ m B ~ _ W * ; Q _ ~ _ $X*XF $.O.0 9 F C $.F +.+.O.+.+.#X#XC _ _ o.b m m v Q [ 3 - 4 Q _ ",
"B N _ m N ~ m B B ~ [ C ^ ^ ~ _ b z _ I.!.~.!.T.!.!.!.!.!.!.!.!.~.@.[ ~ ` m ` m B _ N _ { W W &./ _ "
};
