/* XPM */
static char *result[] = {
/* columns rows colors chars-per-pixel */
"50 50 241 2 ",
"   c #050605",
".  c #090A06",
"X  c #070A0A",
"o  c #0B0C0A",
"O  c #0F0F0F",
"+  c #0D120B",
"@  c #13140C",
"#  c #15190D",
"$  c #141514",
"%  c #181917",
"&  c #1C1B15",
"*  c #231E14",
"=  c #1A230C",
"-  c #1A2316",
";  c #262718",
":  c #25241C",
">  c #322A1A",
",  c #29361B",
"<  c #35331E",
"1  c #1D1D22",
"2  c #1D2520",
"3  c #232323",
"4  c #272928",
"5  c #332E24",
"6  c #293827",
"7  c #2C332C",
"8  c #353224",
"9  c #3A3323",
"0  c #33322D",
"q  c #393B2A",
"w  c #2C2E34",
"e  c #2E2F38",
"r  c #2E3136",
"t  c #323332",
"y  c #393935",
"u  c #32333B",
"i  c #3B3C3D",
"p  c #453A25",
"a  c #443C35",
"s  c #36481A",
"d  c #334F18",
"f  c #384927",
"g  c #3C432B",
"h  c #304C2C",
"j  c #3B5727",
"k  c #394A37",
"l  c #3E6922",
"z  c #4C4429",
"x  c #51442B",
"c  c #55482C",
"v  c #445A2A",
"b  c #464639",
"n  c #564B37",
"m  c #4F563A",
"M  c #645C3F",
"N  c #476727",
"B  c #4B7328",
"V  c #54772B",
"C  c #506934",
"Z  c #57683C",
"A  c #497730",
"S  c #557836",
"D  c #677B2A",
"F  c #373742",
"G  c #393743",
"H  c #373842",
"J  c #3A3A44",
"K  c #3E3E49",
"L  c #403F4B",
"P  c #3F414B",
"I  c #454544",
"U  c #4A4A46",
"Y  c #43424D",
"T  c #524D4B",
"R  c #4B5743",
"E  c #555648",
"W  c #464551",
"Q  c #494753",
"!  c #4B4956",
"~  c #4E4C58",
"^  c #595855",
"/  c #605E54",
"(  c #446240",
")  c #596848",
"_  c #5A7644",
"`  c #5D6257",
"'  c #646654",
"]  c #6E6F54",
"[  c #6D6C5B",
"{  c #767258",
"}  c #5C5B66",
"|  c #63636A",
" . c #666969",
".. c #726F66",
"X. c #6D7269",
"o. c #787868",
"O. c #6C6C74",
"+. c #7B7A77",
"@. c #74737A",
"#. c #817D71",
"$. c #558F12",
"%. c #5B9B1B",
"&. c #659C1E",
"*. c #68A51C",
"=. c #5B872C",
"-. c #5E9C24",
";. c #5E8434",
":. c #5D9632",
">. c #738C2B",
",. c #669D26",
"<. c #779C27",
"1. c #688933",
"2. c #689738",
"3. c #6B9B3A",
"4. c #739B37",
"5. c #5CA325",
"6. c #64A325",
"7. c #65A42C",
"8. c #6AA42B",
"9. c #69AB2D",
"0. c #75AA2C",
"q. c #69A734",
"w. c #6BAC32",
"e. c #73AC35",
"r. c #7AA93A",
"t. c #6DB230",
"y. c #73B335",
"u. c #78B538",
"i. c #7BB43A",
"p. c #7CBB3C",
"a. c #7EC13D",
"s. c #5A8644",
"d. c #669845",
"f. c #719945",
"g. c #6B8650",
"h. c #77A943",
"j. c #71A848",
"k. c #7BB744",
"l. c #7EB44B",
"z. c #7B866B",
"x. c #7EC144",
"c. c #7EC549",
"v. c #889829",
"b. c #859E35",
"n. c #8BA62E",
"m. c #88A938",
"M. c #93A83C",
"N. c #82B33D",
"B. c #83BB3D",
"V. c #89BA3A",
"C. c #95B93E",
"Z. c #A2BC3E",
"A. c #88C236",
"S. c #85C33C",
"D. c #8CC43C",
"F. c #84CA3C",
"G. c #8DC93D",
"H. c #92C637",
"J. c #92C53B",
"K. c #92CA3E",
"L. c #87AD43",
"P. c #99AA41",
"I. c #87B344",
"U. c #8CB544",
"Y. c #84BD44",
"T. c #8BBD43",
"R. c #82BC4A",
"E. c #8CBE4A",
"W. c #98B447",
"Q. c #93BC45",
"!. c #94BD4B",
"~. c #9BBC4C",
"^. c #88BA54",
"/. c #9DBE51",
"(. c #A4B54D",
"). c #848869",
"_. c #859568",
"`. c #898774",
"'. c #928E77",
"]. c #918E7A",
"[. c #8B9576",
"{. c #949778",
"}. c #95937C",
"|. c #87A06A",
" X c #85C344",
".X c #8BC445",
"XX c #85CA44",
"oX c #8CCB43",
"OX c #85C44A",
"+X c #8BC44A",
"@X c #85CA4B",
"#X c #8BCA4C",
"$X c #92C444",
"%X c #93CB43",
"&X c #92C44C",
"*X c #93CB4B",
"=X c #9AC848",
"-X c #8DD247",
";X c #96D149",
":X c #8CC551",
">X c #87C852",
",X c #8CCA52",
"<X c #95C754",
"1X c #9BC252",
"2X c #93CB53",
"3X c #9AC953",
"4X c #8FD051",
"5X c #98D256",
"6X c #A0CC50",
"7X c #7A7880",
"8X c #817C86",
"9X c #848589",
"0X c #969283",
"qX c #909087",
"wX c #9C9B83",
"eX c #9D9A86",
"rX c #8A8A92",
"tX c #969994",
"yX c #93939C",
"uX c #A29E89",
"iX c #9FA28B",
"pX c #A5A488",
"aX c #A8A697",
"sX c #B3AD98",
"dX c #BAB69C",
"fX c #A5A7A8",
"gX c #B6B6AA",
"hX c #AEAEB2",
"jX c #B6B8B8",
"kX c #C2BCA3",
"lX c #C7C5A6",
"zX c #CBC4AB",
"xX c #CFCAAD",
"cX c #D2CCAE",
"vX c #D2D3A9",
"bX c #D3CDB2",
"nX c #D6D1B6",
"mX c #DBD5B6",
"MX c #DDD6B9",
"NX c #BFC0C2",
"BX c #CDCACF",
/* pixels */
"J.%XS.oXXX-X;XJ.K.H.G.A.a.F.XX#X%XG.$X%XS.K.%XD.D.oXS.F.oXG.J.oXG.-Xa.F.F.-XoX%XoXV.J.J.%XH.A.%X%XK.",
"%XA.;XS.oX0.D.%XH.K.G.G.F.-XoXoXD.%X;XD.%XS.;X;X%XK.G.S.G.%X%XD.p.A.*.F.XX-XD.K.H.%X%XD.S.;X%X-X-XK.",
"%XK.$X0.6.*.S.%X%X%XG.H.K.G..XS.u.oXoXa.-XG.%X%XD.D.;XS.D.J.=X=Xi.$.0..XG.K.;XK.H.H.H.%XS.XXu.p.G.D.",
"H.;X.XB.0.Y. XOX.XoX.X.XoX X9.-.t.@XXXS.OX XR.r.:X_ h , , , - : q f.h.l..XB.%XD..XS..X+Xt.5.B s k.J.",
"G.F.#X+XOX>XOX@Xx.a.+X1.v +Xy.w..X*X+X#Xl.;.|.z.` 9XO.~ Q ~ ~ ! Q I 4 7 A d.c.XXXX@X#XOXi.w.B 9 , H.",
"-XS.#X+X#X+X@X@XXX Xk.Z # E.E.3X3X+X#Xd.z.gX+.} ~ ! ~ ! Q Q ! ! ! Q P H u 6 , 5.c.OXOX+X2Xl.f 9 < %X",
"G.oX+XOXY.5XOXOXOX+X4.p { , r.Q.Q.I._ o.fX! ! ! ! ! ! ! ~ ~ Q ~ ! ! ! J J u i % d.R.h.h._ , c 8 5 V.",
"%XA.p.0.0.#XOXOXY..X,.9 n n M v N ) aX7X~ ! ! ! ! ! ! ~ Q Q ~ ! ! ! ! Y F J F 4 - g.) c M z p < , D.",
"G.S.6.d j.#X X@X7.%.u.j z p p 5 3 #.| ! ! ! J J ! ! ! ! W O.! ! Q Q Q ! G G F O ] n c x p < q ; , G.",
"-XXXw.f X.S h.OX9.u.x.j.s 9 9 9 a rX! ! ! ! Q W Q ! ~ Q } } ! ! K G J Q J F F X p p 9 < 9 < , A #XG.",
"$X;Xd.k O.tX[.S E.OX5X,X:XV s ; @.| ! ! ! ! ! ! F Q ~ ~ ~ ! ! ! W L W ! K G F $ > 9 9 ; v V 3.2XOXXX",
"=X;Xs.( ~ @.BXgXv l.,Xk.i.T.m.= fX! ! ! ! ! ! ! Q Q ~ Q ! ! ! ! ! ! Q ! L G F F * . . s L.1X*X+X>Xp.",
"2X#Xj R ~ | 9XBXjXm w.5.u.#X=X= } W ! ! ! ! ! ! ! ! ~ ~ ! Q Q ! Q G Q ! J F F F G F e v .X.XoXe.q.-.",
"p.y.s E ~ ~ @.9XhXX.A w.oXXXS.; W L ! Q W W ! ! ! ! Q J F F K K ! L ! ! F F F F G G u j +XS.oXp.q.k.",
"u.%.:., k Q ~ @.| jXs >X X&X#X, J O o 0 ^ } 1 ! ! G O ..@...O.} t o X G F F F F F F G k I.Y. X.X#XoX",
"S.p.3Xv 7 u u ~ Q fXtXs.+X+XD.j v ' 0X0X0X0X..4 u y #.0X0X0X0X0X0XqX#.3 F F F F F F F k l.%X$X.X XG.",
"#X.X!.Q.z t e F Y ~ jX' I.2X+XoX4.).kX/ wXmXxX..b uXbXmXsX/ ^ / ^ / aXT 1 J F F F F F k Y.%X.X*X#XoX",
"V.=X1XM.>.7 u e P ! @.^ ^. XY.,X4.`.% t u $ U mXnXMXmX[ & t 7 0 0 w ' }.X G F F F F t v *XB..X.X%XG.",
"Z.n.M.U.b.B t 4 w W }  .% q.y.>Xh.[.O I i 0 y dXMXMXMX: 0 I U I I a [ qXo G G F F H u d y.u.*X+X#XK.",
"Z.v.V.1XP.4., e r H ! 9X9Xl k.OX=.`.O y : / pXMXbXMXMXdX[ 4 - 4 3 $ sXT 4 G F F F H 6 B 6.k.+X.X.XG.",
";XJ.0.,.e.!.f.2 w w J ~ NXR j.8.=.).xXdXbXnXMXE $ a kXMXbXkXxXbXbXzX/ X F F F w e H # i.Y.,X,X*X.XK.",
"D.%X6.9.OX2X<Xs 7 r F Q O.fX_ I.M.D [.dXdXmXwX5 I 4 ].kXkXaXsXcX].  3 G F F F H H w f &X5XOX+Xp..XG.",
"$X2XY.2X&XV.Y.h.6 u e K Q tX^ !.n.M.f.) mXmXxX}.kX].kXkXxXMXmXdX#.  w H F u w H i $ &X.X+Xe.q.6..XG.",
"*X.X2X+XD.3X$XOXl $ e e Y } fX( W.W.6Xg.lXo MXMX@ MXmXaXMXa mXaX4 4.% H H w r H 3 D C..X2Xp.7.k..XG.",
"&X=XOXa.*X$X$X&XN.= y e K W @.b L.1XW.>.5 . 0X}.* ].].#.0X0 `.T $ b.3 i G G i 7 z L.~.U.E.:X5X.X+XD.",
"$X.X#X4X#X.X$X.X.X3.: e e K ~ jXf 3Xv.D o.o.`.'.o ].].5 '.b ]...b , 4 u G w : V U.3X~.<.I.&X#X.X.XK.",
"D.-Xp.p.6.#X+X.X.X.XS 4 F F ! hXqXS !.1.).mXlXwXkXMXMXpXMXMXmX`.#.#.I 4   f N.m.&XU.1XV.E..XD.%X.XK.",
"F.G.y.%.w.x.#X.XV.%XN.6 e e K ! fX_ &X*XB [.}.}.kXsXnXkXkXsX].T ^ K O 1 o b 6 4.,.i.2X&X+X=X$XV.$XG.",
"K.A.x.y.,X@X+X.XV.J.&XV 7 u F Q 7X^ l.#XB.=.3.3.^.E 9X@.I #.O.O.O.7 J $ 8 cX`., 2.T..X.XT.B.i.E.+XK.",
"K.G.XX4XOX#X.X.X%XD..X$X= u e K } fXO #X%X5XXXXXs. .7 yXG W yX} yXX ! % o q aXwXq h B.#Xi.%.,.OX+XG.",
"G.D.*XT..XS.@XXX.X%X;X#Xk.- F e W +.4 ) S V.%X#X- z.@.yX@.9XyX| | $ ! 1 % $ o b dX] # ^.Y.i.@X@XoXoX",
"S.oXV.=X;X%XS.#X XY. X,X@XA 4 e $ 8 < c 8 T..X X+ yX8XrXrXrXyXrXY J ! H 3 1 w + ..uXo.l :X2X@Xx..XK.",
"oX%XS..XV.2Xu.8.&.E.@XoX#X3.+ * x x z . V F.#X X. u rXrXyX@.yX9X1 ~ Q K F F i X ' zXwXd ^.&X.X.X.XD.",
"G.G.#X.X&X+Xe.0.Y.T.@X@XOXj 9 > , .   2.f.=.N 4   r 3  .| | 1 3 J Q Q K F F i @ A # [.m ^.+X.XXX-X%X",
"F.F..XN.#XOXc.@X.X#Xc.c.9.h.1.2.V ' eXq E `.pX0X  Q W K G J W Q ! ! ! K G G i # S ` b E 2. X@X4Xu.S.",
"G.K.+XE.,X>X@X>XOX,Xw.%.5.@X*X.X2.[ & % % E '.  o $ J W Q W W Q W W W F u u 2 + S ) q R 2.x.p.w.*.V.",
"H.K..X+X&X+Xc.c.@X@XY.u.4X+XD.oXk._ )...y h v : { ] E > * > : * * * * @ * * 5 @ j # o.b ;.*Xr.,.i.$X",
"G.H..XB.#XE.5X,X>XOXY.<X+X&XOX5X@Xh.# R % 6 $X4.> @ # > p p n c x p p 9 5 @ @ $ iXpXwXb d.C.m.!.&X%X",
"F.F.oX#XQ.E.2Xl.w.q.w.*XT.6X,XOX:XE.#Xv z   OXN '.T n a 5 O @ & O o o % 4 a O 7 o.nXMXdX3 r.b./.&XD.",
"XXG.a. X0.U.1X!.7.7.&X3X!.Q.+X+X:X2X$Xe.B d :.l 5 q a a a @ !.+Xd o.U n a a $ & {.}.`.o.7 /.W.~.+XG.",
"K.%Xw.%.6./.P.M.+X:X(.(.(.>.N.#X+X+X5X.X+X X6.j b [ & q 5 h w.6.d {.a 0 I % S q.C 6 + f ;.!.<XT..XD.",
"H.H.k.y.R.(.P.v.W./.b.v.(.W.V.3X$XB.i.u.OX4X2.{.  zXT R.l.Y.9.9.S.d.o ] eXv c.XXY.*Xe.-.q.I.N.Y..XG.",
"K.K.@XOX#X!.W.P.v.M.W.r.N.I.~.W.Q.&.%.u.,X>X2.' ` g Z ,X#X#Xx.@XXXi.q ^ o.) h.u.0.~.N.r.:Xr.<.U..X$X",
"F.G. X2XR.Y.b.P.P.P.~.<.&.i.~.<.0.u.Y.+X>X+X2.).MX[ ;.,Xk.#X X#X#XR.Z 4 pX) ^.p.m.W.!.E.3X!.!.1X+X%X",
"XXoXV.&X,X,Xm.^.^.1X(.v.N.&XE.r.T.+X&X+X X XOXN vX[ =.q.7.+X+X X#Xk.d.pXxX{ =.5.&XE.&XQ.M.m./.!.+XJ.",
"-X;XQ.C.#Xc.R.<Xl.^.M.v.Q.E.+X,X2XE.I. XXXa.S.d.pX).A q.w.+X#X#X:XOXl.V ] wX` l d.R.+X&XV.v.U.&X.X%X",
"G.D.&XE.w.9.y.Y.>X>XE.U.OXc.+XR. X2X5X+XOXOX+XS lXgXg E.#X+XR.R.,Xk.OXp.q.z.xX`.Z >X XOX&X!.<XR. XD.",
"K.A.E.OX5.5.p.#Xc.4Xl.e.q.w.#X+X.X.X XS.#Xl.q.v sX/ b l..X+X#XR.:XOX5.$.q.] sXg k l.R.#X+Xi.w.-..XD.",
"K.D.T.OXOXOX X.XOX+XR.7.q.k.+X X+XOX*XS.3._.).dXdXnX{., p..X XOXOXR.2.g.).).[ MX{.S k.OX:Xe.,.u.OXoX",
"K.H.OX XOX X.XXX.XY.+Xl.:X>XOX XY.i..XD.V f q f q g f h B..X.X.X.X+X1.g v b g z g S  X.X,XR.l.,XOXG."
};
