/* XPM */
static char *result[] = {
/* columns rows colors chars-per-pixel */
"50 50 222 2 ",
"   c #020202",
".  c #050802",
"X  c #0B0B0B",
"o  c #121B08",
"O  c #141414",
"+  c #1B1B1B",
"@  c #220B0B",
"#  c #3C1717",
"$  c #1D2610",
"%  c #222B17",
"&  c #28331B",
"*  c #242424",
"=  c #292D24",
"-  c #2C2C2C",
";  c #333333",
":  c #373C32",
">  c #3C3C3C",
",  c #641819",
"<  c #52332E",
"1  c #70302E",
"2  c #374F1C",
"3  c #3E5525",
"4  c #635D1E",
"5  c #53721B",
"6  c #455A25",
"7  c #4B5838",
"8  c #644D33",
"9  c #537727",
"0  c #506A33",
"q  c #5C7D32",
"w  c #434242",
"e  c #474848",
"r  c #4D4D4D",
"t  c #554C4C",
"y  c #4E5741",
"u  c #545947",
"i  c #535353",
"p  c #575955",
"a  c #5C5C5C",
"s  c #6F594D",
"d  c #5B654D",
"f  c #5E6A50",
"g  c #676B4E",
"h  c #717C5B",
"j  c #686767",
"k  c #6F7763",
"l  c #767676",
"z  c #757870",
"x  c #89090A",
"c  c #940304",
"v  c #931B1C",
"b  c #A2090A",
"n  c #B40506",
"m  c #B80506",
"M  c #9D2B1C",
"N  c #A42D1F",
"B  c #942324",
"V  c #C9080A",
"C  c #C61718",
"Z  c #F2090C",
"A  c #907126",
"S  c #8A6B48",
"D  c #826C54",
"F  c #977754",
"G  c #C46948",
"H  c #5C8F17",
"J  c #5A9919",
"K  c #669917",
"L  c #639D1D",
"P  c #5DA11D",
"I  c #63A31E",
"U  c #5D872E",
"Y  c #5E9C24",
"T  c #669C26",
"R  c #7A9C23",
"E  c #688C38",
"W  c #5DA422",
"Q  c #64A324",
"!  c #6BA423",
"~  c #65A52A",
"^  c #6CA42B",
"/  c #67AC2A",
"(  c #6CAC2C",
")  c #79A72A",
"_  c #73AC2C",
"`  c #6AB22D",
"'  c #75B12E",
"]  c #6CAE31",
"[  c #74AD33",
"{  c #79A934",
"}  c #73B433",
"|  c #7BB234",
" . c #7BBB35",
".. c #7CB53B",
"X. c #75B938",
"o. c #7CBC3B",
"O. c #7FC33A",
"+. c #6F8848",
"@. c #749B43",
"#. c #738958",
"$. c #7B945B",
"%. c #7D9A5A",
"&. c #7DA947",
"*. c #7BBA42",
"=. c #7E9260",
"-. c #7EC544",
";. c #889A28",
":. c #949130",
">. c #86A52D",
",. c #95A22F",
"<. c #8EA634",
"1. c #84AC33",
"2. c #8AAC33",
"3. c #87A938",
"4. c #94A636",
"5. c #96AA38",
"6. c #84B434",
"7. c #8CB337",
"8. c #83BC36",
"9. c #8BBB35",
"0. c #84B43A",
"q. c #8BB43C",
"w. c #84BC3B",
"e. c #8BBD3C",
"r. c #94B33A",
"t. c #99B73B",
"y. c #93BC3D",
"u. c #A3AB3C",
"i. c #84C535",
"p. c #85C43D",
"a. c #8BC43D",
"s. c #85CA3C",
"d. c #8CC93E",
"f. c #92C43D",
"g. c #99C43F",
"h. c #93C93E",
"j. c #84BD43",
"k. c #8CBC43",
"l. c #87B848",
"z. c #94BD43",
"x. c #9CBC43",
"c. c #98B846",
"v. c #89AD52",
"b. c #8CA957",
"n. c #8BB255",
"m. c #89B558",
"M. c #96B959",
"N. c #A3B844",
"B. c #A4BE4B",
"V. c #BEB85C",
"C. c #9C8266",
"Z. c #8D906C",
"A. c #A78864",
"S. c #B4906A",
"D. c #98AF6F",
"F. c #ADB970",
"G. c #C3935D",
"H. c #CA9A64",
"J. c #D19F67",
"K. c #D19F68",
"L. c #C39E75",
"P. c #E6B077",
"I. c #85C442",
"U. c #8CC543",
"Y. c #85CA43",
"T. c #8CCA43",
"R. c #86C34A",
"E. c #8DC54A",
"W. c #86CA49",
"Q. c #8DCB4A",
"!. c #93C443",
"~. c #9AC344",
"^. c #92CA45",
"/. c #99CC47",
"(. c #93C54A",
"). c #9BC44A",
"_. c #93CC4B",
"`. c #9BCB4B",
"'. c #89D146",
"]. c #8DD14A",
"[. c #94D24B",
"{. c #9CD24D",
"}. c #8EC354",
"|. c #94CC51",
" X c #99C856",
".X c #95D354",
"XX c #9AD253",
"oX c #98D855",
"OX c #A1C448",
"+X c #A2C14C",
"@X c #A6C456",
"#X c #A3D353",
"$X c #9AC16A",
"%X c #A4CA68",
"&X c #A7C078",
"*X c #C9C569",
"=X c #9DB180",
"-X c #A8BB8B",
";X c #ADB79A",
":X c #AEB9A1",
">X c #B2B9A4",
",X c #B4BBAC",
"<X c #B7B7B7",
"1X c #B6B8B3",
"2X c #BBBBBB",
"3X c #F4BD81",
"4X c #A9C687",
"5X c #B0C894",
"6X c #BAC9A9",
"7X c #BFC4B8",
"8X c #C1CDAF",
"9X c #C1C9B7",
"0X c #C6CDBD",
"qX c #C8D0BF",
"wX c #C4C4C4",
"eX c #CCCCCC",
"rX c #CAD0C2",
"tX c #D3D3D3",
"yX c #DCDCDC",
"uX c #DDE3D3",
"iX c #E4E4E4",
"pX c #EAEAEA",
/* pixels */
"f.T.d.W.Y.]._.a.f.f.d.i.O.'.Y.Q._.a.U.^.a.U.^.a.U.T.p.s.T.U.U.^.Y.].-.W.Y.'.^.T.^.8.!.!.^.a.e.^.^.'.",
"/.e._.p.Q._ U.^.a.h.d.d.s.'.E.I.I.^.{.a.^.p.[./.T.T.p.O.T.^.^.a...w.I p.T.W.i.a.U.!.^.a.a._.^.^.^.h.",
"^.^.d._ ! ! w.^.T.^.^.I.$Xd.I.I. .'.T. .].T.^.^.d.p._.p.a.U.(./.| H | U.h.d.{.h.f.f.f.^.p.Y.X.o.W.d.",
"p.[.!.8.! U.p.T.d.(. X X5XM._ L ' W.Y.p.p.d.U.f.{.8.Q.d.`.^.f.~.k.(.z.(.T.9.^.f.h.f.d.T.[ W / Q.^.T.",
"T.p.^.^.U.T.Y.W.-.&X:X>X1X-X.._ a.^.T.^.U.^.(.6.6.! p.p.[.^.U.!.!.!._. .s.[.s.W.s.d.Q.p. ._ 0.T.U.f.",
"'.s.Q.^.^.Q.W.'.&X<X<X<X<X;XM.XX`.!.!.a.y.7./.1.K ! U.d.s.s.d.^./.f.!.U.].} X.P O.Y.Q.U._._._.k.^.h.",
"d.T.^.!.e.XXT.Y.-X2X2XeX<X;XM.x.!.z.(.(.7.R ~.e.9.d./.^.^.W.d.8.t.t.y.~.^. .J [ Y.Q.E.E.U.e._.#Xa.e.",
"^.p.8._ _ _.T.$X<XwXtX<X<X<X1XF.).U.6.~.x.r.`.U.U.^.!.f.T.s.U.(.f.R 2.(.!.e.U.U.E._.I.(.(._._.U.U.a.",
"Y.p.I J p.Q.p.$X2XeXtX<X<X<X<XM.Q J | !.~.e.E.Y.T.I.e.(.a._.d.T.W.p._.d.U./.!.d.f.!.!._.Q.*.X.Q p.d.",
"_.p. .Y.Q.p. X:XwXyXiX<X<X2X<XM.` } U.f.`.k.I.p.T.T.U.z.~.7.U.I..X` I.W.p.a.h.g.f.OX`.f.|.} W ] Q.d.",
"U._.T.T.a._.%X<XwXiXpX2XeXwX<X%X^._.r.>.z.).`.#X(.U.!.~.4.R `.' P / I.Y.U.!.!.y.~.t.7.) !.z.6._.I.Y.",
"(.(._.U.!.:X,X2XyXyXtX<XeX2X<X>X!.(.<.+.f d u w y y d ).t.r.~.0.!  .W.p.T.U.U.`.z.y.q.1.z.`._.!.E.o.",
"|.Q.R.U.$X1X<XwXyXtXwXwXwX<X2X>X^._.l.Z.i r e > > > e E ) z.|.U./.d./.^.U.Q.E.I.Q.E.Q.!.h.d.^._ ~ ~ ",
"*.} [ M.1X9XwXyXyXeXwXeX<X,X5X{.^.z.%.j i 7 > ; - - * ; _ U.k.+X~.(./.T.Y. .X.( Q.Q.p.U.T.a.d. .~ *.",
"X.Y ! -XwXiXiXiXyXyXtXtX2X6XXXa.!.k.=.a > ; = O O + O + 0 c.x.N.).!.e.U.a.I K  .d.T._./.^.e.a.!.}.Q.",
"*.j.%X;XtXpXpXiXiXtXtXwX7X4XE.8.g.!.D.C.S s s : O O O O % 0.;.<.(.E.Q.Q.U.8.d.U.T.p./.a.f.^.U.d.T.s.",
"Q.(.-X<XiXpXpXpXyXeXtX2X8X_.T.!.h.~.*X3XP.K.H.S O O O O % Y.k.c.R.W.o.T.U.(.!.!.T.p.^.i.f.^.d.^.^.^.",
"l.M.-X<XiXpXiXyXiXtXtXeX8Xj.w.Q.d.9.A G P.N M S O .     o T.(.w.` W [ (.~.~././.p.d.d./.^.8.U.T.T.T.",
"t.5.-X<XiXeXtXyXtXeXtXwX6X( } Q._.!.F.L.S.F F 8 X .     o p.U.Q./ ( k.).x.x.a.i.9.h.s.X.} .._.U.h.d.",
"x.>.-X<XiXtXtXiXwXeXtXiX6XX.*.R._ 1.#.a > - * O X       o /.s.T.p.E.XX2.>.OXg.h.f.d.Y.W W ..E.U.T.U.",
"`.z.=XwXpXtXtXiXeXeXtXtXrX5X XT R 3.Z.j e % + O O .     o _.T.s.f.!.~.7.1.~.4.x./.Y.I...e.E.Q._.d.U.",
"k.|.=XwXiXtXtXiXtXwX2XtXyXrX%X0.5.l.%.a > - * O O - w - - 0 | d.~.x.g.!.e.x.;.<.(.[.(.(..XQ.E.o.U.h.",
"E. X-XwXiXtXtXyXtX2X<XtXtXpXtX2X;.4.(.+.r + O O O * ; ; O & { ~.x.5.r.g.9.~.e.z.t.B.z.e.T.} ^ T U.d.",
"|.}.-XwXiXtXyXiXtXwX<XtXtXpXtXtXN.c. XZ.a : - * r > ; O O $ { x.c.;.7.~.~.^.!.~.;.,.y.!._...~ o.U.d.",
"(.}.4XwXpXtXtXiXtX2X<XtXiXiXtXtX-XF.F.D.a < > ; e ; * O O $ { U.B.<.l.(.|.| !.y.r.t.x.k.U.(..Xa.U.h.",
"U.M.-XwXiXiXyXtXyX9X<XtXyXyXiXtX<X<X<XD.#.r e w > O O * O $ T [ B.R k...^ ^ 1.1.~.+Xc.R 0.(.!.^.T.d.",
"Y..X5XtXyXtXtXyXpXtXeXtXtXtXpXpXeXeXeX7Xl r r e ; - > ; O . o U ).0.k.| ^ 0.3.1.~.q.).q.k.!.a.h.f.^.",
"p._.5XeXtXtXeXtXtXtXtXtXtXtXtXpXiXeXtXtX2Xp r r i i r ; O X   U _.|.(.k.(.(.l.) K { _.!.!.`.!.e.U.d.",
"d.T.5XrXrXrXrX0XqXqXqXqXwXrXrXuXuX7XrXrX2Xa t t a a r ; O O   E R.o.(._.!.!._.! | !.a.U.a.0...U.!.d.",
"d.m.m.m.v.m.n.n.m.n.n.n.v.m.&.&.&.@.m.m.g j D H.F a i w * X   9 ( ^ _.a.h.!.U.U._.U.w.^.| J T R.U.d.",
"$.l l l l l l l l l l l l l l l l l l z Z.H.K.K.A.a a a p - * 9  .i._.U._.^.Y..XR.Y.XX(.w...Y.Q.T.d.",
"#.a a a a a a a a a a a a a a a a a a a S.H.H.K.F w w w w ; : @.^.i.d._.U.E.Q.p.W.w.R.^ }.Q.Y.O.T.^.",
"l.r r r r i r r r i r r i r i r r i r j S.G.G.J.F ; ; ; ; O O q t.h.W.X.o...Q.U.Q.' J ~ }.(.d.d.d.a.",
"p.d.^.d._.U.| ! e.k.W.].Y.I.`.`.f.~.V.D : R.u.Z x < j r ; - X 5 t.d.p.P ! | U.Q.T. .o.R. X(.T.p.^.^.",
"s.s.T.0._.I.Y.Y.U.Q.-.-.` -._.f.i.p.Y.Q.e.k.5.C V m n t < # @ 4 ,.T.^.' 0.U.Q..X.XE.Q.Q.I.p.].]. .p.",
"s.T.!.!.E.Q.Y.].Y.Q.( J W T.^.T.s.s.` } J n.b.s V V m m n c c x x T.[.^.`.(.-.*.[ ..I.p.p.a.X./ ! 8.",
"d.h.f.!.!.U.I.I.W.W.a.| .X!.I.T.'.O.O.J k.#.h t B m n n n b c , # w.d.s.i.d.R.~ Y ..Q.T.^./.| T | T.",
"a.a.f.a.`.U..XQ.].I.k.`.f.!.U.oXW.Q.Y.Y.%.p i r s :.A :.< 1 b x + & U d.s.T.|.[ l.)._._.g.r.<.c.!./.",
"p.Y.'.h.!.g._.R.] W _ _.e.#XU.E.E.U.^.%.p r e ; 0 k.6.0.+ r t v c O 9 ~./.(.U.U.@X4.r.c.c.>.;.OX!.!.",
"T.T.O.i.) e.+Xz.^ / !.`.x.y.!.E.E.|.$.j i ; ; - 2 XXE._.f.v.h i x ; * 6 ~._.w.!.x.;.r.B.).B.x.).!.d.",
"h./._ J T ).u.,.z.(.N.N.N.R 1.(.!.U.=.j r - = = q U.U.d.T.j.+.d , > * 6 j.Y.W.s.^.e.j.(.{ c.).y.d.U.",
"f.a.i.} U.OX,.:.x.+X4.;.V.5.r./.^.6.#.a w + + q U.U.d.d.T.I./ @.f r ; & 5 Q.'.Y.p._.[ Y T k.6.e.f.d.",
"h.d.W.W.^.).N.N.:.u.c.) 6.7.N.t.f.L g p > O & XXQ.a.e._.I.Q.o.#.a r > + 9 j.U.8.>.x.0.| E.1.R !.f.T.",
"p.d.p.[.U.0.>.5.5.5.N.R K | OX) ) | $.a : O & T.d.T.U._.j.Q.Y.#.i r > * q `.[.6.>.x.).!.#X).x.~.!.^.",
"W.T.9.~.[.^.1.c.M.B.N.;.r.^.!.{ k.!.$.p > + & s.d.Q...[ ^ U.T.#.i r > * q ) | L (.z.!.y.<.>.OX).!.d.",
"].[.g.t.T.T.z. X-.).,.;.y.U.U.|.`.k.#.a > O & T._.Q.[ ^ _ U._.$.i r > : @.| L } Q.U.!.(.r.;.y.(.!.U.",
"U.d.).a.' / [ U.Q.Q.z.k.E.Y._.a.a._.$.p ; 3 0 T.e.!.w.U._.U.R.I.k r e 0 | T.U..XU.Q.T.d./.~.`.e.U.d.",
"d.e.!.U.P / o.T.Y.Q.j.[ ~ ` _.U.h.U.%.y * l...[ L a.^.d.d.T.E.j.$.- ; 3 ..`.U.U.U._.p._.U.| [ L d.d.",
"d.f.!.T.T.T.d.d.U.T.U.T ( j.T.U.^.a.^.6 . ....T ..w.T.U.a.d.U.U.l.X . 2 U.^.{.a.a.U.w.U.T.[ Q ..U.T.",
"f.d.U.U.d.U.f.d.d.U.E.j.E.Q.T.U.U.w.^.8.8.T.l.*.U.Q.Q.U.p.T.!.d.U.j.j.e.!.U.^.a.d.^.d.U.|.U.j.|.U.d."
};
