/* XPM */
static char *result[] = {
/* columns rows colors chars-per-pixel */
"50 50 233 2 ",
"   c #060706",
".  c #171F0C",
"X  c #141414",
"o  c #171915",
"O  c #1C1C1C",
"+  c #3D0E0E",
"@  c #261916",
"#  c #242C1C",
"$  c #2C3E15",
"%  c #242424",
"&  c #292A25",
"*  c #2B2B2B",
"=  c #333333",
"-  c #363A31",
";  c #3B3B3B",
":  c #5E1010",
">  c #413324",
",  c #772B2C",
"<  c #31441C",
"1  c #364721",
"2  c #3B4923",
"3  c #3C5123",
"4  c #3D4132",
"5  c #4C7718",
"6  c #425926",
"7  c #43493B",
"8  c #475132",
"9  c #6C5336",
"0  c #4C6A2A",
"q  c #557631",
"w  c #5B7533",
"e  c #434443",
"r  c #4D4D4D",
"t  c #54594C",
"y  c #535353",
"u  c #595D54",
"i  c #5B5C5B",
"p  c #714D4E",
"a  c #655E57",
"s  c #5D694E",
"d  c #73744A",
"f  c #676D5E",
"g  c #6D7A59",
"h  c #646464",
"j  c #6A6C65",
"k  c gray42",
"l  c #6D7562",
"z  c #757D6C",
"x  c #737373",
"c  c #7A7A7A",
"v  c #890809",
"b  c #910A06",
"n  c #950708",
"m  c #9C1213",
"M  c #B70506",
"N  c #A81011",
"B  c #9F2419",
"V  c #BA2D0F",
"C  c #9D2F30",
"Z  c #CB0D0F",
"A  c #DB080A",
"S  c #87601E",
"D  c #B05839",
"F  c #94722A",
"G  c #A5722C",
"H  c #866745",
"J  c #98744B",
"K  c #87725A",
"L  c #A67D4F",
"P  c #568A19",
"I  c #5B9B16",
"U  c #599619",
"Y  c #5B9B1A",
"T  c #63961E",
"R  c #639C1D",
"E  c #77991E",
"W  c #5DA11D",
"Q  c #63A31E",
"!  c #5E9C24",
"~  c #5C8331",
"^  c #639C26",
"/  c #6A9C23",
"(  c #63982F",
")  c #749D22",
"_  c #7D9C24",
"`  c #658A38",
"'  c #679739",
"]  c #5DA322",
"[  c #5EA826",
"{  c #64A323",
"}  c #6BA423",
"|  c #67AA26",
" . c #65A42B",
".. c #6CA42B",
"X. c #66AB2A",
"o. c #6CAC2C",
"O. c #79A427",
"+. c #75A42B",
"@. c #73AC2C",
"#. c #7CAC2D",
"$. c #6BB32D",
"%. c #75B12E",
"&. c #6BAF31",
"*. c #74AD33",
"=. c #7BAD32",
"-. c #79A837",
";. c #6DB231",
":. c #74B333",
">. c #7BB334",
",. c #75BA34",
"<. c #7BBA35",
"1. c #7CB53B",
"2. c #75B93B",
"3. c #7CBC3B",
"4. c #7FC439",
"5. c #6D8D43",
"6. c #6E8256",
"7. c #788C57",
"8. c #74875A",
"9. c #75895B",
"0. c #7C9658",
"q. c #7AA449",
"w. c #7BBA42",
"e. c #788864",
"r. c #7C9164",
"t. c #7EC544",
"y. c #849C25",
"u. c #8D902F",
"i. c #849D2A",
"p. c #899828",
"a. c #A79332",
"s. c #84A72A",
"d. c #85A42D",
"f. c #8AA22D",
"g. c #95A22F",
"h. c #8EA634",
"j. c #84AC33",
"k. c #89AB33",
"l. c #87A83B",
"z. c #93A535",
"x. c #91AB33",
"c. c #92AD3A",
"v. c #9AA93A",
"b. c #84B335",
"n. c #8BB235",
"m. c #82BC35",
"M. c #8BBC35",
"N. c #84B33B",
"B. c #8BB43B",
"V. c #84BC3C",
"C. c #8BBD3C",
"Z. c #93B33B",
"A. c #98B33A",
"S. c #93BC3D",
"D. c #9BBA3E",
"F. c #A3AB3C",
"G. c #86C336",
"H. c #85C43D",
"J. c #8BC43D",
"K. c #85CA3C",
"L. c #8CC93E",
"P. c #92C43D",
"I. c #99C73F",
"U. c #93C93E",
"Y. c #879B4B",
"T. c #AC8342",
"R. c #AA8359",
"E. c #B98B59",
"W. c #8AA648",
"Q. c #87B446",
"!. c #85BE42",
"~. c #8CBC43",
"^. c #84B54C",
"/. c #8CBD49",
"(. c #9EB441",
"). c #94BD43",
"_. c #9CBC43",
"`. c #97B948",
"'. c #81AA52",
"]. c #85A659",
"[. c #85B554",
"{. c #A4B844",
"}. c #A3BD4B",
"|. c #A8BD51",
" X c #BBBB5D",
".X c #8A837C",
"XX c #899970",
"oX c #B09271",
"OX c #99B96C",
"+X c #AAAC66",
"@X c #D4885C",
"#X c #C5945E",
"$X c #CB9C66",
"%X c #DF9C69",
"&X c #CBA968",
"*X c #DEAF76",
"=X c #E5AF76",
"-X c #85C442",
";X c #8CC543",
":X c #85CA43",
">X c #8CCA43",
",X c #86C34A",
"<X c #8CC54A",
"1X c #86CA49",
"2X c #8DCB4A",
"3X c #92C443",
"4X c #9BC344",
"5X c #92CA45",
"6X c #99CB46",
"7X c #93C54B",
"8X c #9BC44A",
"9X c #93CB4B",
"0X c #9BCB4B",
"qX c #8AD045",
"wX c #8DD14A",
"eX c #93D24B",
"rX c #9CD14B",
"tX c #95CC51",
"yX c #9BCC51",
"uX c #9FCD58",
"iX c #95D353",
"pX c #9BD253",
"aX c #98D855",
"sX c #A2C447",
"dX c #A1C24B",
"fX c #A3C84C",
"gX c #A3D24D",
"hX c #A5C953",
"jX c #A2D353",
"kX c #888888",
"lX c #8D9584",
"zX c #979797",
"xX c #9CAD80",
/* pixels */
"P.5XK.1X:XwX9X;XU.P.L.G.4.qX-X2X9XJ.;X5XJ.].].q.;X>XH.H.>X>XJ.>X:XwXH.:X:XwX>X>X5Xm.3X3X6XJ.G.5X5XL.",
"6XV.9XH.2X@.J.3XJ.U.L.L.K.qX1X>XH.5X0X;X5XlXk z /.>XK.H.>X9X5XJ.3.H.W :X:X>XG.J.;X5X6XJ.H.9X9X5X5X>X",
"6XU.;X#.} } H.5X5X5XU.J.L.-X;X-X,.>X>X<.1XlXkXc 7.H.9XH.J.;X3X0Xb.P =.;X>XJ.gXU.P.P.J.5XH.1X2.3.>X-X",
"H.eX>Xm.} J.-X;X>XL.U.P.5XJ.@.R $.>X:XK.H.z kXc 0.V.>X>X0X5X3X4XB.7X/.9X3XG.5XP.U.P.J.>X%.! X.2X>X5X",
":X:X5X>X>X2X:X:XK.H.L.3X3X3X*.@.;X9X>X5X;Xl kXkX7.} H.H.eX5X3X3X).;X9XV.:XeXK.qXK.L.>X-X<.@.V.;XU.U.",
"qXH.5X5X9X>X:XqX:XH.>XP.3X3X~.pX0X5X3X3XS.l zXzX7.} 3X-XK.K.J.5X0XP.3XJ.wX;.,.W K.:X2X>X9X7X7X;X6X5X",
">X>X5X3XC.pX>X:X>X;X3X0X_.j.n.`.).).5X3Xn.g zXzXlXOX6X3XwX>XH.M.D.A.S.6X3XV.Y *.1X2X2X<X;XC.7XgXM.H.",
"5XH.m.@.@.9X>X>XJ.;Xb.3X_.O.)._.8X;Xb.8X_.Z.xXXXk ].3XJ.>XK.>X9XP._ k.3X3XV.;X>X;X7X!.7X9X9X9X;X;XJ.",
"K.H.{ I 3.eXH.-X| I <.iX;X8X8XC.{ Y >.3X8XC.2X[.c 0.C.4XJ.9XJ.>X>X-X9X-X3X9X3XP.3XP.3X9X2Xw.2.{ H.L.",
"9XH.,.>XeXH.>X-X@.>.t.V.7X3Xj.4XX.,.C.).0XC.-X[.c g Q.3X).B.>X-XiX;.t.>XJ.H.P.U.S.0X0X3XtX;.] &.1X>X",
"3X9X>X>X-X9XjX;X7X;XtX9X9Xb.E 4X>X9XZ.d.7.u t j zXx u t x.y.0X%.W | :X-X;X5X3XS.4XD.n.O.).3Xb.9X>X>X",
"7X9X9X-X3X3X~.).7X<X2X3.<.3XD.D.3X9Xh.g c y r i kXx e = - c.4XV.| ,.>XH.>X;X3X8X).C.Z.j.).0X6X;X<X2.",
"tX2X;X<X9X3X9X0X/.,Xo.Y 1.9X6X3X5X5X`.XXh r - = y x = X 4 3XrX;X0XJ.eX5X-X2X9X-X9X>X<X3X>XJ.5X@. .( ",
"w.:...;X3X3X0X>.2X2Xo.;.>XH.G.5X5X3X/.r.i e = * e x e ; & ` ).fX4X3X6X>X-X3.>.o.wX2X-X-X9XJ.L.4. .w.",
"2.! ..3X).s.} R !.1X2X<X;X;X5XJ.3X3X<X+XoXR.K H K kXk k X 2 (.(.8X3XJ.-X-XQ I <.H.5X0X6X5XM.J.5X2X1X",
"w.V.0Xd._ b.) C.7X/.7XtX<X;XJ.m.4X3XB.F @X=XB C oXkXx h   $ i.h.7X<X9X5X5Xm.J.5XL.L.5XJ.P.5X;XJ.>X>X",
"2X;X8XD.D.sXS.6X_.i.).hX/.9X;X5XP.P.3XT.%X=XD L J x c c * $ Q.`.1X1X2.9X;X3X3X3X>XK.5XJ.5XU.J.5X5XU.",
"!.7XdXx.s._.sXZ._.h.c.).7X-XV.2XJ.H.eX&X*X$XE.R.9 a .X.Xa $ 9XQ.X.[ *.7X8X3XU.6XH.>XK.5X5Xm.>X>X5X5X",
"(.k.c.Z.f.A._.{._.C.9X-X4.X.;.2X9X>X2Xr.y ; % % > L L E.J < J.>XX.X./.8X{.4XJ.G.M.U.H.,.:.>.tX;X>XL.",
"D.y.Z.8XZ.c._ _.sX6X>XH.{ o.w./.@.=./.r.i ; % % X H @X#XJ # 0 0 1.>XhXk.f.sXI.U.U.U.K.{ ] 1./.;X3X>X",
"fXC.O.{ *./.Z.(.(.sXI.3XN.2X!.^ +.j.<X7.u ; * % X d R.L F X X X -.6X3Xn.j._.z._.0XK.>X1.V.2X2X9XL.>X",
"J.2X} @.>X7X0XN.) )._.S.jX7XtXN.l.).yX!.s r X o X * * @ O X X X l.(._.3XS._.y.h.7XtX7X3XpX,X>XV.-XU.",
"<XtXH.9X5XC.C.;X3.2X!.~.`.d.Z.dXp.z.7XH.XXt = * * r * X X X X X l.v.S.S.M.6XC.`.(.dX4X~.>X:...^ -XU.",
"7X7XeX-XP.gX3X5X,. .R 8X_.f.Z.4X{.(.8X7XP.f r r r r ; = O X X X l.y.c.4X3X5X5X3Xy.p.S.3X9X1. .w.;XJ.",
"/.7X>XH.6X3XP.6X<.} Q.`.(.dX7X-X8XsX{.A.8Xt r r r r r r e X X X W.h.B.7XtX1.P.D.n.(._.`./.7XpX-X5XL.",
"7X;X2XeX>XJ.3X3X;X3XfXk._ ).).C.5X8Xf.f.5.i r r y y r r > = O   W._ ~.1. .} j.j.4XfX_.) b.7X5X5X5XL.",
"J.wX<.<.{ >X>X-XJ.P.3XM.).sX(.(.).3XZ.w - O r y h h y r = e * X W.b.~.>...N.l.j.).B.8XN.;X3XJ.3XJ.J.",
"H.>X,.I o.-X5X>XJ.P.6XJ.).}.z._ 3X*X$X$X& P r r i i r r = e = = Q.tX7X-X7X7X/.+./ =.0X3X3X6X5XM.U.>X",
"L.L.G.%.wX:X;X3XJ.P.U.P.J.0X8XB.M.{.$X$Xu.:.w.5.y h y r = % = = q.3.9X7X3X3X7X} #.;XJ.;XJ.V.=./.3XL.",
"P.>XK.eX-X2XL.3X6XJ.P.J.m.J.V.@.o.+.$X$X|.rX,XW.p k y r = % % % ( o.9XJ.P.3X>X>X9X;XV.5X>.U ^ <X;X5X",
">XJ.6XP.J.K.qXK.-X6X9X>XH.eX>XQ @.!. X XsXJ.eXa.Z C p i r * O   ..m.9XJ.9X5X-XiX:X,XpX7X!.1.1X:X>XL.",
"H.>XM.I.gXU.G.wXH.C.-X2X:X:X-XJ.9X7X3X6XJ.P.>XT.A Z N C r ; %   =.K.J.9X9X<XwXH.1XV.,X..<X9X:XH.>X>X",
"-X>XJ.U.J.0X#.+.T ;X1X>X>X>X5X9X8X).3XU.4.K.wXc.V Z M M , , + + S F K.2.1.-.2X>X>X$.U &.<X7X;X>XJ.-X",
"L.>X5XJ.5X;X:.} ~.-X:XwX:X-X0X0XP.3XJ.5XqXL.,X<XG A M M M M n v n b H.W ..=.>X2X>XV.3.,X7X7X>XJ.5X5X",
"K.K.3Xm.7X>X:X:X;X9Xt.t.$.t.0XP.K.K.>X1XJ.~.3XY.i , m n m n n n u.L.>X%.M.;X2XiXiX<X2X2XJ.H.1XwX,.J.",
"K.L.3X3X2X2X:XqX-XwXo.U [ 1X5X3XK.K.$.:.U /.].Y.i r ; ; e = + : n F rX5XeX9X,Xw.*.1.-XH.H.-X2.o.} m.",
"L.U.P.3X5X;X-X:X:X2X-X>.9X3X-X>XqX4.4.U !.Q.h i r 7 e r = = % O v b L.K.K.L.,X .^ 1.wX>X5X6Xj./ <.;X",
"J.J.P.H.5X3XiX2X1X>X-X0XP.3X;XaX:X>X:X:X9Xe.y r r d 8 = e = & o @ n G.K.K.L.wX-./.7X9X5XP.S.k.`.3X6X",
"-X:X>X5X3X3X7X,X&. .o.5XC.jX7X>X<X/.2X5X7.y r r = ` 1 o r r ; = X B.J.3X6X3X;X/.|.z.Z.`.).k.i.}.3XU.",
">X>X4.G.O.S.fX`... .4X0X_.S.3X<X7XtX<X9.h r * * % ` <X9X~.f y r - o 0X).4X7XC.>X_.i.(.`.}.8X(.dX3XL.",
"P.5X@.U R 4XF.g.3X7X}.{.{.E k.3X3X;XtX7.y r X X 6 ;X>XL.>XH.` t r o ;X9X!.:XqXK.5XC.~./.-.`.8X3XJ.>X",
"U.J.H.,.;XsXF.u.D.}.z.p. Xz.M.fX3Xm.1.g y e 0 0 ` ;XJ.J.>XH.' u y o :.:.U 2XqX:XH.9X*.! / ~.b.M.3XL.",
"6XK.>X:X9X7X(.(.p.v.(.-.N.n.}.D.S.Q U 6.y = 3 w 5XJ.-X9X>X^.g k y % 6 5 Q.C.>Xb.s._.N.>.7Xb.) ).3XL.",
"H.J.J.9X-XC.i.v.F.v.{.) R b.4X_ #.>.Q.e.y ; X 1 L.5X;X9X-X'.h y r * o ` <X9X9Xb.f._.8X3XyX8X_.8X3XU.",
":X>XM.sXeX9Xj.`.`.}.{.p.n.9X3X=.~.3X7X8.y = X 1 :X2X1.*./ '.i r r = O ~ 0X#.:.Q 7X/.6XS.x.f.fX4X3X>X",
"wXeX_.S.>X>X).uX,X7Xg.p.D.;X;X9X0XJ.N.8.y = X 1 eX>X*...@.'.h y r = # ~ 9X>.R :.>X>X3X4XA.y.).7X5XJ.",
">X;X6XC.$.o.>.-X1X2X).~.<X-X2X-X;X0XtX9.u = . 1 C.;XC.;X9X^.g u r = q ' >.3X;XpX;X9X>X-X4X6X0XC.;XL.",
"5XM.3X;XW o.<.2X,XwX!.*.X.$.9X3X>X3X!.9.y = 0 q ^ J.6XJ.>X>X'.l y e Y U <.tX;X-X3X2XH.2X3X>.*.Y J.L.",
"L.J.3X;X>X>XL.>XL.2X!.{ ..-X>X>X5XJ.;Xq.7 o 1.^ 3.V.5X;XL.J.Q.0.- & <.<.5X>XrXJ.J.J.H.-X9X*. .>.>X-X",
"L.P.L.3X;XL.U.J.L.;X7X!.<X<X;X>XJ.V.5XL.$   /.^.-X-X5X-XH.>X3X;X.   5X>X5XJ.5XJ.3X5XJ.>X9X;X!.tX;X5X"
};
