/* XPM */
static char *result[] = {
/* columns rows colors chars-per-pixel */
"50 50 230 2 ",
"   c #010101",
".  c #060903",
"X  c #0B0B0B",
"o  c #121A09",
"O  c #131313",
"+  c #181A15",
"@  c #1B1B1B",
"#  c #1D2315",
"$  c #2F261A",
"%  c #232323",
"&  c #282B24",
"*  c #2C2C2C",
"=  c #313C23",
"-  c #343434",
";  c #383A33",
":  c #3C3C3C",
">  c #662121",
",  c #2C4B0E",
"<  c #3D5A1C",
"1  c #364821",
"2  c #3E5D20",
"3  c #445B1F",
"4  c #4C443A",
"5  c #475436",
"6  c #5A583B",
"7  c #4A632C",
"8  c #576E28",
"9  c #54782B",
"0  c #626C3C",
"q  c #633F40",
"w  c #444444",
"e  c #4C4C4C",
"r  c #584B4B",
"t  c #4D5045",
"y  c #525252",
"u  c #585A55",
"i  c #5A5A5A",
"p  c #6B5151",
"a  c #596846",
"s  c #5C6057",
"d  c #6B6C4D",
"f  c #6A7657",
"g  c #727F5C",
"h  c #646464",
"j  c #6A6C67",
"k  c #6C6C6C",
"l  c #717865",
"z  c #757575",
"x  c #797979",
"c  c #870607",
"v  c #B00708",
"b  c #B00C0D",
"n  c #A40F10",
"m  c #A1261B",
"M  c #9D362E",
"N  c #C60608",
"B  c #D90709",
"V  c #D8080A",
"C  c #EF090B",
"Z  c #924D21",
"A  c #B34831",
"S  c #8E504E",
"D  c #B54040",
"F  c #876D50",
"G  c #A87D4E",
"H  c #8E7062",
"J  c #C0744C",
"K  c #5C8F17",
"L  c #5B9B16",
"P  c #5D961A",
"I  c #559818",
"U  c #5B9B1A",
"Y  c #65981A",
"T  c #639C1D",
"R  c #77991E",
"E  c #5DA11D",
"W  c #63A31E",
"Q  c #5E9C24",
"!  c #6C8929",
"~  c #639C26",
"^  c #6A9C23",
"/  c #749D22",
"(  c #7C9C22",
")  c #7E9B25",
"_  c #698736",
"`  c #699A32",
"'  c #74973F",
"]  c #5DA322",
"[  c #5EA826",
"{  c #64A323",
"}  c #6BA423",
"|  c #67AA26",
" . c #65A42B",
".. c #6CA42B",
"X. c #66AB2A",
"o. c #6CAC2C",
"O. c #77A428",
"+. c #73AC2C",
"@. c #7CAC2D",
"#. c #6BB32D",
"$. c #75B12E",
"%. c #6BAF31",
"&. c #74AD33",
"*. c #77A936",
"=. c #6DB231",
"-. c #73B333",
";. c #7BB334",
":. c #75BA34",
">. c #7BBA35",
",. c #7DB63C",
"<. c #75B93B",
"1. c #7CBC3B",
"2. c #7FC439",
"3. c #6C9143",
"4. c #779946",
"5. c #768854",
"6. c #7B925B",
"7. c #7AA249",
"8. c #79BA42",
"9. c #768265",
"0. c #7EC544",
"q. c #849C25",
"w. c #839C29",
"e. c #899828",
"r. c #919222",
"t. c #859339",
"y. c #83A62A",
"u. c #84A42D",
"i. c #8BA32E",
"p. c #95A22F",
"a. c #84AB33",
"s. c #89AB33",
"d. c #8EA836",
"f. c #93A535",
"g. c #96AA37",
"h. c #92AD3A",
"j. c #84B334",
"k. c #8BB235",
"l. c #82BB35",
"z. c #8BBC35",
"x. c #84B43B",
"c. c #8BB43B",
"v. c #84BD3C",
"b. c #8BBD3C",
"n. c #93B43B",
"m. c #99B33B",
"M. c #93BC3D",
"N. c #9BBA3E",
"B. c #A3AB3C",
"V. c #86C336",
"C. c #85C43D",
"Z. c #8BC43D",
"A. c #85CA3C",
"S. c #8CC93E",
"D. c #91C43D",
"F. c #99C73F",
"G. c #93C93E",
"H. c #BA8D5A",
"J. c #AB9955",
"K. c #85A746",
"L. c #84B544",
"P. c #84BD43",
"I. c #8CBC42",
"U. c #89B849",
"Y. c #8EBB4C",
"T. c #95B443",
"R. c #9EB441",
"E. c #94BD43",
"W. c #9CBC43",
"Q. c #93BE4B",
"!. c #9DBC4A",
"~. c #83AA51",
"^. c #8BB356",
"/. c #90B35E",
"(. c #A4B844",
"). c #A3BD4B",
"_. c #BDAC5C",
"`. c #8B957E",
"'. c #A0886E",
"]. c #B49165",
"[. c #8EB064",
"{. c #A0BF6E",
"}. c #C4945E",
"|. c #C99861",
" X c #D59A66",
".X c #CFA467",
"XX c #C6B664",
"oX c #E3AE75",
"OX c #EAB379",
"+X c #F4BB7F",
"@X c #85C442",
"#X c #8CC543",
"$X c #85C943",
"%X c #8CCA43",
"&X c #86C34A",
"*X c #8CC549",
"=X c #86CA49",
"-X c #8DCB4A",
";X c #92C443",
":X c #9BC345",
">X c #93CA45",
",X c #99CB46",
"<X c #94C54B",
"1X c #9BC44A",
"2X c #93CB4B",
"3X c #9BCB4B",
"4X c #8AD045",
"5X c #8DD14A",
"6X c #93D24B",
"7X c #9CD14C",
"8X c #94CD51",
"9X c #9BCB51",
"0X c #98C854",
"qX c #95D353",
"wX c #9BD253",
"eX c #98D855",
"rX c #A2C447",
"tX c #A1C24B",
"yX c #A3C84C",
"uX c #A3D24D",
"iX c #A5C953",
"pX c #A2D353",
"aX c #848582",
"sX c #8C8D8C",
"dX c #8F9085",
"fX c #969796",
"gX c #A3A3A3",
"hX c #ACAFA5",
"jX c #ACACAC",
"kX c #F3BC80",
/* pixels */
"D.>XC.-X$X-X2XS.F.S.S.V.A.4X@X-X*XS.;X>XZ.;X,XZ.Z.$XC.$X%X$XS.#X$X5X2.$X$X4X%X%X>Xl.;X;X,XZ.C.>X>XS.",
",Xv.2XC.-X#.#X;XV.G.G.A.$X$X$X-X#X%X7XZ.>XC.6X2X>X%X@XV.%X,X>XZ.,.v.{ A.$X-XV.S.#X;X>XZ.Z.2X>X-X>X>X",
">X>XS.@.} } v.,X>X,XG.Z.S.#X#X@X>.$X$X1.4X$X>X;XS.C.2XC.C.;X:X3X;.K *.;X%XD.7XF.D.D.D.>XC.@X<.,.$X%X",
"Z.6X#Xl.} C.Z.$X$XS.G.D.>XC.O.T $.%X$XA.$XS.#X;X7Xl.>X$X3X>X#X:XL.1X;X2X;XV.>XZ.G.Z.S.>X$.W X.=X>X%X",
"$XA.>X%X%X-X$X$XA.V.%X;X>X;X&.+.#X2X%X>X*X;X>Xj.j.} C.C.6X>X>X;X;X;X2X>.$X6XA.$XA.S.%X@X,.$.v.*X#XS.",
"5XA.>X>X2X-X$X4X4XC.#XD.;XE.#XwX3X>X;X#XM.j.3Xy.Y } #XZ.A.A.Z.;X1XD.;X#X4X:.>.] $X$X%X%X2X>X2X#X>XF.",
"$X>X>X;XZ.wX-XC.$X;XD.1XE.a.k.E.E.E.>X:Xk.( :Xb.V.D.3X;X5X$XA.z.N.n.M.:X;X1.U o.@X*X2X*X#Xb.2XuXZ.z.",
"%XZ.l.+.O.2X%X$X@X;X;.:XE.y.T.W.;X;Xj.<XW.M.3X#X%X>XD.;X%XA.#X2XF.R j.:X;Xv.#X*X=X2XP.<X<X<X2X#X%XZ.",
"C.@XW L 2.-X@X@X| L >.7X#X<XyXb.{ E -.<X;Xb.2X;X-XZ.b.;XZ.7XC.%X-XC.*XC.%X,XS.D.;XD.;X3X-X8.<.{ V.S.",
"2XA.>.$X5XC.%X#Xo.;.@X8.<X;Xa.:XX.-.K.5.f d 5 a a a L.E.E.k.%X@XqX#.@X-XZ.C.;XF.M.3X3X;X<X-.] %.-X-X",
"#X2X%X%X#X2XwXE.<XI.qX2X2Xj.R :X>X<Xl z u e w : - - 5 c.f.( yX$.E | $X$X#X>XD.M.:XN.s.O.:X#Xj.2X#X-X",
"<X<X2X#X;X;XI.;X<X*X-Xv.>.;XN.N.#XY.z x u e 4 * * - - 7.N.n.:Xx.} :.-XC.-X#X;X1XE.M.b.a.E.3X,X#X&X<.",
"8X-X#X*X2X;X2X3X&X=Xo.U <.2X,X;X<XQ.k e e - O O @ @ % 9 ! E.8X#X3XS.2X>X$X-X<X@X*X-X*X>XG.S.>X+. .Q ",
"8.-...#X;X;X3X;.-X*Xo.o.*XC.V.G.>XQ.'.H F d 4 O O O O O # @XI.yX:X;X,X#X#X,.:.o.5X-XC.Z.%XZ.S.1.%.8.",
"<.Q ..;XM.@...Y P.&X-X*X*X>X>XZ.:X!. X+XoXJ G O O O X X + <XR.R.1X;XZ.$XZ.W L >.C.>X2X,X>Xb.Z.;X*X-X",
"8.v.3Xu.( k.R b.2XI.0X8X#X#XZ.l.F.g.A oXoXm G O O .     o x.w.f.1X=X2X*X#Xl.S.;X%XZ.>XS.D.>X#XS.#XS.",
"-X*X1XN.N.rXM.1XW.u.T.iXY.2X%X>XD.:X+XkXOX XG O O X     o %XE.E.=X=X1.2X#X;X;X#X$XA.,XZ.G.>XS.>X>X%X",
"P.<XrXd.q.rXrXn.R.i.n.E.2X@Xv.*XS.L.h e : * O O X       o $X<Xv.X.] %.2X1XE.F.,XZ.$XA.>X>Xl.#X%X>X%X",
"N.i.h.m.y.m.R.W.:Xb.>X$X1.X.-.-X2XY.k e e @ O O O X     o 1.#X%XX.X.Y.1X(.:XD.V.V.G.A.:.-.,.2X#X>XS.",
"N.y.n.1Xn.h.w.T.1X1X>XC.{ X.8.&X&.*.h e : * O O O X     . 8 C.4XC.-XiXa.u.rXF.G.F.D.$X{ ] ,.#X#X%XS.",
"yXM.+.T &.E.I.W.N.rXF.D.,.-XP.^ / a.5.e w % O O O X X @ % & 1 9 b.:X:Xk.y.W.f.W.>X#X*X,.v.*X*X2X#XS.",
"C.>X} +.#X2X1Xj./ E.E.E.pX0X<Xx.d.Q./.z u - O w w - @ & - : % 3 n.:XF.;XM.W.q.d.<X2X;X<XwX-X-X,.%XD.",
"*X8XP.2X>Xz.b.*X1.-XI.E.W.) n.tXe.d.Q.L.g y e e e : - @ O @ w % O n.N.M.b.,Xb.E.m.).:XZ.#X%...{ #XS.",
"<X*X2X%XD.uX;X>X:.{ ~ 1X).i.c.:XR.(.9XU.f y e e e w - @ X O ; * @ w.d.:X;X>X>XE.w.i.n.;X7X<. .L.#XS.",
"<X<X-XV.2XD.D.,X;.} I.!.T.1X<X#X1XyX!.d.d e e i y e : @ O   = a ; 8 T.<X8X,.;X4.t.N.!.T.*X<XqX#X#X>X",
"<X#X5X>X>XS.;X;X#X;X1Xd.w.T.E.v.;XyX! 6 t e h h h y - @ O X 2 9 ; & L.,.~ 3.d _ K.yXE./ j.;X;X>XS.S.",
"C.%X1.1.{ -X#X#XS.;X;Xc.M.).m.R.E.XXJ.F $ w y k h y - @ O O , *.4.* 0 J.5.i : a.Q.c.1Xc.I.;XZ.>XD.S.",
"C.%X:.L #.@X%X#XV.F.,XZ.;XrXf.q.;XoX XH.$ w y h i e - @ O X 2 &X2X* 4 H.H y - O.R *.2X;X;X3X;Xb.;X%X",
"S.S.V.#.-X$X*X;XV.D.F.D.D.3X1Xc.b.c.|..XT.;.r k h u : @ O X 7 8X8.w r }.}.6 I.} +.D.C.;XZ.l.;.I.%X;X",
"G.S.S.6XC.%X%XD.,XZ.D.S.l.C.v.+.o.O.XXXXtX7XB S S p y ; * @ < 7.4.]. X|.}.!.%X#X2X=XC.>X;.P ~ *X#XS.",
"$XS.F.D.Z.A.4XA.#X>X2X#XC.6X%XW =.v.%X>XM.V.C B V M y : - % < 4.9.y ]._._.!.@XqX%X=XwX<XL.<.-X$X%XS.",
"C.*XD.F.7X>XV.>Xv.C.C.-X-X$X$XZ.<X2X>X,XZ.;XB B N v q e w % 3 {.hXe 6 8X1X*X-XC.-X8.P...*X8X$X2.%X>X",
"#X%XZ.G.D.,X$.} Y <X-X$X%X>X#X2X1XE.;XG.l.A.g.B B N n n n c S hXgXx 5 <.,.;.*X$X>X$.I ..0X<XZ.$XZ.Z.",
"Z.S.>XS.>X#X@...P.I.=X5X$X@X3X3XZ.F.S.%X>X4Xk e > b b b v D jXfXaXZ.2.U ..;.%X*X=X2.1.&X0X*X%XS.>X>X",
"A.A.;Xl.2X=X@X-X#X-X@X0.X.0.3XD.V.A.=X-XC.I.h e r : e : r jXaX5.T.$X2X$.l.*X-XqX8X*X-X-XC.C.-X5X:.Z.",
"A.%X;X#X*X-XA.5X$X5Xo.I [ -X>XG.A.A.o.<.P 6.u e w : : z aXgXH M Z %X,X>X7X<X0.8.&.,.@XC.C.C.1.X.} l.",
"D.G.D.;X;X*X@X$X$X-X@X;.7X;XC.%X4X2.2.U P.l e e e : k fXjXx > > c #XA.A.A.S.&X .~ 8.6X$X>X,Xa.^ j.#X",
"Z.Z.S.Z.,X#XqX-X=X@X#X3X#X;X#XeX-X$X$X8.6.u e : - z gXsXaXe % 1 t.#XV.A.A.%X8X&.U.1X2X>XF.n.s.Q.;X2X",
"C.$X>XF.D.;X2XP.%. .+.,Xb.pX*X#X<X#X~.j j y - * h gXsXz h e : & @ S.Z.;X,X;X#XI.).f.n.!.E.i.w.).;XS.",
"$X$X2.A.O.M.tXQ. .X.;X3XW.E.;X*X*X8X~.j h e * y x gXdXl f s w & O >X3XM.:X3Xv.;XW.w.h.!.tX1XR.tX;XS.",
"D.,X+.U ^ 1XB.p.E.1X).(.(.) a.;X;X;X^.h y w w jXgXdX*XZ.%X7.y - + 3X=X8XP.@X4XA.>XI.I.*X*.E.1X;XZ.;X",
"D.Z.V.:.@X!.B.r.N.tXf.e._.h.n.3X>Xl.4.h y k jXfX`.Y.%XS.=X5.i : % 9 +.-.P =X4XA.Z.2X%.Q ` c.k.b.S.G.",
",XS.$X$X*X1XR.(.r.f.(.*.x.c.rXN.S.T _ k aXgXsX[.Y.#XI.*XU.h y w - + v.P v.P.-X;.O.(.x.;.<Xj.R ;XD.%X",
"@XA.C.6X#Xb.w.R.g.R.(./ Y @.rX( y.$.7.z gXgXaX%X*X%X#X<X8.h e w - + v.2X<X3X7Xj.s.W.:X:X9X1XW.:X;X>X",
"$X-Xk.:X6X2Xa.T.<XtX(.e.z.,X;X*.I.;X~.z fXaX+ Z.S.-X,.&.` h e w - O @X@X3X@.-.T <X;X:XM.d.i.rX:X;XS.",
"5X6XF.M.>X%XE.9XP.<Xp.e.E.#X#X3X3XZ.4.h y ; + %X2X-X&. .` f y : - 5 qX#X2X;.T -.*X@X>X:Xm.q.E.<X;X#X",
"%X#X:XZ.=.X.-.#X-X-XI.T.-X@X*X#X#X7X^.h y - 1 *Xv.;Xb.%X2X~.i w : C.0.:.;.2X#XwX=X2X$X#X:X:X3Xv.#XS.",
"G.z.;X*XE X.,.-X@X-X@X&. .o.2X%X#X2X7.h y - ` ;.T Z.>XZ.%X~.i y w *XE L ;.2X#XZ.*X>X@X2X%X;.$.T S.S.",
"Z.S.;X#X$X%XS.%XS.2XP.} ..@X>X#X>XZ.;X' = X ,.~ ,.v.%X#XC.I.7 O O #X;.>.;X;X7XC.S.S.v.Z.2X-.{ ,.#X%X",
"G.D.#XS.;XS.D.S.S.#X*XP.*X*X#X$XZ.v.>XA.v.v.&XL.#X=X2X#XC.S.b.x.v.,X>X=X>XS.>XZ.;X>XZ.*X2X&XP.2X#XS."
};
