/* XPM */
static char *result[] = {
/* columns rows colors chars-per-pixel */
"50 50 226 2 ",
"   c #020202",
".  c #0B0B0B",
"X  c #171E0F",
"o  c #131313",
"O  c #1C1C1C",
"+  c #251D17",
"@  c #301411",
"#  c #1E2D0D",
"$  c #2E271E",
"%  c #232323",
"&  c #2A2A2A",
"*  c #353C2B",
"=  c #333333",
"-  c #383A34",
";  c #3C3B3B",
":  c #58201A",
">  c #552929",
",  c #453626",
"<  c #33481A",
"1  c #384924",
"2  c #3D4334",
"3  c #706615",
"4  c #455D26",
"5  c #41453C",
"6  c #5A7B2A",
"7  c #57683B",
"8  c #637539",
"9  c #434343",
"0  c #4F4646",
"q  c #4D4D4D",
"w  c #51564C",
"e  c #535353",
"r  c #5B5B5B",
"t  c #774C4D",
"y  c #5C7043",
"u  c #6C6F58",
"i  c #656565",
"p  c #696969",
"a  c #6B7462",
"s  c #950607",
"d  c #8F100A",
"f  c #981112",
"g  c #A6090B",
"h  c #B50506",
"j  c #AB2713",
"k  c #953132",
"l  c #B22B2C",
"z  c #C90607",
"x  c #D70709",
"c  c #E1080A",
"v  c #9B5825",
"b  c #B3782C",
"n  c #876A49",
"m  c #957858",
"M  c #AD7A4E",
"N  c #C26947",
"B  c #5C8F17",
"V  c #5A9919",
"C  c #62981A",
"Z  c #639C1C",
"A  c #5DA11D",
"S  c #65A41E",
"D  c #5C9826",
"F  c #679B26",
"G  c #749D22",
"H  c #7E9C26",
"J  c #698A3A",
"K  c #6C9637",
"L  c #769C3B",
"P  c #5EA523",
"I  c #64A323",
"U  c #6BA424",
"Y  c #65A52A",
"T  c #6BA42B",
"R  c #66AA29",
"E  c #6CAC2C",
"W  c #79A62A",
"Q  c #73AD2C",
"!  c #6BB32D",
"~  c #75B12F",
"^  c #6BAF31",
"/  c #76A736",
"(  c #73AC33",
")  c #7BAB33",
"_  c #73B333",
"`  c #7BB334",
"'  c #75BA34",
"]  c #7CBA35",
"[  c #7CB63B",
"{  c #75B93B",
"}  c #7CBC3B",
"|  c #7EC33A",
" . c #749246",
".. c #73855D",
"X. c #77895B",
"o. c #7C9C53",
"O. c #78A943",
"+. c #7BBA42",
"@. c #7BAC50",
"#. c #7E9366",
"$. c #7EC544",
"%. c #879926",
"&. c #8B972F",
"*. c #849D2A",
"=. c #84A72A",
"-. c #84A42D",
";. c #8AA22D",
":. c #95A22F",
">. c #83AC34",
",. c #89AB33",
"<. c #8AAA37",
"1. c #93A535",
"2. c #95AB38",
"3. c #84B335",
"4. c #82BC35",
"5. c #8BBA34",
"6. c #84B43B",
"7. c #8BB43C",
"8. c #84BC3C",
"9. c #8BBD3C",
"0. c #93B33B",
"q. c #9AB63C",
"w. c #93BC3C",
"e. c #A3AB3C",
"r. c #87C335",
"t. c #85C43D",
"y. c #8BC43D",
"u. c #84CA3D",
"i. c #8CC93E",
"p. c #91C43D",
"a. c #99C73F",
"s. c #92C93E",
"d. c #B98F5B",
"f. c #AD9B51",
"g. c #84AC42",
"h. c #84BE42",
"j. c #8CBC43",
"k. c #8ABA4B",
"l. c #97B746",
"z. c #9EB441",
"x. c #94BD42",
"c. c #9CBC43",
"v. c #93BD4D",
"b. c #87A752",
"n. c #8AB859",
"m. c #94BB5B",
"M. c #A3BA46",
"N. c #B2B157",
"B. c #869376",
"V. c #889676",
"C. c #8AAC65",
"Z. c #94B669",
"A. c #96B476",
"S. c #CA915E",
"D. c #C99964",
"F. c #D19F67",
"G. c #CCAB66",
"H. c #E9B47A",
"J. c #85C443",
"K. c #8CC543",
"L. c #85CA43",
"P. c #8CCA43",
"I. c #86C449",
"U. c #8DC549",
"Y. c #86CA49",
"T. c #8DCB4A",
"R. c #92C443",
"E. c #9BC344",
"W. c #92CB45",
"Q. c #99CA45",
"!. c #93C54B",
"~. c #9BC44A",
"^. c #93CB4B",
"/. c #9BCB4B",
"(. c #8AD045",
"). c #8DD14A",
"_. c #92D24C",
"`. c #9CD24C",
"'. c #8EC751",
"]. c #9AC757",
"[. c #94CC51",
"{. c #9BCC52",
"}. c #95D354",
"|. c #9AD355",
" X c #A2C447",
".X c #A2C24B",
"XX c #A3C84C",
"oX c #A7C757",
"OX c #A2CD53",
"+X c #A4D350",
"@X c #9AC666",
"#X c #9CC76D",
"$X c #A6CC75",
"%X c #848484",
"&X c #8B8B8A",
"*X c #8F9687",
"=X c #969794",
"-X c #9D9D9C",
";X c #9CAF85",
":X c #9CA393",
">X c #A7B590",
",X c #A9B69A",
"<X c #A3A3A3",
"1X c #A8AEA0",
"2X c #ABABAB",
"3X c #AFB6A6",
"4X c #B7B7B7",
"5X c #BCBCBC",
"6X c #C19B8B",
"7X c #C7BEB4",
"8X c #B2CE8D",
"9X c #B8D995",
"0X c #C1D89B",
"qX c #C5D7AD",
"wX c #E8CEB2",
"eX c #CCE0B5",
"rX c #C2C2C2",
"tX c #CCCCCC",
"yX c #CFD7C7",
"uX c #D2D2D2",
"iX c #DBDBDB",
"pX c #D6E2C3",
"aX c #DFE6D4",
"sX c #E3E7DD",
"dX c #E3E3E3",
"fX c #EBEBEB",
/* pixels */
"p.W.y.T.L.).^.p.R.p.i.r.| (.L.T.W.K.K.W.r.P.Q.r.P.P.t.t.P.P.i.P.L.).L.L.L.).T.P.W.4.R.R.Q.y.t.W.W.i.",
"Q.8.^.t.T.E t.W.r.s.i.i.(.(.T.T.t.W._.v.Z.m.#X@X@X@XK.| P.W.R.t.[ 8.A u.L.T.r.i.K.W.Q.y.y.^.W.T.W.P.",
"Q.s.P.~ U U 9.^.W.Q.s.i.i.P.'.A.A.$X9X,X2X2X2X2X2X2X;XZ.Z.Z.Q./.) B ) U.i.p.`.a.p.p.y.W.t.J.{ } P.P.",
"t._.K.4.U t.t.P.i.P.{.].].].A.3X5XrXdXrX5X<X2X2X<X-X<X<X-X;Xv.v.j.!.R.!.R.4.Q.r.s.y.p.P.~ I Y Y.P.W.",
"T.u.W.P.P.T.L.L.i.t.qXaXaXaXyX5XdXdX5X5XuX5XdXdXrX-X2X4X-X-X:X:Xv.R.^.4.L._.u.T.i.u.T.u.] Q 8.U.s.y.",
"(.u.W.W.^.P.L.(.9XfXiXyXiXfXfXfXfXfXfXfXfXfXfXfXfXfXrX4X-X4X2X<X].w.R.K.).! ' P u.L.U.K.^.U./.K.Q.W.",
"i.P.Q.R.r.|.@X8XiXiXuXuXuXuXuXuXdXfXuXuXuX5X5XrXrXrXrXrX7X<X-X-X-X-Xl.~.W.4.V E J.U.T.^.U.9.Q.`.y.4.",
"P.t.4.Q Q W.fXfXfXdXiXtXuXuXiXfXuXfXfXiX5X4XfXfXfXfXfXfXdX2X-X-X-X-X-XZ.R.8.K.P.U.^.K.U.R.^.^.U.P.y.",
"J.t.I V } _.9XeXfXfXdXaXiXuXiXfXrXfXdXuXtXuXfXfXdXuXuXuXtX2X-X-X:X-X:XZ.K.^.p.R.p.R.R.Q.'.{ { I 8.i.",
"^.t.| L.A.,XP.[.Z.pXfXfXfXsXiXrXtXfXfXuXdXiXfXdX5X4X2X<X<Xn.m.m.@X@.n.'.t.y.s.E.w././.R.^._ P E T.L.",
"R.^.i.P.U.&X:X:X2X#X@X|.8XfXfXdXuXuXuXuXuXuX5X5X4X2Xp r 9 8 ~.` A R L.J.K.W.p.w.E.w.3.W R.R.6.^.K.T.",
"!.!.^.t.!.v.%X%X=X1X@XJ.h.0XfXfXuXuXuXuXuX5X4X4X4X%X9 = = - 7 / I ' T.t.T.K.K.~.c.w.0.>.x./.Q.P.U.} ",
"[.T.K.P.!.R.V.V.*X2XC.O.@.$XpXpXqXuXuXuXiX7X4X4X2Xi = & & & 7 g.^.i./.W.J.T.^.J.T.K.P.P.i.p.W.Q Y D ",
"+._ T U.R.R./.` b.A.:X-X>XA.'.W.!.8X0XyXfXuX4X2Xr + o o % O * 7 0.R.Q.P.K.} ` E }.U.J.K.P.y.i.} ^ +.",
"{ D U R.x.=.U Z +.Y.n.C.%X-X,X>X>XP.U.#XZ.sXuX7Xm n $ o o o o o g.!.t.K.t.S V ] t.W.^.W.W.9.y.W.T.U.",
"+.8.{.=.H 3.G 9.[.j.].].V.V.-X2X4X@X(.$.y.6XwXwXS.M , o o . .   g.U.^.P.K.4.i.P.W.t.Q.p.y.Q.R.t.J.i.",
"T.U.Q.q.w. Xp.E.l.-.l.oXU.C.&X-X4X3XT.J.h.f H.H.N v , o o       O.$.{ ^.K.R.R.K.T.u.W.r.p.W.i.W.W.P.",
"8.~.~.2.=.M. X0.q.;.7.x.^.J.b.B.B.B.-X2X$Xa H.H.F.M , o .       D P Q !.~.x.Q.Q.t.i.i.W.W.4.P.P.W.P.",
"z.,.2.0.;.q.z.c.E.w.W.K.} R _ U.^.U.V.*X=Xu F.F.m O o o         D Y v.~.c.E.p.r.r.s.u.' _ [ [.P.P.i.",
"q.*.0.~.0.2.*.c.~.Q.P.u.I E +.I.Q ` j.#.i d.F.F.u + o o o       / P.{.,.;. Xa.s.a.p.J.P P [ j.K.R.P.",
"+X9.W Z ( x.j.l.q. XE.p.] U.I.F T >.k.y m d.F.F.n 9 & o o       / E.E.3.>.c.2.c.Q.J.K.[ h.T.T.^.i.P.",
"t.W.U Q K.[./.>.W q.R.x.{.].!.6.<.l.{.[ f.S.$ $ + & 9 9 ;       >.l.E.R.w.x.%.1.!.}.!.R.|.K.U.} K.i.",
"U.[.J.^.R.5.9.P.| U.9.j.x.-.7..X&.1.R.K.y.p.%Xi % = 9 q q ; .   <.2.w.x.5.Q.9.x.0..Xx.9.K.( E F K.i.",
"!.U.^.K.p.+XR.P.' Y F ~.M.;.0.c.M.z.~.R.R.R.p r q & % = q e q q = *.2.E.R.W.R.R.%.:.w.R._.[ Y [ t.i.",
"!.!.T.4.`.p.p.Q.] G j.v.z.~.^.K.~. XM.q.!. .r r q ; = ; ; 9 9 9 = 1.j.v.[.[ R.c.0.q.c.l.v.U.}.K.R.W.",
"R.U.).W.P.y.R.R.K.R.~.<.H l.R.7.W.E.;.&. .= r r q e e q = & O O & W j.[ I T >.-.a.XXx.G 6.R.W.P.K.i.",
"J.W.] | I T.T.y.y.i.R.9.w. Xz.z.w.~.G.G.d.o D  .r i i i 9 & o o . 7.j.) T 6.>.>.c.7.~.7.9.R.y.Q.p.i.",
"t.L.' V R J.P.K.9.s.Q.y.R.M.1.H R.`.M.N.D.6 { O.q r r e q & o o   {.!.K.!./.k.W F ) ^.!.R.Q.R.5.i.W.",
"s.u.r.! ).T.K.R.5.p.a.p.p./.~.7.9.8.j.N.F.6._.O.w i r e 9 & o o   [ ^.!.E.R.P.U ~ R.y.i.y.6.` U.R.K.",
"s.i.i._.L.P.K.i.Q.p.i.p.4.t.8.E E U ^.N.G.+Xu.u.&.r p p q = O o . R ^.y.p.R.P.T.!.K.8.W.` B F Y.P.i.",
"K.y.Q.p.y.r.P.u.t.^.^.y.t._.P.S _ 8.P.W.p.5.R.Q.b l k l r 9 & % . | /.t.^.W.t.}.U.J.|.!.h.[ Y.L.P.i.",
"t.P.p.a.`.Q.r.(.t.t.J.T.T.L.P.y.U.^.R./.p.p.y.j.b c z z t 9 ; = . r.i.^.T.U.T.L.Y.h.h.T U.[.L.| P.W.",
"K.P.i.p.y.Q.` W C R.Y.L.P.W.P.!.~.R.p.s.4.u.).J.v x z h f q 9 = . y.L.{ [ _ T.K.P.~ V T '.!.K.i.y.y.",
"i.u.W.i.W.K.~ U h.j.Y.).L.J././.p.a.i.K.(.(.J.T.O.k x x h h h s s s d 3 T ) P.T.P.} } I.'.!.P.y.W.W.",
"u.u.K.6.T.K.L.L.K.T.L.$.! J./.p.u.u.T.U.t.j.U.l.X.r k s j j f f s @ / Q 7.U.T.}.}.U.T.T.t.t.T.).] y.",
"u.i.R.R.!.T.L.(.J.T.E V P Y.W.s.u.| ! _ C x.l.b.r q 2 - -.J 9 ; f s + 6 R.^.$.+.( [ J.u.t.t.{ E U 4.",
"i.a.p.R.R.K.I.J.L.U.t.` _.R.J.P.(.| | V j.j.X.a e q 8 b.>.6 ; 9 > g : : J r.Y.Y F [ T.P.Q.Q.>.F ] K.",
"y.r.p.y.^.P.}.T.).J.K./.R.R.K.|.L.T.L.L._.X.e e 9 - 8 j.^.J & 9 q > s @ 6 i.[.( k.!.^.^.R.w.,.l.R.Q.",
"J.L.(.s.R.w.[.I.^ Y E ^.5.+XT.U.U.K.^.P.X.p q 9 = O 6 6.P.R.h.h.a q 0 , % L K.j.M.2.0.c.l.;.*..XR.K.",
"L.P.r.t.W w.XXx.T Y !.~.E.w.R.U.!.[.P.t.X.q q ; o J U.^.K.R.!.K.t.P.q q & L t.R.c.*.0.~..X~.z. XR.i.",
"p.Q.Q V F ~.e.:.R.!.N.e.M.%.,.R.R.R.}.i...q 9 2 1 K W.r.W.t.E U R ^.e e & K (.u.^.j.j.U./ x.~.R.i.p.",
"p.y.t.' K.M.e.%.q..X1.%.oX2.0.Q.W.4.4.` ..e = 2 K K.i.i.i.J.E R y.o.i e - 4 L.u.t.^.( D G k.3.5.P.s.",
"Q.u.L.Y.T.E.z.z.%.1.M./ 3.7. Xq.y.Z V ` ..q = % 4 i.8.^.P.T.| T.J.p r e ; O 6.] =.c.7.` U.3.G x.R.i.",
"t.u.t._.K.7.*.z.e.e.M.G C ` E.H =.] 7.P...e = & 4 R.U.T.J.U.P.P.P.i q q ; O U.6.-.c.E.R.OX~.c.~.R.i.",
"L.P.0.E.^.^.,.l.!.M.M.%.w.W.R.) 9.R.^.T...e = & 4 T.[ ( U U.K.t.T.p q q 9 O / F !.j.R.w.,.;..XE.R.P.",
")._.a.w.W.P.j.OXh.!.:.%.w.R.K.[./.R.6.y...q = % 4 T.( T Q U.^.P.U.a e e , - D ^ T.U.W.E.q.%.x.!.R.i.",
"P.t.E.p.! R _ U.'.T.j.l.T.J.U.t.y.`.`.P...q = - 6 P.9.W.W.P.I.h.^.h.i r 9 O.K.}.K.^.P.K.E.Q./.t.K.i.",
"p.9.R.P.A R ] T.L.T.K.( Y E ^.W.K.K.i.8.b.- O 1 Z K.W.y.W.K.U.h.U.P.y 5 = O.P.K.R.P.J.T.R.` Q Z y.i.",
"s.i.R.K.P.P.i.P.K.P.j.F E h.P.K.W.y.W.u.K.X   # ] 8.W.t.y.K.P.P.R.K./ <   K `.t.y.i.8.K.^.( I [ K.K.",
"p.i.K.K.K.i.p.i.i.i.T.h.U.T.P.K.K.8.W.r.s.8.O.+.U.P.^.K.t.i.R.K.P.^.W.8.h.j.W.y.i.Q.y.P.^.U.h.^.K.P."
};
