/* XPM */
static char *result[] = {
/* columns rows colors chars-per-pixel */
"50 50 237 2 ",
"   c #170A06",
".  c #1A1107",
"X  c #280C07",
"o  c #350E0A",
"O  c #28180A",
"+  c #2A1C0C",
"@  c #3B120B",
"#  c #341C0A",
"$  c #2D220C",
"%  c #38270C",
"&  c #3C330F",
"*  c #2D2914",
"=  c #362914",
"-  c #373513",
";  c #3B2F2E",
":  c #4B100F",
">  c #49160E",
",  c #4D1310",
"<  c #531210",
"1  c #5A1512",
"2  c #6A1D1A",
"3  c #711E1D",
"4  c #47270D",
"5  c #56280C",
"6  c #4E310E",
"7  c #58340E",
"8  c #472913",
"9  c #542711",
"0  c #463815",
"q  c #543816",
"w  c #5A3C12",
"e  c #60280E",
"r  c #64340D",
"t  c #69370F",
"y  c #672914",
"u  c #72261B",
"i  c #673913",
"p  c #6B3A10",
"a  c #733817",
"s  c #75391C",
"d  c #483C31",
"f  c #722523",
"g  c #712E26",
"h  c #3E4417",
"j  c #464419",
"k  c #564219",
"l  c #6A4618",
"z  c #7A4816",
"x  c #7D541B",
"c  c #4C4923",
"v  c #594B26",
"b  c #4D5325",
"n  c #5B532A",
"m  c #4F4C3E",
"M  c #634C27",
"N  c #72492D",
"B  c #68582B",
"V  c #745728",
"C  c #695D31",
"Z  c #78533C",
"A  c #6C6333",
"S  c #766937",
"D  c #7D723D",
"F  c #483C4B",
"G  c #354F54",
"H  c #385C61",
"J  c #545858",
"K  c #6A5950",
"L  c #6F6A4D",
"P  c #735B67",
"I  c #7B6B76",
"U  c #8B2F18",
"Y  c #893618",
"T  c #8D3A1B",
"R  c #933B1C",
"E  c #843C22",
"W  c #933E22",
"Q  c #87481D",
"!  c #97451D",
"~  c #88561C",
"^  c #90561C",
"/  c #935A1D",
"(  c #9B5B1E",
")  c #94641F",
"_  c #894524",
"`  c #954426",
"'  c #9C4624",
"]  c #9B4B26",
"[  c #84552C",
"{  c #865C35",
"}  c #975533",
"|  c #A34A25",
" . c #A74B27",
".. c #A85129",
"X. c #AC5229",
"o. c #A95C31",
"O. c #876424",
"+. c #8B762B",
"@. c #846938",
"#. c #86763A",
"$. c #A86621",
"%. c #B66A22",
"&. c #B87422",
"*. c #B6653A",
"=. c #AB7132",
"-. c #C05C31",
";. c #C36F23",
":. c #C37723",
">. c #C86837",
",. c #D06937",
"<. c #D56D3B",
"1. c #D96E3E",
"2. c #D6713C",
"3. c #D8713F",
"4. c #925B43",
"5. c #857843",
"6. c #8A7D44",
"7. c #A76649",
"8. c #A96954",
"9. c #B67E6A",
"0. c #B97D6B",
"q. c #D86D40",
"w. c #CF744A",
"e. c #D67040",
"r. c #DA7441",
"t. c #DD7944",
"y. c #E27B46",
"u. c #E57A47",
"i. c #E37D4B",
"p. c #E37F50",
"a. c #5B9617",
"s. c #63A41F",
"d. c #5E9E28",
"f. c #6CA221",
"g. c #68A627",
"h. c #75AC2A",
"j. c #73B030",
"k. c #79B939",
"l. c #7AB044",
"z. c #7FC044",
"x. c #878A37",
"c. c #B58E2F",
"v. c #88AF32",
"b. c #86BB39",
"n. c #84BD3A",
"m. c #94BB3C",
"M. c #C68724",
"N. c #D08F25",
"B. c #CB9324",
"V. c #CD9A25",
"C. c #D49925",
"Z. c #DCA426",
"A. c #E2A927",
"S. c #85C33D",
"D. c #8BC33D",
"F. c #89C93E",
"G. c #92C73D",
"H. c #8C8145",
"J. c #96834C",
"K. c #95AC4F",
"L. c #8BB843",
"P. c #95BC46",
"I. c #A0B54D",
"U. c #B6806B",
"Y. c #B98677",
"T. c #D88B55",
"R. c #E6814D",
"E. c #E9824E",
"W. c #E78452",
"Q. c #ED8554",
"!. c #F18655",
"~. c #F18855",
"^. c #F68D5C",
"/. c #F88E5E",
"(. c #E29658",
"). c #F7905E",
"_. c #F98F60",
"`. c #CEA16C",
"'. c #85C541",
"]. c #8DC543",
"[. c #85CA44",
"{. c #8CCA44",
"}. c #89C649",
"|. c #8DCC49",
" X c #92C543",
".X c #93CB45",
"XX c #94CC4B",
"oX c #98C849",
"OX c #8CD14B",
"+X c #9AD34C",
"@X c #97CB56",
"#X c #A4C659",
"$X c #96C368",
"%X c #ACD074",
"&X c #705F83",
"*X c #8878AB",
"=X c #B99486",
"-X c #A19F9E",
";X c #BBAEAA",
":X c #BEB1AB",
">X c #CDA695",
",X c #D3AB98",
"<X c #C6AFA5",
"1X c #C2B3AD",
"2X c #C9B4AC",
"3X c #C8B9B3",
"4X c #CCBAB3",
"5X c #D3BEB6",
"6X c #B9D788",
"7X c #BFD195",
"8X c #C3D797",
"9X c #CCDAA6",
"0X c #CFD1AD",
"qX c #D5C4BC",
"wX c #D6C8BB",
"eX c #D7D9B8",
"rX c #DAE2BB",
"tX c #D5C7C0",
"yX c #D8C7C0",
"uX c #DACAC2",
"iX c #DED8C4",
"pX c #E3D3CC",
"aX c #E4D9C9",
"sX c #EDDBD4",
"dX c #EADDD5",
"fX c #EDDDD5",
"gX c #DEE2C2",
"hX c #E3E3C8",
"jX c #EBE4D4",
"kX c #EDE3DB",
"lX c #EEE8D9",
"zX c #F1E4DD",
"xX c #F1E9DD",
"cX c #EEE8E0",
"vX c #F5E9E3",
"bX c #F4EAE4",
"nX c #F7EDE8",
/* pixels */
"G.].F.{.[.|.XXD.G.G.F.S.F.OXOX9XkXcXcXcXaX8X#X'.{.{.S.F.{.{.F.].].}.'.[.z.OX{.{.].b.D..XXXD.D..XOXF.",
".XD.|.S.|.j.'..XD.G.G.+X6X9X%XgXlXcXnXnXkXuXqXXX@X%X{.S.F..XXXD.k.b.s.'.F.OXD.D.G..X.XD.D.|..X.X.XG.",
".X].].h.g.g.n.XXG.+X%X9XgXhXgXlXbXnXnXcXkXiXqXoX8XeX8X@X].G..XoXk.a.j.].].G.+XG.G.G.G. X[.[.k.l..X].",
"D.+X.Xb.g.D.'.F.XX8XhXjXcXbXcXxXbXnXkXkXfXiX1X%XwXuXhX9X6XoX X XL.oXP.XX.XS.G.G.G.G.F.].j.s.g.}.{.{.",
"[.F..X{.G.|.{.[.9XhXvXnXnXnXnXsXnXbXzXfXzXpX3XwXyXuXuXaXrX%XXXG.G.P.oXn.[.OX[.[.F.{.|.'.k.h.n.]..XF.",
"OXF.|..X.X{.@XOXgXjXbXnXnXnXvXuXvXvXfXfXsXuX3XtXuXwXuXyXaXeX%X.XoXm. XG.OXj.k.s.S.[.].}.XX.XoX X.XG.",
"F.{.G.G.S.%X6X6XeXjXzXnXnXnXzX5XpXkXdXfXsX4X3XqXwXyXuXwXwXaXeXb.m.m.m.oX.Xk.a.j.[.}.XX|.].b.oX@XD.b.",
"{.D.k.h.h.6XgXhXpXuXsXvXvXcXpX<X3XqXuXqXqX1X:X:X5XyXuXwXuXsXeX8X#Xf.v.oX Xb.].].{.|.L.|.XXXXXX X.XD.",
"F.S.g.a.@XeXiXtXqXuXqXiXiXqX<X=XW Y T Y U 7.>X<X3XtXuXtXsXjXrXrX7X}.@X'.{.XX XG.G. X XXXOXl.k.s.S.F.",
"XXF.k.[.9XiXqX1X1X3X1X3X<X8.W R Y R ! ' R T T } =X5XuXuXsXcXxXkXhX$Xz.OXS.D.G. Xm.oXoXP.|.j.d.j.{.{.",
"].XX{.%XeXpX3X1X;X;X3X=X} Y R | | ..X.X...| | R W 7.4X4XfXvXbXdXuX7XOX[.'..X Xm.oXm.v.h. X Xk.XX{.}.",
"XX|.+X9XfXqX1X1X1X1X=XU T ' X.X.X.......X.X.X.X.` U E 4XpXvXpXtXtXeX%X[.{. X X#XI.P.m.v.P.oXXX{.}.k.",
"@X}.@X9XpX3X;X;X1X=X` T ` ...._ [ [ [ [ _ _ ] ..X.' U 4.2XuXtXtXyXyX9X+XoXT.T.t.>.>.*.x.L.{..Xh.g.d.",
"l.k.L.wXtX1X1X;X<X4.Y '  .Q N @.@.6.L 6.5.@.@.E | X.' W U.qXtXyXyXyXwX`.(.R.R.t.,.1.3.W.=.K.].n.j.l.",
"k.l.7XpXtX1X1X;X8.Y | | T { #.5.H.H.#.H.H.H.6.@.[ ` ..] _ >XqXuXuXwX,X).Q.R.R.t.,.r.r.^.R.O.].{.}.|.",
"z.%XjXdXtX3X;X5XU W ..Y M L D #.6.H.D 6.6.6.5.L C s ..X.` 8.5XqXqXqX).).~.R.R.u.<.r.t./._.T.V L.[.{.",
"@X9XvXnXtX5X3XW W | _ 5.= M V V @.+.V V #.S B v q n [  .| R <X;X1XT._._.p.p.R.y.2.r.t.^.).^.=.x..X].",
"@XaXvXcXtXtX>XW ` ] { D 8 q S #.#.#.M S #.6.S M 8 n 5._ ..R 8.1X,Xy._._.^.p.R.y.<.r.t.)./.).E.O.L..X",
"#XdXvXpX1X3X8.W | } 6.l C = C x.5.#.p #.#.c.#.n - v 5.@.! ..U qX,X1././.!.!.u.u.<.r.e.^.)./.~.7.x..X",
"9XdXzXuX:X4X7.W ..S S B L 0 v D #.+.w S C 5.S # C 5.v 6.{ X.R Y.T.y././.!.p.u.u.<.r.r.~.^.).E.>.x.{.",
"dXjXsX4X:X=XW  .[ #.v 6.#.v - 9 C V 8 9 M q c = D #.M S { ] ] _ 3.u././.Q.E.E.t.<.r.3.^.^./.Q.e.` L.",
"wXiXuX2X:X9.E ] Z C B #.#.A * d q 9 8 > 8 q + n S #.L q @.}  .| 1.i././.~.E.E.u.<.r.3.^././.Q.i.o.P.",
"$XwX3X1X3X=XW } q q A S L A c + 8 > * # = 8 ; A S S D C q a  .-.1.i././.Q.R.i.u.3.r.r.^.^._.W.E.o.K.",
"@X9XwXyXtXY. .E X = B S C C n . - * O + - + c n A A S 0 % g X.1.1.i./._.!.W.E.u.<.r.r.^././.Q.i.*.N ",
"%XeXaXqX5X0.| E u 7 > v B n n = = = = = = * c n C n 8 4 y E  .q.q.p././.!.E.p.u.<.r.t.~././.Q.W.w.s ",
"aXkXvXpX4X0. .g u t 5 o - v c 0 = * = = O $ d v c + 4 5 y u  .q.q.!././.!.E.p.t.3.r.t.^._./.Q.E.t.E ",
"lXbXvXfX4X0. .f u a e < o . = - = O 8 0 + - 0 * X > 1 t g 3 ' q.q.p.^.^.Q.E.i.y.3.r.r././._.W.W.W.E ",
"bXnXkXfX5X0. .f u t e < : @ + + O O + O + + + X > , 1 r u 3 ` q.q.p._.^.E.E.E.u.2.3.t./././.Q.E.p._ ",
"nXnXzXsXqX0. .u u a y : : > @   . O + * + . X @ 1 : 1 p i 3 Z 4.*.!._.^.i.R.E.y.3.r.r./.^._.Q.R.i.Q ",
"nXnXvXsXqX0.| f u t r < : > @ X       d   X o > 9 : 1 r y 3 G H Z !._.^.E.R.E.y.3.r.t./.^._.W.E.p._ ",
"zXxXvXzX5X0.' f u t r < : > @ X   P -X  X X o @ > , 1 r 2 2 G H Z !._.^.Q.E.E.i.r.r.t./._._.Q.R.t._ ",
"eXhXkXuX4X0.' f 2 t 5 < > > o X X O K $ O o o : 8 < < y y 3 G H Z !.^.^.~.E.E.i.r.r.r.^._.).Q.i.p._ ",
"@X9XuX2X<X0.] f 2 i e < : > # # O F P q $ # + @ > : < r y 3 m J 4.Q._.^.~.R.R.R.r.r.r.^._._.Q.y.p.E ",
"6X9XaXuX<X9.' f 2 i 5 5 4 % % + ; &X*XI 9 $ % % 6 5 < t t 2 _ w.<.Q.^.^.Q.R.E.t.e.r.r.).)._.Q.t.p.E ",
"hXjXzXjX5X0.` f 9 t t & & % % + + F *Xi l & $ 4 0 & r r y 2 ! 1.q.!././.~.R.W.i.3.3.t.)._._.Q.y.p.z ",
"xXzXzXfXqX9.] g a t 7 - - % % $ i v J l i 4 % 4 6 & 0 5 a y Q <.q.Q././.~.E.E.t.3.r.r.^.^.^.Q.t.p.E ",
"nXvXvXkXqX0.| l l r 6 - * & # l l P *X{ O.z % 4 & & 0 7 l k ^ <.r.!.^./.~.E.E.R.3.3.r./._.^.Q.i.p.z ",
"nXnXnXfXqX9.] b k l 6 h & & 6 ~ ~ K 5.J.~ ~ x # 6 & j p B j Q 2.1.!.^./.~.E.W.t.r.r.r./._.).W.R.R._ ",
"nXnXnXfXqXU.] b j t j & - & ~ z O.J.O.O.z O.O.7 & & 0 t l j ~ 2.q.!.^./.~.E.E.R.3.r.3./././.E.p.R.s ",
"lXxXxXsXqXU.] k j t 6 - - 7 ~ ~ z @.l l x ~ z x % & j 5 7 k Q ,.r.!././.Q.E.E.i.r.3.y./././.E.E.R.s ",
"eXaXpXuXwXU.! c 7 r 6 & % ~ ~ ) ~ 5.v l ^ ~ ) ~ l % 6 r k h Q e.3.Q./._.Q.R.R.R.r.r.r./././.i.p.p.s ",
"6XwXqXwXqXU.] b j r 6 $ l ^ / ^ ~ ~ Q ^ ~ ~ / ^ ~ 6 & 5 w h Q e.r.!.^.^.Q.R.R.i.r.r.r./.^./.u.E.p.s ",
"eXjXvXzXqX0.] n k r 6 # / ( $.~ ( / ^ ^ ~ ( Q ) / z & r w j Q <.1.!.).^.Q.E.R.R.q.y.,.!././.u.E.p.s ",
"jXxXvXzXwXU.| b k t 5 Q ( ( ( ^ $.( / ( ( $.( $.) / 5 7 k j N #.*.!.)./.~.E.R.i.r.r.>.!././.u.E.i.s ",
"vXnXxXsXqX9.! b k r z $.$.&.$.$.%.&.$.$.&.&.$.$.&.$./ r 7 k G H Z !././.~.R.R.i.r.3.,.!././.u.E.p.s ",
"nXvXzXfXqXU.! b j z &.V.B.V.&.V.B.N.V.V.B.B.V.%.V.V.V.) k j G H Z !././.~.E.R.y.r.3.3.!././.u.E.p.a ",
"nXvXfXfXqX9.! b 6 ~ &.M.%.M.%.C.%.M.&.%.B.%.B.$.&.&.&.&.7 & G H Z !././.~.E.i.i.r.r.3.!./.).u.E.p.s ",
"zXxXfXsX2XU.] j 6 $.B.%.M.N.&.Z.&.N.:.&.C.%.Z.&.M.B.&.V.~ 0 G J { ~.^.^.E.E.u.i.r.r.3.E.^.^.y.E.R.a ",
"aXhXaXqX<XU.] 8 ~ M.B.%.Z.:.N.A.;.C.:.;.Z.;.A.C.;.Z.%.M.M.5 N *.,.~.).).W.y.r.r.r.r.r.p.^./.u.E.R.s ",
"%X0XwX<X1XU.' V %.C.&.;.C.&.Z.A.;.Z.:.;.A.:.N.Z.%.C.:.%.V.( Q <.e.~./.).u.<.q.q.e.r.e.u.u.u.u.Q.R.s "
};
