/* XPM */
static char *result[] = {
/* columns rows colors chars-per-pixel */
"50 50 245 2 ",
"   c #7F2F12",
".  c #7A391A",
"X  c #7C3E25",
"o  c #7C401C",
"O  c #7D4226",
"+  c #7E452D",
"@  c #7A4C36",
"#  c #7E5036",
"$  c #4D5146",
"%  c #585758",
"&  c #6C534C",
"*  c #795547",
"=  c #767169",
"-  c #883B1B",
";  c #953D1E",
":  c #833D23",
">  c #8A3D24",
",  c #8A411D",
"<  c #96411B",
"1  c #834326",
"2  c #82422B",
"3  c #88472A",
"4  c #994725",
"5  c #9A542C",
"6  c #844A33",
"7  c #854934",
"8  c #984E32",
"9  c #89543A",
"0  c #965638",
"q  c #A54C27",
"w  c #B34E25",
"e  c #A95429",
"r  c #AB542B",
"t  c #B2542B",
"y  c #B75728",
"u  c #BC5B2C",
"i  c #A55633",
"p  c #AA5533",
"a  c #A4583A",
"s  c #B55932",
"d  c #B46231",
"f  c #BA663A",
"g  c #C35B2E",
"h  c #C45D38",
"j  c #C56334",
"k  c #C96737",
"l  c #C5633A",
"z  c #CC6B3C",
"x  c #D76B3A",
"c  c #D36C3C",
"v  c #CE733D",
"b  c #D6733D",
"n  c #D9773B",
"m  c #DA753D",
"M  c #E3783C",
"N  c #865240",
"B  c #985B44",
"V  c #8D644B",
"C  c #9C674A",
"Z  c #9B6A53",
"A  c #96735B",
"S  c #A96945",
"D  c #B26B4A",
"F  c #B6744A",
"G  c #A26956",
"H  c #A6755A",
"J  c #B87854",
"K  c #C56B45",
"L  c #D66D42",
"P  c #C9784B",
"I  c #D47442",
"U  c #DA7542",
"Y  c #DC7944",
"T  c #D77749",
"R  c #DC7B4B",
"E  c #C56F54",
"W  c #CA7B58",
"Q  c #D87B55",
"!  c #E17B46",
"~  c #E77B48",
"^  c #E37D4B",
"/  c #F17E4D",
"(  c #E37E53",
")  c #EB7E52",
"_  c #609B1C",
"`  c #67A21D",
"'  c #659D2D",
"]  c #6DA423",
"[  c #71AB2A",
"{  c #74AC33",
"}  c #7AB635",
"|  c #7EC739",
" . c #7DA744",
".. c #7CB841",
"X. c #85BC39",
"o. c #85C53B",
"O. c #8CC43D",
"+. c #8BCA3E",
"@. c #91CC3E",
"#. c #88B947",
"$. c #8CBA4F",
"%. c #8EBA58",
"&. c #94BD59",
"*. c #BA8266",
"=. c #BA8A79",
"-. c #BE947D",
";. c #9AAB6C",
":. c #98BA67",
">. c #A3BE76",
",. c #DB814A",
"<. c #CA895E",
"1. c #DD835B",
"2. c #D88558",
"3. c #E58345",
"4. c #E5824C",
"5. c #E9824E",
"6. c #E58352",
"7. c #EB8452",
"8. c #E38955",
"9. c #ED8953",
"0. c #EA875A",
"q. c #EB8A5B",
"w. c #F38A54",
"e. c #F68955",
"r. c #F58D5C",
"t. c #FA8E5D",
"y. c #F69358",
"u. c #F6925C",
"i. c #FA915E",
"p. c #D68966",
"a. c #CD8C72",
"s. c #E88961",
"d. c #F48E62",
"f. c #FC8E62",
"g. c #F69263",
"h. c #FB9262",
"j. c #F99568",
"k. c #85C743",
"l. c #8CC442",
"z. c #8CCA44",
"x. c #8CC549",
"c. c #8CCA4B",
"v. c #92C544",
"b. c #92CC45",
"n. c #94C74A",
"m. c #93CB4B",
"M. c #95D249",
"N. c #91D14D",
"B. c #8CC353",
"V. c #97C656",
"C. c #A1C559",
"Z. c #9AC668",
"A. c #9EC67C",
"S. c #A4C769",
"D. c #AAC976",
"F. c #B1D07C",
"G. c #B1B78C",
"H. c #BCAFA9",
"J. c #BDB3AC",
"K. c #BFB4B4",
"L. c #C09782",
"P. c #C8AA91",
"I. c #CBAA9B",
"U. c #D3AA97",
"Y. c #C8ADA5",
"T. c #CEADAF",
"R. c #C8B5AA",
"E. c #CDB5AB",
"W. c #D9B6A9",
"Q. c #C7B8B4",
"!. c #CCBBB4",
"~. c #D4BCB2",
"^. c #DCBCB6",
"/. c #E1B6A6",
"(. c #E5BBAA",
"). c #F0BEAC",
"_. c #E5BEB1",
"`. c #B6CD86",
"'. c #B8D687",
"]. c #B7CB92",
"[. c #BEE199",
"{. c #C3C899",
"}. c #C4D996",
"|. c #CDE49B",
" X c #C8C7A8",
".X c #D1C9AA",
"XX c #CBD7A6",
"oX c #D2D8AB",
"OX c #CDC5B8",
"+X c #D7C8B6",
"@X c #D1C4BB",
"#X c #DAC5BC",
"$X c #D8D6B7",
"%X c #DBDBBB",
"&X c #E8C1AD",
"*X c #E6C7B6",
"=X c #EAC4B2",
"-X c #E3C3BA",
";X c #CDE4A3",
":X c #D7E6AA",
">X c #DBE6B6",
",X c #DEF4B1",
"<X c #E4EDB9",
"1X c #C7BEC0",
"2X c #CFC0C1",
"3X c #D4C5C3",
"4X c #DBC6C4",
"5X c #DCCCC3",
"6X c #DDC6C9",
"7X c #DDCBC9",
"8X c #DCD3C7",
"9X c #E5CBC5",
"0X c #E3D3C3",
"qX c #E3D4CA",
"wX c #EAD5C9",
"eX c #EBD2CF",
"rX c #E8DACA",
"tX c #E7D6D7",
"yX c #E5DCD2",
"uX c #EADCD4",
"iX c #EDDEDA",
"pX c #F1DCDB",
"aX c #DEE6C3",
"sX c #E6E5CC",
"dX c #E8E8C8",
"fX c #EAF2C9",
"gX c #ECE2D2",
"hX c #EBE9D5",
"jX c #EEE3DB",
"kX c #F5E7D7",
"lX c #F2E4DC",
"zX c #F4ECDC",
"xX c #EDF0D4",
"cX c #F3F1DA",
"vX c #ECE6E1",
"bX c #F3E5E2",
"nX c #F4EBE3",
"mX c #F9EDE4",
"MX c #F7E5EA",
"NX c #F5ECE9",
"BX c #FBEDEA",
"VX c #F5F1E3",
"CX c #FCF2E9",
"ZX c #FAE6F2",
"AX c #FFF8F8",
/* pixels */
"O.b.o.+.+.M.b.O.O.+.+.| | N.B.V.N.c.V.D.].OXvXMXZXZXNXhX>X`.;.Z.%.A.k.B.| N.@.@.@.X.C.v.n.l.O.x.b.b.",
"b.X.M.o.c.[ O.b.O.o.+.z.c.B.B.S.S.Z.D.].XXaXMXZXZXZXBXcXxX>X[.;X[.`...%.c.k.X.@.X.v.n.X.O.m.m.m.M.@.",
"z.+.+.[ ] ' X.m.b.M.M.#.B.S.}.:X:XXX{..X.X8XjXzXnXnXNXCXzXhXsXhXsXaXXX'.Z.V.M.M.O.O.@.v.+.O.} X.+.O.",
"+.N.k.o.] X.l.l.c.l.v.V.'.:X,X%X+X$X+X8X.X8XgXgXjXjXCXmXmXbXMXBXVXVXxXfX:XF.C.X.@.@.b.b.[ ` ] X.l.v.",
"z.k.m.v.v.b.b.v.k.B.D.|.<X<X+X+X+X9X#X#XR.%XkXkXgXpXmXCXbXbXBXBXCXzXzXbXcXfXXXZ.$.b.b.o.} [ X.v.@.O.",
"z.o.N.x.n.n.z.x.V.F.,XdXwX+X+X0X#X0X7X5XE.9XuXrXgXkXzXmXpXiXMXBXlXAXAXBXnXjX$X;.S.&.#.O.M.b.m.l.b.b.",
"k.z.c.c...N.x.V.D.XXgXeX-X6X#X#X9X3X!.Q.R.@XiXpXuXpXjXuX5X4XlXmXCXlXbXnXbXuXaX XXX}.C.V.c.O.m.M.X.X.",
"b.o.| { { c.Z.'.[.%XuX9X6X6X4X7X3X~.E.T.Y.E.-X-X*X=X&X~.Y.E.9XkXmXnXnXuXqX8XjXsXdXfX}.S.$.V.V.z.b.v.",
"@.X.` _ #.Z.[.,XsXhXnXzXuX@X6X6X~.W.U.U.a.B > 1 > > 2 X Z a.P.&X9X9XeX!.+X+XOX3X8XsX>X}.Z.$.{ ] o.z.",
"@.b.} v.Z.'.fXxXvXCXVXjXqX#X6X^.U.*.B 1 X > - 4 q ; ; - > : X V =.I.E.Y.!. XJ.K.OX8X<X:X`. .' [ x.o.",
"b.z.n.V.S.;X%XqXMXiXCXzXrX~._.=.B 3 1 1 4 i p r q e r q q ; - > X G =.^.Y.R.J.J.J.K.%XfX;X:.#.x.N.z.",
"m.x.V.&.}.$XOX7X3XiXmXzX#X&XV X - 4 p a s r r t s s t r t s t < ; > . Z -XY.!.H.K.J.OXaX,X|.C.n.k...",
"c.B.&.`.>X.X#X0X6X6X7XwXU.C , , e y y t y u j z c h g h u y u u r ; > : H /.I.T.Q.K.1X3X>X;XV.{ ' ' ",
"k.{ %.XX.X+X4X#X4X3X-X=XZ X 4 q e y j v U ^ 7.7.^ m m Y L c U 7.L l q - o Z W.Y.Q.K.Q.2X$XXXD.#.{ ..",
"..' ;.oX.X7X3X7X9X*X=X9 : q q g g I 4.4.6.7.) ^ ! U U L U ! ( d.g.8.e e . . G /.T.T.Q.@X$X>X>X'.%.c.",
"$.%.}.>X5XOX2X7X^.I.Z 1 4 t h h Y r.h.9.^ 7.7.) ! b R U I T R d.g.j.y.u e , > H W.T.!.3X8XsXxXXXV.c.",
"C.F.<XkXjX2XQ.H.Y.L.6 8 i w g ~ g.u.u.7.7.^ 7.5.! m U Y U U ^ t.u.u.i.8.l q ; 8 U.W.6X~.gXcXzX>XD.V.",
":.}.<XcXmXtX7X~.P.Z 1 q r u ! h.t.t.i.7.5.^ 7.5.! I U U U U ! t.t.w.y.y.( s < > H W.4X6X5XzXCXfX'.V.",
";.<XxXzXBXMXzX+XP.3 8 s w l ^ g.i.t.t.7.7.5.7.4.! L U U U U ^ h.h.t.t.r.q.T p > 3 W.!.Q.@XjXzXsX:XS.",
"P.dXzXnXMXbXkX=XH 3 p s t T r.d.t.t.u.7.7.^ 5.4.Y b m U U Y 4.i.i.h.t.e.0.( f 5 - =.Q.H.@XyXyXxX,XS.",
"oXcXzXBXMXlXwX&X3 4 t t h ) d.f.g.t.t.7.7.4.6.^ ! x m U U ! ^ e.t.f.f.t.q.8.P d < 6 +XR.Q.8XgXhX,XF.",
"dXzXBXBXMXpXwXU.> r w g L R 0.h.t.i.u.7.7.4.7.4.! U U U U Y ! w.f.f.f.t.q.8.2.f q . &XR.H.!.3X8X;XF.",
"gXzXBXMXMXpXwXH 1 s w x ^ U w.h.u.t.i.5.7.) 4.! ! U U U U U Y 7.f.f.t.t.8.4.8.U e , -.E.!.Q.Q. X`.Z.",
"dXzXmXbXpXuX=X+ q w w m Y U w.e.t.g.i.7.5.5.7.! ! L U U U ! ^ 0.e.t.t.h.9.,.7.Y u < 0 .X4X3X5X.XD.&.",
"<XsXgXbXiX9X).2 i q j c m Y e.i.i.h.i.7.7.7.7.! ! U U U Y b ^ e.t.g.t.t.9.4.) / k < 1 ).^.7XyXaX}.D.",
"oX%X%X5X3X^._.7 i r k U U U e.i.i.i.u.7.5.7.^ Y ! U U U Y b ^ r.r.i.e.i.6.4.s.) z 4 1 &X9XtXnXxXfXoX",
"G.].+X@X!.T./.: i t z T Y n w.i.i.t.r.7.7.7.4.! ^ U U m U U ) t.g.i.y.9.4.,.0.Q K 5 3 ).9XiXVXcXVXsX",
"G.XXhXjXqX^.(.2 i t z U Y Y w.i.i.t.7.7.7.^ ^ ! ^ U U U U U 5.g.u.i.y.y.9.q.p.a.D a 3 ).eXjXzXVXNXvX",
">XsXVXCXnXwX=X: p t c U Y Y e.t.i.t.7.5.5.7.^ 4.! U m b U U 5.i.h.t.i.w.0.Q G G S a 9 _.eXjXzXVXnXvX",
"xXxXVXNXbXqX=XO t w x c Y R t.t.i.t.w.5.4.5.7.7.^ U U b U U 7.t.g.t.g.u.7.W & & 9 N 7 _.wXgXzXCXnXjX",
"kXmXCXNXvX8X=XO r y x m U ! t.d.i.i.e.7.) 5.7.7.^ Y I c U U 7.t.f.r.j.u.e.p.% % * B * -XwXgXmXmXVXsX",
"lXBXNXNXvXrX=XO q g x ! U R d.t.i.i.t.7.5.6.7.^ 4.Y b b U U 7.t.h.i.g.q.5.2.& % N B * ^.5XqXlXhX>XXX",
"lXBXBXMXbXwX&XX e u b n n 4.g.h.y.y.t.e.) 4.) ) 6.v Y Y I I 4.f.t.i.r.u.9.P V * B 0 * W.Y.@X8XoX`.:.",
"lXBXBXlXpX0X=XO e f b n n 4.g.j.i.i.e.5.q.R ( s.<.J W ,.b m w.t.t.h.d.r.7.,.<.*.D a 7 ^.~.8XsX$X'.D.",
"lXnXbXjXiX-X_.O i h b n n 4.u.j.g.g.t.w.6.8.p.H = = H P b n / f.f.h.g.r.9.3.2.s.K a 7 _.0XjXjXrXxXaX",
"zXzXlXbXiX#X/.3 p h b n b 4.d.j.j.0.j.0.,.2.J V = = A S T ! / h.f.f.d.0.w.4.4.4.L p > =XqXjXpXzXVXjX",
"rXuXyXtX3XR.W.3 p j U n n 4.g.j.h.g.g.1.2.f 0 S *.A V 2 f P 6.r.h.t.i.7.7.5.9.3.z i # =XwXlXlXmXnXvX",
".X+X XR.R.E.W.X p l U m n 4.h.f.i.h.s.8.<.5 F <.<.*.J S 0 F q.g.u.u.i.r.7.7.3.3.z i + =XwXzXmXmXCXvX",
"J. XR.R.!.~._.2 p l U Y m 5.i.t.y.y.y.8.f B a.p.v v ,.P 8 S 8.y.y.u.i.i.) ) 5.,.f 0 @ +X0XkXCXnXNXvX",
"G..XOXOXOXR.(.2 a l U n m 5.h.t.y.y.y.8.S C 2.1.3.n n P 0 D ,.g.u.u.y.r.) ) 3.3.k i # *X*XjXmXbXnXsX",
"$X%X8X5X@XY.W.7 p l U m m 5.t.f.f.f.d.0.J 5 2.( Q L Q E 0 J 2.u.t.d.u.t.7./ 3.3.k e 6 *X+X5XtX8XaXXX",
"%XsXgXrX8XY./.+ p l U U m 5.d.f.j.d.s.p.<.5 F Q 2.E W a 8 F s.q.d.d.r.w.) / 5.4.v e 3 ~.+X5XtX7X].G.",
"gXkXkXjXwXE./.2 p l L m m 5.t.f.f.f.j.6.8.2.. C W H 8   T T ! d.j.g.r.r.) 0.2.2.f e 6 &XrXjXMXvXhXaX",
"kXrXiXlXuXE./.2 p l U ! m 5.h.f.f.f.d.7.6.,.<.0 7 7 0 Q c m ) r.d.t.r.r.) 1.Z Z a a # &XuXnXBXBXzXhX",
"kXkXuXpXeX~./.2 p l m n n 4.g.f.f.f.f.^ 7.2.8.,.Q W I T U L ) e.t.e.y.w.^ W & $ 7 B * ^.wXjXjXzXCXjX",
"kXpXiXpXtX~./.> p k m n n 4.d.h.h.e.g.7.R 8.4.4.R ,.b I x ! ! f.h.t.y.w.( p.% $ @ B 7 ^.wXgXkXmXNXjX",
"bXpXpXpXtX~./.1 p j m n n 5.f.h.g.g.u.x e.5.7.6.R K T m M M ! d.f.t.y.9.) p.% % @ B N /.qXyXpXlXBXlX",
"zXnXbXpXqXE./.2 r j U n m 5.g.f.i.u.w.~ ~ ~ 7.6.T I ! U x M ! h.f.g.y.9.( p.& & 7 a 7 W.5XgXlXlXnXgX",
"gXcXlXiX@XR./.: p j U U U 4.i.g.i.i.e.! ! ! ! U L I U U m U ^ 0.j.f.r.w.) 6.W J p i 6 W.R.8XuXrXdX:X",
" XrXgX0XOX!._.O s j U Y U 7.i.i.t.i.t.U L L L L c L Y U U x L ! c c k k j j s s t p 6 E.R.@X3X$X].>."
};
