/* XPM */
static char *result[] = {
/* columns rows colors chars-per-pixel */
"50 50 171 2 ",
"   c #5C8F16",
".  c #559713",
"X  c #559B17",
"o  c #5B9B15",
"O  c #56961B",
"+  c #5E961A",
"@  c #539A1A",
"#  c #5B9C1A",
"$  c #669916",
"%  c #63961C",
"&  c #629C1C",
"*  c #699D1F",
"=  c #77991E",
"-  c #799D1F",
";  c #5DA11E",
":  c #61A21E",
">  c #6AA81F",
",  c #5F9B20",
"<  c #5F9E2C",
"1  c #629D25",
"2  c #6A9C25",
"3  c #7B9621",
"4  c #749C22",
"5  c #7E9B24",
"6  c #7F9E29",
"7  c #5DA222",
"8  c #5FA825",
"9  c #64A423",
"0  c #6BA424",
"q  c #65AA26",
"w  c #6BAA26",
"e  c #64A32A",
"r  c #6BA42B",
"t  c #66AB2A",
"y  c #6CAC2C",
"u  c #71A423",
"i  c #7CA125",
"p  c #78AA27",
"a  c #75A52B",
"s  c #7CA32B",
"d  c #72AC2C",
"f  c #7BAC2E",
"g  c #62B22D",
"h  c #6DB22D",
"j  c #73B22D",
"k  c #7AB22D",
"l  c #6BAE31",
"z  c #77A731",
"x  c #78A431",
"c  c #74AC33",
"v  c #7BAD31",
"b  c #74AD38",
"n  c #6DB231",
"m  c #74B333",
"M  c #7BB334",
"N  c #75BA35",
"B  c #7BBA35",
"V  c #74B63A",
"C  c #7CB63B",
"Z  c #75BB3A",
"A  c #7CBC3B",
"S  c #7EC136",
"D  c #7DC23B",
"F  c #76B542",
"G  c #7DBC41",
"H  c #7FC343",
"J  c #7DC945",
"K  c #809725",
"L  c #8C9225",
"P  c #839C25",
"I  c #8D9A26",
"U  c #839D29",
"Y  c #8B9D2C",
"T  c #929222",
"R  c #83A125",
"E  c #84A42D",
"W  c #89A32E",
"Q  c #83AA2D",
"!  c #8EA533",
"~  c #83AC34",
"^  c #8BAB34",
"/  c #84AE3A",
"(  c #8CAD3B",
")  c #93A534",
"_  c #9AA636",
"`  c #91AB34",
"'  c #95A638",
"]  c #92AE39",
"[  c #9BAB3B",
"{  c #83B435",
"}  c #88B234",
"|  c #82BC35",
" . c #8DBA34",
".. c #84B43A",
"X. c #8CB43B",
"o. c #84BD3C",
"O. c #8BBD3C",
"+. c #95B335",
"@. c #93B33C",
"#. c #9BB53E",
"$. c #93BC3D",
"%. c #9ABB3E",
"&. c #A1AA3A",
"*. c #A8AF3F",
"=. c #83C436",
"-. c #8CC037",
";. c #83CB37",
":. c #85C43D",
">. c #8BC43D",
",. c #85CA3D",
"<. c #8BC93E",
"1. c #92C43D",
"2. c #98C13F",
"3. c #92C93E",
"4. c #9AAC40",
"5. c #8CB340",
"6. c #84BE43",
"7. c #8CBD42",
"8. c #82BB48",
"9. c #8FBB4A",
"0. c #93B441",
"q. c #9DB442",
"w. c #94BD43",
"e. c #9CBC44",
"r. c #95BE4A",
"t. c #9CBE4B",
"y. c #A6AF42",
"u. c #A2B444",
"i. c #A9B644",
"p. c #A0BC45",
"a. c #A3BD4B",
"s. c #A9BA4A",
"d. c #85C442",
"f. c #8CC543",
"g. c #85CA43",
"h. c #8CCA43",
"j. c #86C34A",
"k. c #8CC54A",
"l. c #86CA49",
"z. c #8DCB4A",
"x. c #93C443",
"c. c #9AC344",
"v. c #93CB44",
"b. c #99CA45",
"n. c #93C54A",
"m. c #9BC44A",
"M. c #93CB4A",
"N. c #9BCB4C",
"B. c #84D147",
"V. c #8CD145",
"C. c #8CD14B",
"Z. c #93D045",
"A. c #9FD247",
"S. c #94D24B",
"D. c #9BD24C",
"F. c #9EC452",
"G. c #93CD51",
"H. c #9BCC51",
"J. c #9ECE58",
"K. c #95D353",
"L. c #9BD253",
"P. c #97D955",
"I. c #A2C346",
"U. c #A3C847",
"Y. c #A2C24B",
"T. c #A1CA4C",
"R. c #A3D34C",
"E. c #A3C650",
"W. c #AEC052",
"Q. c #A2CC53",
"!. c #A2D353",
/* pixels */
"1.v.d.h.g.z.M.f.3.<.<.;.;.g.d.z.M.>.x.b.-.h.v.>.>.h.:.d.h.h.f.h.f.z.J B.g.h.z.h.x.| x.x.v.>.O.Z.Z.h.",
"b.o.M.:.z.j >.v.-.<.3.<.g.h.h.h.d.z.S.>.z.>.N.M.h.h.h.=.h.v.x.>.A A : :.g.h.=.3.>.v.v.-.>.S.v.h.v.h.",
"b.3.f.d 0 0 O.M.v.b.<.>.h.f.f.d.N V.h.B V.h.v.v.>.-.S.,.>.x.v.N.M   v f.z.1.R.3.1.-.1.v.>.d.Z A h.>.",
">.S.v.| u :.:.h.h.3.3.1.v.>.r & j h.g.,.h.d.f.1.D.o.h.g.M.v.2.n.9.n.x.n.v.| 3.<.3.<.>.z.m 7 t j.z.<.",
"h.,.v.h.k.h.g.g.,.=.h.1.v.x.f d f.M.h.v.f.x.x.{ { w :.:.S.v.3.x.x.x.M.B h.C.,.h.<.<.h.d.B j o.f.3.1.",
"V.,.v.z.M.z.g.C.h.=.x.x.x.w.f.L.N.x.f.w.x.} N.Q $ u f.<.,.,.<.x.N.1.x.f.h.N N 7 ,.h.k.f.M.x.n.f.v.v.",
"h.h.v.x.-.L.h.g.f.z.x.N.w.~ X.w.r.w.M.n.X.5 c.O. .f.N.x.h.h.>.o.%.+.$.m.v.C # y g.z.z.M.f.7.n.R.>.O.",
"z.:.| p d M.h.h.:.f.{ c.r.R 0.e.c.f.{ c.e.@.N.f.h.v.>.x.h.,.h.v.2.- ~ b.x.o.f.v.f.M.6.n.M.M.M.f.f.>.",
">.:.9 o S M.:.g.w # B G.f.m.Y.O.9 ; M x.m.O.k.h.g.h.O.x.>.N.g.h.k.:.M.d.h.b.1.x.x.1.v.M.z.A Z 7 =.h.",
"M.d.B g.C.d.h.f.r N d.o.M.x.~ n.w m O.x.N.7.:.d.h.h.x.n.c.} f.:.K.h d.z.d.-.1.3.1.b.N.x.M.b 7 l z.h.",
"x.M.h.h.f.M.L.x.n.f.K.M.M.} = c.z.M.@.E w.m.n.!.n.7.x.m.` 3 T.M ; q g.d.h.x.x.$.2.%.^ i n.7.{ G.k.h.",
"n.k.M.f.f.x.w.w.n.k.z.A M x.$.$.x.b.^ E w.M.x.n.7.D.f.N.e.@.x...0 N h.:.h.f.x.N.w.$.$.~ w.N.b.z.j.Z ",
"G.z.d.k.M.x.M.M.7.j.y # C M.b.v.M.v.n.c.z.=.o.f.k.g.N C a n.N.7.N.1.S.v.g.k.M.:.z.f.z.x.h.<.3.d r 8 ",
"G V a f.x.x.N.M z.z.y y h.d.-.3.v.x.f.:.q : m z.k.g.h X d O.7.T.x.x.b.h.f.A N y M.z.d.d.v.:.<.| r F ",
"V , 0 w.w.f 4 & d.j.j.k.f.f.S.-.v.x.h.g.w j o.M.M.f.f.6.k.n.q.q.m.n.O.f.d.: & B d.v.D.v.v.O.>.v.z.z.",
"G G H.Q i } 4 O.G.7.G.H.k.f.>.| c.f.g.B.d.K.N.7.N.n.n.x.k...Y ) n.k.M.v.z.| >.v.h.-.b.>.1.v.x.>.h.g.",
"z.f.m.%.%.U.$.m.e.E 0.Q.x.M.f.v.3.<.h.g.d.d.f.n.w.c.c.-.V.h.w.w.z.l.C M.f.x.x.x.h.:.v.>.1.v.>.h.v.h.",
"6.m.I.] R e.I.$.q.W ] r.G.6.o.z.>.-.z.h.h.d.g.x.c. .v.h.g.h.n.o.t 8 l n.m.c.v.Z.:.h.<.<.v.| x.v.v.h.",
"q.! ] ] W #.q.e.c.O.M.d.A y n z.M.v.S.h.B.g.h.N.x.>.d.=.h.<.d.h.t t 7.m.e.c.>.-.-.3.,.N m N M.x.v.<.",
"%.P @.m.@.] U q.T.c.v.=.9 t G j.c f d.g.h.,.>.>.>.y : h M.M.:.V.:.z.H.^ W I.2.3.1.3.g.9 9 C j.f.x.<.",
"N.O.a * c r.5.w.e.I.2.x...k.d.2 a ~ M.h.<.<.>.>.f.e y o.M.v.h.;.3.x.c.} Q c.` t.b.g.f.C 6.z.z.M.f.<.",
"f.v.9 d f.M.N.} 4 %.x.$.Q.M.G./ ( w.N.d.>.1.v.v.f.g.K.z.z.>.>.3.2.e.2.b.$.e.K ! n.K.n.x.L.f.k.A <.h.",
"k.G.d.M.v. .O.f.A k.7.7.w.U @.a.Y ) n.:.1.1.2.2.x.k.f.M h.h.>.b.e.[ %.2.O.b.O.w.#.s.n.>.f.c r 1 d.v.",
"n.k.M.v.1.R.x.z.N t % m.a.W X.m.4.u.m.n.c.v.x.c.N.f.M.d.h.h.v.$.q.U ^ c.x.x.x.c.P Y @.x.G.A e G >.>.",
"n.n.z.=.N.1.1.b.B 0 5.t.0.Y.M.f.m.Y.p.[ m.x.z.h.>.S.-.1.N.N.h.f.a.! 5.r.G.C x.e.+.#.e.w.k.n.L.d.x.<.",
"n.f.z.S.h.>.x.x.f.x.m.( R 0.w.O.v.m.E E m.z.Z g.h.<.3.v.O.{ C m t.U 7.G 1 r ~ Q c.T.w.4 ..x.v.f.<.v.",
"f.h.B B 9 h.f.z.>.3.x.O.w.I.u.u.$.x.w.} 6.o.; g.<.Z.<.=.:.e # C n...9.M a C / ~ w.@.m...7.x.1.3.1.v.",
":.h.N o y :.z.f.-.3.b.-.x.e.) 3 x.D.n.M.c , Z g.<.b.Z.=.D D 6.k.M.H.x.f.n.n.7.x 2 z N.n.x.b.x.O.h.>.",
"<.>.;.j C.g.f.x. .1.v.1.O.N.m...>.o.:.M.o.m S.D h.-.7.f.z.C.k.G.6.G k.n.x.1.v.0 f f.f.>.>...M j.x.f.",
"3.h.<.S.d.M.f.1.b.1.1.1.o.>.o.d y 0 C.f.v.D.<.,.h.z.$.w.M.k.c C y y M.>.x.1.z.d.M.f.=.v.M + 1 k.h.<.",
"d.>.b.1.>.=.V.<.d.v.M.h.:.S.h.> d :.f.v.1.-.v.v.z.x.F.e.E Y.o.9 B =.D.d.v.M.d.P.k.k.J.k.6.C l.z.h.<.",
":.v.-.2.R.Z.=.V.:.:.d.z.h.,.f.f.z.M.x.N.1.1.>.>.o.M x ] ! a.X.N.3.<.>.M.k.f.z.g.g.A j.r k.G.g.D h.1.",
"f.f.>.3.1.b.M 0 % n.k.g.h.M.h.n.m.w.1.3.| <.h.g., 1 r.F.q.s.u.e.$.v.g.Z C M M.d.v.j O r n.n.>.h.h.>.",
"h.<.v.>.M.f.k 0 7.f.h.C.g.d.N.N.x.x.>.h.V.V.h.z.d.n.F.w.5 ' 4.U  .>.d., r b k.z.h.A Z j.G.n.h.>.h.v.",
";.<.h.| k.f.g.g.f.z.d.J g J N.1.>.;.d.z.:.d.x.w.x.E @.e.( F...~ f.h.h.k | x.z.P.K.k.z.z.d.:.V.C.B -.",
",.<.n.x.M.z.g.l.d.z.t @ 9 l.v.3.,.;.h N % 9.m.m.I.R @.E.~ x r n.M.z.Z.v.N.M.H F b C d.,.=.:.A t 0 | ",
"1.3.x.1.M.f.d.g.g.l.>.M M.x.>.h.V.D D # 7.O.T.$.I.p.] F./ + M z.f.f.,.;.;.h.j.e 1 G C.h.b.b...2 M h.",
">.>.>.-.v.x.K.G.C.d.f.N.x.x.f.P.l.k.g.g.M.v.x.$.c.@.a 9.H.7.M.f.M.f.=.,.<.h.G.b 9.n.M.v.x.@.! w.M.b.",
"g.,.h.b.x.x.M.6.l 8 y M.O.!.k.f.z.f.h.v.h.:.v.z.7.6.M X.k.M.f.d.h.h.>.c.b.x.f.f.a.' @.e.w.E U a.x.>.",
"h.h.S :.p $.Y.r.r e x.T.c.w.x.k.k.H.v.=.Z.=.d w y L.k.n.f.x.n.z.A h.N.7.c.N.o.x.q.Y ] t.E.Y.q.m.x.<.",
"v.b.y o 0 m.&.) w.n.s.y.s.3 } x.x.f.D.h.h.d.e r f.z.v.>.h.>.y e > S.k.M.7.d.B.g.v.7.7.k.x r.m.x.1.v.",
"1.-.:.N f.m.&.T q.Y.' L s.0.X.N.v.| ..N d.K.6.z.f.>.<.<.<.:.y y <.<.c m O z.V.,.:.M.c , r 5.} O.>.<.",
"b.<.h.l.z.n.q.y.T _ w.E ..} I.%.1.$ % M z.z.d.D.f.>.7.z.f.k.S z.>.>.:.+ ..7.d.| i e.X.v n...4 w.x.v.",
",.:.-.S.d.X.E [ &.[ a.4 & M Y.5 Q M o.f.z.f.z.<.<.z.f.z.d.z.h.h.z.z.o.M.n.M.N.{ ^ e.n.r.H.m.e.c.x.<.",
"g.h.O.I.M.b.~ 0.r.m.i.I +.m.x.z 7.x.n.M.h.<.V.<.>.z.C c 2 g.z.=.z.A g.d.N.f N 1 n.7.c.$.` ! Y.c.1.h.",
"C.M.2.$.z.h.w.J.8.n.' I x.f.f.G.N.f.| >.<.=.:.h.M.z.c r c f.M.z.f.f.P.d.M.M & m k.f.v.c.+.P w.m.x.v.",
"<.f.b.x.h h m f.z.z.7.0.k.d.z.>.>.D.D.h.d.h.f.z.o.f.o.v.b.h.d.6.n.d.d.N M v.f.K.f.M.h.d.N.c.N.o.f.>.",
"3.| x.f.; q C z.g.z.6.c t h M.f.>.v.<.-.v.z.M M 2 >.v.>.h.h.k.6.k.f.: . M G.f.f.v.z.d.M.f.M d & >.<.",
"1.>.>.h.z.h.<.<.h.v.6.2 y 6.z.>.v.>.Z.>.<.h.C 1 ..:.v.d.-.f.z.f.f.f.B B x.v.D.>.>.>.=.f.n.c 2 V f.h.",
"<.3.f.x.1.h.1.<.<.f.n.6.j.k.h.z.>.o.v.>.<.Z.j.8.f.d.z.f.-.h.v.f.h.b.M.f.v.d.v.>.>.v.f.v.M.f.H G.x.h."
};
