/* XPM */
static char *result[] = {
/* columns rows colors chars-per-pixel */
"50 50 217 2 ",
"   c #030402",
".  c #080401",
"X  c #070904",
"o  c #0A0B06",
"O  c #0B0D09",
"+  c #160A03",
"@  c #0D1206",
"#  c #0F1B05",
"$  c #0E110A",
"%  c #131406",
"&  c #11140C",
"*  c #171A09",
"=  c #141A0C",
"-  c #141512",
";  c #161912",
":  c #1A1D15",
">  c #1C1E1A",
",  c #270501",
"<  c #3A0502",
"1  c #241708",
"2  c #361407",
"3  c #1A220C",
"4  c #1E2B0C",
"5  c #1D2215",
"6  c #1F2B10",
"7  c #1E2119",
"8  c #20270F",
"9  c #222C0E",
"0  c #2A3A0D",
"q  c #212C12",
"w  c #21241C",
"e  c #262B1C",
"r  c #242A1E",
"t  c #253412",
"y  c #2B3C14",
"u  c #293418",
"i  c #242522",
"p  c #262923",
"a  c #292C25",
"s  c #2C2D2A",
"d  c #2E3124",
"f  c #2E312B",
"g  c #31342D",
"h  c #373C2B",
"j  c #353A2C",
"k  c #343533",
"l  c #363933",
"z  c #3A3C34",
"x  c #3B3C3B",
"c  c #460902",
"v  c #5B0C04",
"b  c #571106",
"n  c #670F05",
"m  c #790702",
"M  c #2E4315",
"N  c #33451A",
"B  c #374A18",
"V  c #3D551D",
"C  c #3B5818",
"Z  c #3E6218",
"A  c #394D20",
"S  c #3E4133",
"D  c #3F423A",
"F  c #43581A",
"G  c #515F17",
"H  c #45631F",
"J  c #4D7512",
"K  c #465C22",
"L  c #42463D",
"P  c #464B3B",
"I  c #505731",
"U  c #466322",
"Y  c #4B6C23",
"T  c #556725",
"R  c #4E7325",
"E  c #587628",
"W  c #557731",
"Q  c #666E25",
"!  c #667D2B",
"~  c #444543",
"^  c #464A42",
"/  c #494C45",
"(  c #4C4D49",
")  c #4E5149",
"_  c #545944",
"`  c #52544E",
"'  c #545553",
"]  c #565953",
"[  c #5C5E57",
"{  c #5B5C5A",
"}  c #5F615B",
"|  c #60634F",
" . c #62645E",
".. c #636462",
"X. c #666964",
"o. c #6A6C67",
"O. c #6C6D6A",
"+. c #6D706A",
"@. c #71726F",
"#. c #747573",
"$. c #777A75",
"%. c #7B7C7B",
"&. c #8C0702",
"*. c #940401",
"=. c #9C0301",
"-. c #A60100",
";. c #578519",
":. c #5A9918",
">. c #64971C",
",. c #629C1D",
"<. c #77991E",
"1. c #5DA11E",
"2. c #66A51F",
"3. c #5D862A",
"4. c #5E9C22",
"5. c #5F9D2D",
"6. c #5D8D31",
"7. c #65882D",
"8. c #74802F",
"9. c #669C26",
"0. c #739C22",
"q. c #799B2A",
"w. c #668B32",
"e. c #699732",
"r. c #739635",
"t. c #5EA423",
"y. c #63A323",
"u. c #6BA424",
"i. c #69A825",
"p. c #65A42B",
"a. c #6BA42A",
"s. c #66AA29",
"d. c #6CAC2C",
"f. c #79A528",
"g. c #73AC2C",
"h. c #6BB32D",
"j. c #73B22E",
"k. c #6DA734",
"l. c #74AD33",
"z. c #79A838",
"x. c #73B332",
"c. c #7BB435",
"v. c #75B937",
"b. c #7CBA35",
"n. c #7BB43B",
"m. c #7CBC3B",
"M. c #7EC139",
"N. c #78B342",
"B. c #7F807E",
"V. c #7EC544",
"C. c #889A25",
"Z. c #849D2A",
"A. c #919222",
"S. c #84A42D",
"D. c #89A22C",
"F. c #95A22F",
"G. c #84AC33",
"H. c #8AAB32",
"J. c #8BA836",
"K. c #95AB38",
"L. c #83B435",
"P. c #87B934",
"I. c #84B43C",
"U. c #89B23D",
"Y. c #84BD3C",
"T. c #8CBD3C",
"R. c #93B43C",
"E. c #99B53C",
"W. c #93BB3D",
"Q. c #A3AB3C",
"!. c #81C537",
"~. c #85C33D",
"^. c #8BC43D",
"/. c #85CA3C",
"(. c #8CC93E",
"). c #91C43D",
"_. c #93C93E",
"`. c #87B646",
"'. c #84BD43",
"]. c #8CBC42",
"[. c #9CB642",
"{. c #94BD42",
"}. c #97BA47",
"|. c #9BBC43",
" X c #A4BB46",
".X c #80807F",
"XX c #85C442",
"oX c #8CC543",
"OX c #85C943",
"+X c #8CC943",
"@X c #8CC549",
"#X c #86C849",
"$X c #8DCB4A",
"%X c #92C443",
"&X c #9BC344",
"*X c #93CB44",
"=X c #99CA45",
"-X c #93C54A",
";X c #9BC44A",
":X c #94CC4B",
">X c #9BCB4B",
",X c #8BD046",
"<X c #8DD14B",
"1X c #93D14B",
"2X c #9CD24C",
"3X c #94CD51",
"4X c #9CCB53",
"5X c #95D252",
"6X c #9BD252",
"7X c #A2C547",
"8X c #A2C34C",
"9X c #A3CB54",
"0X c #A2D250",
"qX c #848483",
"wX c #878885",
"eX c #8A8A8A",
"rX c gray57",
/* pixels */
").*X~.$XOX<X=X^._.(.(.!./.,XXX$X:XoX%X*X^.^.=X^.(.+X~.~.Y.7.V M V 6.v.OXOX+X*X+X%XP.%X%X=X^.~.*X*X(.",
"=XY.:X~.$Xj.oX*X^._._./.,XOX$XXX~.*X2X~.$X^.1X:X+X+Xc.R q o , , + + # Y V.+X!.^.oX*X=X^.^.:X*X$X1X+X",
"=X*X^.g.u.u.Y.*X+X=X_.^.(.oXXXXXb.OX+Xb.$XOX=X%X^.Y.U + c n &.*.&.m c % E ^.0X_.).).^.*XoXXXv.m.+X~.",
"/.1XoXY.u.XX~.+X(.(._.%X).^.g.,.j.$XOX/./.+XoX).2X3.% v -.-.-.-.-.-.-., y l._.)._.^.(.+Xj.t.s.#X+X%X",
"OX~.*X+X+X+XOXOX/.M.+X).*X%Xl.g.~.:X+X*XoX*X=XL.L.9 , *.-.-.*.-.-.-.&.O t XX/.OX/.(.$X~.b.j.Y.@X*X_.",
"<X/.:X+X*X$XOX<X+X~.*X).%X{.oX0X>X=X@XoXT.G.{.f.J o n -.m 1 O 2 *.*.+ 3 k.v.v.t.OXOX+XoX:X@X>X^.=X_.",
"(.+X*X%X^.6X+XOXoX+XoX;X|.G.U.{.{.%X&X&Xq.F N T M + *.m 1 N 7.M v b . 7.oXY.:.g.XX#X:X-X@XT.;X2X~.P.",
"*X/.P.g.g.:X+XoX~.+XL.&X|.f.W.}.&XoXc.;XK w d 9 X b =.< N n.c.y + +   r.%XY.@X+X@X:XoX@X*X:X:X@X*X~.",
"~.~.2.:.m.1X~.XXi.:.b.5XoX;X8XT.y.1.c.%XT h I & % *.m 1 F K M : D f X e.$X1X%X).*X).%X:X<XN.v.p.~.(.",
":XXXb.OX<X~.+XoXi.b.V.Y.-X%XG.&Xs.x.^.{.! a / $ v -.v X X     X 7 5 $ 6.^.^._.%XW.7X>X%X:Xx.4.h.$X+X",
"oX:X+X+XoX:X6X%X-X].3X:X:XL.<.7X*X:XE.S.7.w P ; m v o : ) +.@.D - X X o E ^.oXW.&XW.H.f.%X-Xc.:XXXOX",
"-X:X:XoXoX%X{.{.3X@X$XY.c.%XW.W.@X=XH.Z.E ; _ 7 c o a $.eXeXeXeXB.] P k 3 3.T.;X%XW.W.G.{.;X=X*X@Xm.",
"$X$XXX*X:X%X=X:X'.@Xs.4.v.:X=X&X*X*XU.E * ; I w o X f X.wXeX#.} $.eXeXB.f 6 N.'.@XXX:X%X(.+X*Xg.k.5.",
"N.x.a.oX%XoX2Xc.$X#Xd.l.@X~.!.*X%Xr.N % < % _ f   o : 7 O.eXf 7 f ) %.eXX.& N a.1X$XXXoX*X^.(.b.s.N.",
"v.4.a.{.{.G.u.>.'.#X$X#XoX+X*XP.T % + < , X h :   x [ : ( ] X p a ; $ S D $ o u.~.*X:X=X=XY.^.*X$X#X",
"XX'.4XS.q.H.0.T.3X].-X4XoX].e.4                   l ` & x 7 o $ 7 f a 5 = $   e.*X/.=X^.^.=XoX^.(.(.",
"$X@X;XW.E.7XW.=X|.S.[.9X'.U 3 @ & w o : ; O o O   O 7 : -   l / 7 : 3 > > ; & z.+X~.*X^._.*X^.*X*X+X",
"'.;X7XK.S.|.7XE.[.D.U.{.].W R M - 7 & } o.( &     $ ] ..> : ] f ^ f f s s : $ I.~.+X(.*X*XP.+X+X*X*X",
"E.H.K.R.D.E.[.&X}.W.*XoXV.4.M & O - O ( eXqX` - i X ~ X.; ~ ) p z r z L ( f & g.!._./.v.x.v.:X-X*X(.",
"E.Z.E.;XR.J.Z.E.;X=X$X~.y.Z X i k x r r rXeXqXa p s O ( D - D { l l ; z 7 ; q T.).(.OX1.4.n.@XoXoX(.",
"0XT.f.9.g.%X].[.|.7X).).L.B i x x x p   p j ^ r : %.s X s 7   - g ~ z ' p $ G [.=XoXXXb.'.$X:X$X(.*X",
"^.*X2.d.@X:X;XU.<.&X|.{.4XN p x k w : O X X O & & l X.~ i O & X   X % - o 3 Q J.-X2X-X;X6X@XXXm.oX(.",
"%X3X~.:X=XP.T.@XY.#X].].[.u ; i : o X X l i 7 ) ' i i ( ....' ( / / $ s z 3 E R.E.8X|.].XXl.k.9.oX(.",
"-X@X3X+X).0X%X+Xv.s.,.;XJ.8   O & O   % .X..7 l ....x ; i L ..O.#.[ O } %.s q I.C.Z.W.%X2Xv.p.Y.oX^.",
"-X-X+X~.:X_.).=Xb.u.U.}.r.q > @.$.(   o eXeX} ; 7 { +.{ z - o O O X o $.eX' O 8.R.E. X].oX-X5XoX+X_.",
"$X].*X<X*X~.%X%X@X%X8XH.S.Q O x qX#.i   l %.eXo.7 X k [ O.O.' ) L - O qXeXo.- F ).;X[.0.I.-X%X(.oX(.",
"XX1Xb.M.y.+XoXoX^.).%XP.{.|.T - x #./ i   D qXeX%./ 7 $ p x ~ ~ l $   ] eXo.: B J.! W ! I.%X^.=X_._.",
"~.+Xx.:.d.XX+X+X^._.=X^.%X|.F.G - ~ %.O.7 7 #.eXeXeXX.p f p 7 i p o   k X.k o V 3 X & 3 Y ;X%XT.^.+X",
"(.^.!.j.<X+X@X).^.)._.).^.;X;XG.N s %.eX^ ; +.eXeXeX .D #.$.$.#.^ o X @ ; @ V C   O l ~ $ 3.n.oX%X(.",
"_.(.(.2XXX$X+XoX=X).).).Y.^.oXi.Z & ( ] 5 p %.eXeXqX^ ) wXeXeXo.; & s 5 & y z.U   o ( #.O 0 9.@X+X+X",
"+X~._.).^.(.,X(.~.:X:X+X~.<XOX2.3.=       ^ #.%.$.o.7 } eXeX@.;   ; x x 7 $ : X i > { ..o R #X#X+X^.",
"~.oX)._.2X_.!.,XY.~.XX$X+XOX(.~.E O       - 7 5 : 7 7 ` .X..- 3 y $ g k : X - ..%.i i > A $XOX/.+X+X",
"+X+X^._.^.>Xc.u.>.%X#XOX$X*X*X].B d z e X ; g L ' [ ' s L ; 1 ! q.4 r x g > : qX' & # M N.-XoXoX~.^.",
"(.oX*X^.:X%Xc.2.].].#X<XOX~.>X`.5 S | _ L : % : f L ) f o & 8.Z.U.F $ f a &   ( : R e.N.-X-X+X~.*X*X",
"/./.*XP.@XXXOXOXoX$XOXV.h.XX>X7.  X O o * e e 5 o   X     K J.L.@Xz.#     $ X O W #X#X:XY.~.<X<Xb.~.",
"/.+X%XoX:X+XOX<XOX$Xs.:.t.k.R 9 : } ..L 5   o : h P P d o B a.@X$X$Xz.V W N.Y R l.n.XX~.~.~.m.s.i.P.",
"(._.).%X*XXXXX#XOX#X].c.r.6   o ' #...( w o   &   e P S q ;.c.@X%XoX/././.(.#Xp.9.n.<X+X=X=XG.9.c.+X",
"^.^.).^.=X%X5X$X<XOX].`.N i X $ k > O ; > : @ S o d / w q I.1XoX:XoX!./.(.+X3Xl.`.-X:X:X%XW.H.}.%X=X",
"~.+X+X=X%X%X:X'.k.s.a.3.: x X ; >   : l x s O g X i B.( q ].oXoXOX/.^.=X=X&XXX].8XK.K.|.{.S.Z.8X%X*X",
"OXOXM.!.f.W.8X-Xa.s.N.3 k #.i X O   o s x k $ $ : O ] x t ].@X+Xm.$X>XW.%X;XY.*X[.Z.[.}.8X8X[.7X%X^.",
"_.=Xg.:.u.}.Q.F.].;XT . ( .X> N = o   o l l - O k & p p U Y.d.y.2.1X@X:X'.XX,XOX:XT.].@Xz.}.;XW.^.+X",
").^.!.v.XX XQ.A.E.8XQ % O > o J.Y.E 3   k k -   O X $ 5 7.XXd.s._.^.x.l.:.$X,X/.^.:Xl.4.9.].L.T.).+X",
"=X(.+X#X:X-X X[.A.K.[.E V y T K.T.J # o i - @ N C U t V n.+XM.$XoX~.~.:.I.'.+Xc.f.|.U.c.-XL.0.&X*X_.",
"~./.~.1XoXU.S.K.[.K. Xq.;.q.}.q.0.M 5 r 5   t k.'.XXr.`.'.$XoX+X+X+XY.:X-X>X>XL.H.[.;X%X4X;X|.&X%X(.",
"OX+XP.7X1X=XG.}.}.;X XA.W.:X%Xz.r.t X.eXl   4 H ~.#Xn.l.p.oXoX/.$XY.XXXX>Xg.c.,.-X].&XW.K.H.7X&X).+X",
"<X1X&XW.$X+X].9XV.}.K.C.W.oXoX:Xw.7 #.eX/ 5 & X e.@Xl.a.l.oX:X*X@X$X5XOX:Xc.2.x.#XoX+X=XK.Z.{.&X%X*X",
"(.~.&X^.j.s.l.oX$X$X].{.@XXX*XY.V k +.$.#.o.) @ Y %X^.@X*X+XXX'.:X'.XXv.c.-XoX5X@X:X+XoX;X=X:XY.oX(.",
"_.T.%X@X1.s.m.#X#X3X'.l.d.d.$XoXY 3 5 7 7 7 & X C ~.=X^.*XoX$X'.oX+X1.:.c.:XoXoX*X*X~.$X%Xc.g.,.^.^.",
"_.^.%XoX+X+X^.+X+X:XXXu.a.'.+XoXI.e.7.R H H V Z k.Y.:XoX^.oXoXoX@XoXb.b.*X@X2X^.^.^.~.~.:Xc.i.v.%X+X",
"_.^.oX+X+X(.(._.^.^.@X'.@X$X+XoX~.Y._.^.(.oX`.'.XXXX+XoX~.(.*XoX+X*X*X%X*X^.=X~.(.*X^.@X:XoXN.3X+XoX"
};
