/* XPM */
static char *result[] = {
/* columns rows colors chars-per-pixel */
"50 50 241 2 ",
"   c #0C0501",
".  c #0B0A06",
"X  c #160A00",
"o  c #0F1009",
"O  c #14140D",
"+  c #151A0C",
"@  c #1A1A0D",
"#  c #161710",
"$  c #171811",
"%  c #1B1C14",
"&  c #1D1C18",
"*  c #231202",
"=  c #2A1906",
"-  c #341C02",
";  c #311F0C",
":  c #1A220E",
">  c #1D2214",
",  c #1F2119",
"<  c #2B210E",
"1  c #382308",
"2  c #272316",
"3  c #232A14",
"4  c #23241C",
"5  c #262A1C",
"6  c #2B2B1E",
"7  c #382B16",
"8  c #2B3419",
"9  c #3C3519",
"0  c #272821",
"q  c #2B2C23",
"w  c #2E3124",
"e  c #2F3029",
"r  c #343827",
"t  c #33342B",
"y  c #3A3B2D",
"u  c #373831",
"i  c #3D3E33",
"p  c #482905",
"a  c #542D06",
"s  c #5C3704",
"d  c #453617",
"f  c #533B13",
"g  c #663B07",
"h  c #433923",
"j  c #39471C",
"k  c #3A501E",
"l  c #3A4727",
"z  c #3E5623",
"x  c #3D4134",
"c  c #3F4038",
"v  c #54471C",
"b  c #6B4609",
"n  c #754802",
"m  c #6C4C13",
"M  c #497817",
"N  c #484A2B",
"B  c #5A4A28",
"V  c #455626",
"C  c #454737",
"Z  c #44453C",
"A  c #4B4B3C",
"S  c #495735",
"D  c #55553C",
"F  c #645732",
"G  c #4C652B",
"H  c #58672E",
"J  c #4B7623",
"K  c #57772D",
"L  c #4E6432",
"P  c #576837",
"I  c #5C7736",
"U  c #67762A",
"Y  c #647A36",
"T  c #474941",
"R  c #4C4D43",
"E  c #535445",
"W  c #575745",
"Q  c #5D5B4B",
"!  c #5C5C53",
"~  c #635941",
"^  c #605D4D",
"/  c #635F52",
"(  c #5D6849",
")  c #5D694A",
"_  c #63644D",
"`  c #656A4A",
"'  c #766C4B",
"]  c #687B46",
"[  c #646353",
"{  c #686755",
"}  c #6C6B55",
"|  c #6B6B5C",
" . c #716E56",
".. c #6C7557",
"X. c #74735C",
"o. c #76785A",
"O. c #7B7A5C",
"+. c #6E7261",
"@. c #747363",
"#. c #777963",
"$. c #7C7A65",
"%. c #7C7C6A",
"&. c #945806",
"*. c #B24B03",
"=. c #976503",
"-. c #A26B01",
";. c #B66708",
":. c #A87208",
">. c #B47605",
",. c #C07C04",
"<. c #81734A",
"1. c #857B57",
"2. c #837F61",
"3. c #58970D",
"4. c #54881E",
"5. c #5C9C18",
"6. c #659D18",
"7. c #789E1A",
"8. c #5CA21B",
"9. c #62A41A",
"0. c #6AA51D",
"q. c #7AA21F",
"w. c #588428",
"e. c #5F9F28",
"r. c #5D8334",
"t. c #68852E",
"y. c #6E932C",
"u. c #678735",
"i. c #6A9436",
"p. c #6C9838",
"a. c #76993B",
"s. c #5FA920",
"d. c #6BA424",
"f. c #68A925",
"g. c #76A928",
"h. c #73AE2A",
"j. c #62B329",
"k. c #6CB22B",
"l. c #78B22B",
"z. c #6FA73A",
"x. c #79A63B",
"c. c #7CB433",
"v. c #7CBB33",
"b. c #78B837",
"n. c #7EC236",
"m. c #6B8544",
"M. c #75934D",
"N. c #769948",
"B. c #768659",
"V. c #7CA543",
"C. c #79A645",
"Z. c #7CB543",
"A. c #7C8667",
"S. c #7F8370",
"D. c #7FC442",
"F. c #8D961E",
"G. c #808A2C",
"H. c #859D23",
"J. c #8A9934",
"K. c #88A82B",
"L. c #96A32C",
"P. c #87B72E",
"I. c #85AB38",
"U. c #93AB35",
"Y. c #85B636",
"T. c #84BD3C",
"R. c #8BBD3C",
"E. c #96B639",
"W. c #93BB3C",
"Q. c #A2AB37",
"!. c #A4B53E",
"~. c #C68604",
"^. c #D28D00",
"/. c #E89C01",
"(. c #EEA101",
"). c #F2A300",
"_. c #FCAB00",
"`. c #84C435",
"'. c #8BC336",
"]. c #85C43C",
"[. c #8CC53C",
"{. c #85CA3C",
"}. c #8CCA3D",
"|. c #92C53C",
" X c #98C63B",
".X c #92CA3D",
"XX c #898F53",
"oX c #83AA44",
"OX c #84BC41",
"+X c #8BBD43",
"@X c #88BB4A",
"#X c #94BE43",
"$X c #9CBC42",
"%X c #96BB49",
"&X c #8DA855",
"*X c #848463",
"=X c #8A8766",
"-X c #84836C",
";X c #8C8B6B",
":X c #948A64",
">X c #8F956F",
",X c #858573",
"<X c #898A77",
"1X c #8C8B74",
"2X c #918E77",
"3X c #939379",
"4X c #979878",
"5X c #85C442",
"6X c #8CC443",
"7X c #86CA42",
"8X c #8CCB43",
"9X c #8CC749",
"0X c #8DCC4B",
"qX c #93C543",
"wX c #9AC445",
"eX c #93CB43",
"rX c #9BCC46",
"tX c #93C54C",
"yX c #9CC54A",
"uX c #94CC4B",
"iX c #9ACC4B",
"pX c #8DD144",
"aX c #8CD14B",
"sX c #96D145",
"dX c #94D14B",
"fX c #9AD14C",
"gX c #8DCA50",
"hX c #97CF52",
"jX c #96D352",
"kX c #A3C34A",
"lX c #A1D24A",
"zX c #8D9181",
"xX c #989984",
"cX c #9BA087",
"vX c #A4A286",
"bX c #A5A48A",
"nX c #A8A98D",
"mX c #A6AB95",
"MX c #ABB591",
"NX c #B8BBA6",
"BX c #BDC3AB",
/* pixels */
"|..X{.8X7XaXuX[..X.X.X`.n.pX7X0XeX6XeXeX[..XrX].}.8X{.}.8X}.[.8X7XaX{.7X7XpXpX8XeXY.|.qXeX'.'.eXpX.X",
"rX'.uX].0Xh.[.eX'..X.X}.{.pX8X8X].eXfX[.pX[.sXuXeX}.7Xn.}.rXeX[.Y.v.8.{.8XpX'.'.}..XrX'.[.uXpXrXpX}.",
"rX.X6Xl.d.0.'.eXeX.X.X'.}.}.6X[.v.pX8Xv.7Xp.I N r w t N oX|.eXyXI.3.l.}.8X|.lX.X'..X|..X[.5Xb.b.eX}.",
"].sX.XY.d.T.[.8X}.}..X|..X}.d.9.k.8Xv.r.S x u t t w x y V.rXqXqX+XtXqXuX|.`..X.X X'..X8Xl.9.j.7X8X.X",
"}.{.eXC.G u.Z.pX{.`..X.XqXqXh.h.T.a.S c x u w w w w c y C.}..XeX.XwXuXY.8XaXn.5X}.}.8X].Y.h.T.8X|.|.",
"pX{.eX+XV , G 7X7X`.eX|.qXqX[.%XI C Z u q 5 q q w w T y i.{.[.eXkXW.qX[.5Xw.z J D.7X8X9XdX8XiX|.eXeX",
"8X}.eX}.K $ > p.8XeX|.wXwXK.x.H C u 4 % > % 4 5 q w R u p.8X[.P. XE.W.qXa.r 3 w.7X0X8XeXqXY.iXfX'.'.",
"eX].P.d.k + > r.].qXY.tX$Xq.Y x q $ O O + + # % 5 q R t i.{.8XsXW.7.P.qXt.3 8 u.6XuX[.tXeXuXuXqXqX[.",
"}.].0.M > % 3 w.f.3.v.fX6Xa.N 0 $ + @ % # O + $ $ 5 R t I gX6X8X8X].uXT.t.5 > V I.|.eXuX0XZ.b.s.`.}.",
"0X].l.z $ % 3 u.f.v.].].@XK 5 , 5 y A A r 4 # $ + > R t N u.a.b.jXk.{.0Xi.8 $ 5 t.wXrX8XuXk.8.k.0X}.",
"eXuXp.> 4 4 r x.tX6XhX0XC.l 8 P O.-X=X*XO.W q + O + T t A | ` Y 4.s.7X7Xz.V $ $ V I.U.q.qXqXY.uX8X0X",
"tX0XV % 5 5 l V.uX9X0Xx.Y ` B.:X;X;X;X=X=X*X` 5 O + i t Q 2X,X%.( u.5X{.OXG % + 5 t.R.K.#X%XrX.X9Xb.",
"hX0X8 q y y C m.a.Z.e.K #.xX>X;X;X4X3X;X;X=X*X_ % O i t Q 3X<X<X,X..N.x.p.S , $ % I 9XeX+Xu.V.f.f.e.",
"Z.k.> t C y t C S S V S %.,X=X>X4XvXxX1X;X;X=X*XA O u e Q <X1X<X<X,X( S x w 4 $ : u.].[.9XK ( i.f.Z.",
"b.5.j 4 w w w y t 4 0 e i W *X4XvXnXvX2X%.-X=X*X .3 q w W 3X2X1X,X<X| 0 , $ @ $ 8 x.uXrXrXI { ( C.aX",
"D.].V.8 % 4 q q 5 % 4 4 % w o.4XnXnXnXvX;X$.$.*X*XC 4 q Q 3X1X,X%.,X+.e $ + o > r.Y.rX'.qXr.S...L ].",
"0X9X$Xi.j % % % # O % , $ q  .vXnXnXnXbX4X:X1.*X*X_ 2 5 Q 2X<X,X$.2.@.u o # 3 K OX].eX'.eXI 2X<XD p.",
"R.yXkXU.t.U l > o O O # O i 2.vXbXbXbXbXnX4X=X*X*XO.w , [ 2X2X,X@.@.@.h > l y.6X].}.}.eX9XP cXxX{ G ",
"$XK.U.E.L.U.J.Y V 2 6 2 e _ 3XvXvXnXbXvX4X4X4X:X*X*XA , | 2X1X,X$.2.$.W P oX|.'.'..X{.v.f.) mXcX-Xl ",
"!.H.E.$XW.U.H.E.oXP ] _  .*X4X4X2.<.1.1.:X:X4X4X4X;XO.E 2.2X:X1.' ~ D D U $X X X X'.{.s.J S.BXnX3Xe ",
"fXR.g.6.g.tX#XE.oXO.1XO.1.-X;XD < 2 = 7 d d d B ' :XzX2.<X1.B d d - < l U $XL.$XsX}.9Xc.I mXNXnXcXy ",
"}.eX0.h.8XiXtXI.U 2.<XO.$.=X2.h X * s -.>.=.s 1 - f :X2X;XF ; n =.n ; 9 u.#XH.U.tXuX#XoX..NXNXMXxXr ",
"qXhX].uXeXP.].6XN.A.,Xo.O.2.1.9 X n ^.)._.).,.b a 1 B :X1.7 a >.(.~.g d Y wXR.#XE.kX#Xu.>XBXMXbX,Xl ",
"tX9XdXqX|.lX|.8Xp.o.-X .X.2.2.h - -.)._._._.(.&.g g p / F p n ^._.^.m N u.qXeXwXH.L.I.m.cXNXmXcX..G ",
"tXtX8X`.fX|.|.wXp.#.S.}  .o.:XB = n ^._._._./.&.g g g h 7 a g ,./.>.d D M.c.qX XE.W.N.4XMXMXxX4XE i.",
"qX6XeXpXeX}.qX|.Z.o.%.{ } X.=X .2 * s =.;.&.&.a a g g a p a a g b p 9 _ I d.K.K. XyX>XmXMXcX3X-XS OX",
"[.pXv.n.0.8X6X8XoXA.$.[ { } $.,X' d - * * - ; h d p a p p p - ; d B ' $.m.b.I.I.wXW.N.4XcX<X<X[ u.}.",
"{.}.v.3.k.5X8X}.I.O.@.^ W Q } 2.;X:X1.<.<.' 1.%.2 - - - - - * q } $.2.A.XXuX+Xg.y.i.B.xX3XS.%.S I.8X",
"}.}.n.l.0X7X9X|.I.B.| Q E D ^ X.-X-X,X-X2.2.@.@.X * * * X X X & ! | 2.-X&XqX9Xi.B.<XxX,X+.! ( m.qX}.",
".X}.}.dX].eX}.|.qXB.[ ^ ^ ^ ^ [ @.%.2.$.| ^ | ! . X X X X X X X R | %.%.&X9XC.A.zXxXzX| W c L Z.8X6X",
"}.}. X X'.}.pX}.].N._ ^ ^ ^ ^ Q / { { / ^ ^ @.T .   X     X   . t | @.A.>X@XM.zXxXxX%.| E I Z.0X}.}.",
"].}.'. XlX.X`.pX[.oXm. .{ [ / ^ ^ Q ^ Q ! ! @.e               . 0 [ } A.@X@XA.zXzX<X@.! ] 9X7Xn.8X|.",
"8XeX'..X'.rXc.0.6.wX9XC.M.B...| / ~ ^ Q Q ! | &             O < j ( O.N.b.c.C.S.<X@.E I &XtX[.}..X[.",
"}.}.eX}.eXqXl.d.R.[.8XaX5Xx.N.) E B D Q Q E E o . .   . . @ H U a.] C.8.f.c.C.A.%.! L Z.0XtX}.{.pXpX",
"{.{..XY.9X8X7X8X6X8X5XD.j.D.9XP d d 7 T h u e & @ + o 4 e 6 a.Y.6X+X0Xl.x.oXN.+.[ ( ] @X[.].pXaXv.'.",
"{.}.qXqXuX8X7XpX8X0Xj.3.s.OXN.P A 0 & ! E 0 2 f m m 7 0 ! i I @XuX9XsX[.i.S S E D r.z.{.`.{.v.f.0.Y.",
".X.X.XqXeX6X5X7X7X9X[.c.uXN.P #.| h u | $.u d :.;.>.&.9 +.E ` M.oX+X}.v.G > & > l z.aX}.rXrXY.6.c.}.",
".X'..X'.rXqXjX0XaX5X[.iXI.Y _ X.! R E @.,XT g ,.*.;.,.d | ! ~ F B I p.p.L 5 O + V V.iXuX.XE.K.%XqXrX",
"{.{.}..X.X.XyX5Xj.f.h.R.U v F F E ^ / 2.1XQ f ;.*.;.>.d / / f f < 8 l x r 5 l K oXJ.E.$X$XK.H.kXqX.X",
"}.}.`.{.g.E.kXtXd.f.%XI.V 1 9 p h ! | $.1X| e b &.&.m 0 / / f < % 0 4 $ O 3 K +X!.H.U.kX%XkX$XkXqX}.",
" XsXk.3.0.kXQ.L.#XtX$XF 2 4 , 2 u E Q { $.| e 6 d d 5 , A A V k 5 5 , & O : r.n.eX|.@XtXg.%XyXW.|.}.",
" X'.`.b.[.kXQ.F.E.$XU 6 q w 0 0 t Z R E Q Q t 0 0 t 5 0 u C ) w.G , 4 , O l z.7X].uXh.6.d.+XY.'..X}.",
".X}.8X8X9XwX!.!.F.J.N 2 w w 0 q i T Z Z T T Z t t Z q 0 x W A.C.p.l & $ 8 i.].P.K.$XY.c.tXY.7.#XqX.X",
"{.{.].dX[.R.J.U.Q.J.V # % 4 % q E _ E E i i P 0 % 0 , 2 B A } B.m.l 8 I x.9XiXY.K.E.wXwXlXwX$XwXqX}.",
"7X0XP.kXsXrXI.$XtX%XG.d 3 > : w E [ Q A 9 N N.j & 4 0 $ 1 B ' B.] r K b.iXg.c.9.qX6XrXW.U.L.kXwXqX.X",
"aXsX X XeX}.6XhX+XtXL.y.J.i.i.L 6 t x 5 < v x.K % 4 4 o # 8 H @XC.p.gX7XuXl.9.l.8X6XqXwXU.H.W.rXqX|.",
"}.}.kX'.k.j.l.6X0X0X+XW.9X5XOXV O O % $ % w V.V.@ # # . $ , S C.uXb.D.n.c.eX6XjX9XuX8X[.wXwXiX[.}.}.",
"|.'.|.6X8.f.v.uX7X0X+Xh.f.k.p.8 . + % , 4 t i.p.+ . O % , 5 w G 9X6X8.3.v.iX8X6XqXeX[.pX6XY.h.5.[.}.",
".X[.|.8X8X8X}.}.6XeX5Xd.f.T.a.8 . o , 5 5 & J w.: . o > , , $ k +X6Xv.v.qXqXfX[.}.[.`.[.uXh.d.b.[.}.",
"}.|.}.|.}.|..X}.}.}.tXOX9X8X6Xp.z > + o o + I Z.G > + + > k K x.6XeXeXeXeX}.eX'..X.X}.qXuX9XOXhX8X}."
};
