/* XPM */
static char *result[] = {
/* columns rows colors chars-per-pixel */
"50 50 228 2 ",
"   c #030402",
".  c #0A0201",
"X  c #070904",
"o  c #0A0C05",
"O  c #0C0E09",
"+  c #160A03",
"@  c #0E1206",
"#  c #0E110A",
"$  c #141306",
"%  c #11150C",
"&  c #141C0B",
"*  c #1A1808",
"=  c #141612",
"-  c #161A12",
";  c #191D13",
":  c #1B1D1A",
">  c #260A04",
",  c #370B03",
"<  c #251B09",
"1  c #341206",
"2  c #162309",
"3  c #1A240C",
"4  c #1E2C0E",
"5  c #1D2314",
"6  c #1D2C10",
"7  c #1E2219",
"8  c #242C0E",
"9  c #282F0B",
"0  c #24360C",
"q  c #222D11",
"w  c #21251C",
"e  c #24291C",
"r  c #292C1E",
"t  c #253312",
"y  c #2C3B14",
"u  c #293818",
"i  c #323D17",
"p  c #252622",
"a  c #262A23",
"s  c #292D25",
"d  c #2C2D2A",
"f  c #2E3125",
"g  c #2F312C",
"h  c #313427",
"j  c #31342D",
"k  c #35392B",
"l  c #3A3D2D",
"z  c #333433",
"x  c #363A33",
"c  c #383B33",
"v  c #3C3C3C",
"b  c #470802",
"n  c #5F0F05",
"m  c #4A1306",
"M  c #511206",
"N  c #650903",
"B  c #770A03",
"V  c #452E10",
"C  c #2E4315",
"Z  c #364817",
"A  c #344B1A",
"S  c #3D551D",
"D  c #3C591A",
"F  c #3B6318",
"G  c #39412B",
"H  c #3E4339",
"J  c #504216",
"K  c #465A1E",
"L  c #45651A",
"P  c #4D6D18",
"I  c #53781B",
"U  c #646B1D",
"Y  c #455B22",
"T  c #464936",
"R  c #41453B",
"E  c #44493D",
"W  c #4E513E",
"Q  c #51553F",
"!  c #496622",
"~  c #4C6C23",
"^  c #546D27",
"/  c #4F7627",
"(  c #587827",
")  c #697D29",
"_  c #4A4D45",
"`  c #4E5148",
"'  c #555948",
"]  c #535550",
"[  c #585A54",
"{  c #595B56",
"}  c #5D615A",
"|  c #61644E",
" . c #676A55",
".. c #61635E",
"X. c #71735D",
"o. c #636561",
"O. c #676965",
"+. c #6A6B67",
"@. c #6A6C69",
"#. c #6F706B",
"$. c #71726E",
"%. c #747473",
"&. c #777975",
"*. c #7C7D7B",
"=. c #870702",
"-. c #940501",
";. c #9C0301",
":. c #A40100",
">. c #A80100",
",. c #538719",
"<. c #5A9A18",
"1. c #65981A",
"2. c #629C1D",
"3. c #78951F",
"4. c #5DA11E",
"5. c #65A51F",
"6. c #5B8427",
"7. c #5D822E",
"8. c #5E9C24",
"9. c #5C8731",
"0. c #64852B",
"q. c #768C2C",
"w. c #679829",
"e. c #739C22",
"r. c #7C9A29",
"t. c #668C33",
"y. c #689734",
"u. c #6D9C33",
"i. c #759B35",
"p. c #5EA324",
"a. c #64A323",
"s. c #6BA423",
"d. c #66A629",
"f. c #6CA32B",
"g. c #66AA29",
"h. c #6BAC2C",
"j. c #7AA729",
"k. c #73AD2C",
"l. c #6BB32D",
"z. c #73B22E",
"x. c #6CAA32",
"c. c #75AD33",
"v. c #78A738",
"b. c #73B233",
"n. c #7BB334",
"m. c #7CBA35",
"M. c #7CB53B",
"N. c #75B838",
"B. c #7CBC3B",
"V. c #7EC23B",
"C. c #78AD43",
"Z. c #78B741",
"A. c #7F837A",
"S. c #7EC544",
"D. c #869B27",
"F. c #8C9831",
"G. c #86A42D",
"H. c #95A22F",
"J. c #85AB33",
"K. c #8AAB32",
"L. c #88A837",
"P. c #95A937",
"I. c #83B435",
"U. c #8DB335",
"Y. c #83BB36",
"T. c #84B43A",
"R. c #8BB43B",
"E. c #84BD3C",
"W. c #8CBD3C",
"Q. c #93B33C",
"!. c #99B63C",
"~. c #93BB3C",
"^. c #A3AB3C",
"/. c #81C637",
"(. c #85C43D",
"). c #8CC43D",
"_. c #85CA3D",
"`. c #8DC93E",
"'. c #91C43D",
"]. c #91C83E",
"[. c #86AE40",
"{. c #85B544",
"}. c #84BD42",
"|. c #8CBC42",
" X c #9AB745",
".X c #94BD43",
"XX c #9BBC43",
"oX c #A4BB47",
"OX c #80807F",
"+X c #85C442",
"@X c #8CC543",
"#X c #86CA43",
"$X c #8CC943",
"%X c #8CC549",
"&X c #87CA49",
"*X c #8DCB4A",
"=X c #92C443",
"-X c #9BC345",
";X c #92CB44",
":X c #99CA45",
">X c #94C64A",
",X c #9BC44A",
"<X c #93CB4B",
"1X c #9ACB4C",
"2X c #8BD046",
"3X c #8DD14A",
"4X c #93D14A",
"5X c #9BD14C",
"6X c #97CC52",
"7X c #95D352",
"8X c #9BD252",
"9X c #A1C24B",
"0X c #A2C548",
"qX c #A2CC53",
"wX c #A2D250",
"eX c #848483",
"rX c #888887",
"tX c #8A8A8A",
"yX c #999D97",
"uX c #9EA09C",
"iX c #A7A9A6",
"pX c #AFB1AF",
"aX c #B1B3AF",
"sX c #B7B8B6",
"dX c #CACACA",
"fX c #CFCFD0",
"gX c #D2D2D3",
"hX c #D7D7D8",
/* pixels */
"'.;X`.$X#X*X<X).].'.`././.2X#X*X<X@X@X;X).@X;X(.#X$X_.(.$X$X).$X+X*XV.Z.V.#X&X@X=XY.@X:X;X).W.4X;X`.",
":XE.<X(.&Xz.@X;X).].`.`._.2X$X&X(.;X1X).;X).1X:X;X$X@X/.@X<X=XT.w.K 2 $ & A w.(.@X:X;XW.).4X;X;X4X$X",
":X;X`.k.s.s.E.:X;X;X].).$X).@X+XN.$X$Xm.3X#X;X=X`.(.<X(.).v.7.i $ + , b , > & 0.'.'.).;X+X+XN.B.#X).",
"(.4X@XE.s.).+X#X`.`.].'.;X).f.2.z.$X#X_._.#X=X'.5XY.$XB.7.y $ , N =.:.:.:.=., & I.'.`.$Xb.p.g.%X;X@X",
"#X_.;X$X$X&X#X#X_./.@X=X=X=Xc.k.`.<X@X;X@X;X<XI.I.s.f.A $ 1 B ;.:.:.:.:.:.:.N . w.#X$X).m.k.E.@X`.).",
"3X_.<X;X;X*X#X2X2X(.;X'.-X=X|.8X5X=X=X=X~.I.1Xj.1.I 3 + N ;.:.>.;.-.:.:.:.:.N   y.#X&X&X<X>X<XW.:X:X",
"`.$X;X=X).8X$X#X#X=X=X-X-XJ.L.=X.X~.<X=XU.r.-XT.I o > =.:.:.;.M + + * M :.;., @ Z.*X<X>X@XW.<XwX).E.",
"$X(.Y.k.j.;X$X&X(.=Xn.-X.Xj..XXX>X@XI.,XXXQ.L.S + b -.:.-.N < t ! P Z . B B + Y $X<X}.<X>X<X<X@X@X`.",
"@X(.5.<.B.3X(.+Xs.<.m.4X=X>X9XW.5.4.m.=X-X0.y > N :.;.B , t ~ v.&XM.A X , , O w.'.'.=X<X*XZ.N.a.Y.`.",
"*X(.m.#X*X_.$X@Xh.m.+X}.>X=XJ.,Xg.b.|.T.^ ; 1 =.>.=.m < Y q.@XB.C.F X : 7 X 3 R.~.wX,X=X<Xb.p.x.3X#X",
"@X<X$X$X@X<XqX=X>X|.7X*X<XI.e.XX$X<Xq.8 o N :.=.m . Z i.H.q.( t o X   ` @.c u R.-X~.U.j.=X=Xn.<X&X$X",
">X<X<X@X=X=X|.=X>X%X*XE.n.=X!.U.0.y + 1 =.=.m $ q y.|.6XG.q   ; z z O d v = 6 [..X~.R.K..X1X1X;X%XM.",
"<X%X@X%X<X=X;X1X+X%Xg.<.B.%Xv.i * 1 M n V 9 C 0.}.&XN.x.t # ` A.tXtX@.d : w - t C.@X%X=X`.`.;Xk.d.8.",
"Z.b.f.@X=X=X1Xn.%X&Xx.x.&XM.( Z V J Y ~ L ,.h.*X@X#Xl.F % ` tXrXtXtXtXOX$.&.o.# Z }.+X@X;X(.`.m.x.Z.",
"N.w.s.@X.Xj.s.2.}.&X%X%X@X@X@XI.L.v.M.b.,.w.E.*X>Xv.y.C s OXrXtXtXtXtXtXtXtXrX] o ( <X:X;XW.).@X*X*X",
"+XZ.8XG.r.U.e.~.6X|.6X6X@X@X).Y.:X@X6.5 O & Y ~ q # # O ` rXtXtXtXtXtXtXtXtXtXtX& t T.).'.;X=X`.&X`.",
"*X%X0X!.!.0X~.-X XG. XqX>X>X@X;X=Xf.3 # 5 #   O H o.{ ; { eXA.eX&.H 7 ] eX*._ E a & u.).:X].`.;X;X@X",
"}.1X0XK.G.'.0XQ.oXG.L..X<X+XE.*X).6.% a v d 7 o.tXtX&.7 x c e H z X = O [ { ; % O O P ).;XY.@X$X$X`.",
"!.K.P.Q.H.!. XoXXXW.<X@XB.g.b.&X>X~ O j x - k ] ] { } w & 5 ' r O z { j g v % = ; & A x.b.b.6X@X;X`.",
"!.D.Q.9XQ.K.D. X,X:X$X_.a.h.Z.&Xf.Z % x z O % - ; % ; ; O 5 X.G X R O.c = s w % X % / p.p.M.%X@X@X$X",
"wXW.s.e.k..X|..X!.0X'.=XB.%X+Xw.6.3   % % % - - &.%.O.o.; O | W . X % % e o % r j * t.M.E.*X*X>X).$X",
").<Xs.h.&X<X,XT.e.XX-X~.qX,X6XL.q.& o : O     w eXtXtXtX} - G | 5 p w p O w W  ._ % 7.>X6X&X%XE.$X].",
"@X6X(.<X:XU.).@XM.*X|..X Xj.Q.oX) 8 d rXE     R eXtXtXeXA.f 5  .e % 7 h W ' T w X J v.W.$Xb.d.a.@X`.",
">X%X7X@XW.wX:X<XN.g.<.,XoXK.Q..XK < { tX] : X { rXtX$.` R } r ' l + ' ' l 5 X   9 r.Q.@X1XM.d.Z.@X).",
"|.6X&X(.5X'.'.=Xn.s.{. X X9X;Xv.= v OXtX%.p # o.@.H f [ uXdX' T Q * w ; O 4 S Z r.oX X|..X%X7X@X$X;X",
"%X|.$X4X;X`.:X=X=X=XqXK.r. X.Xv.6 d *.tXtXH X 7 ; ` iXfXfXgXyXf  .r 5 $.+.s K j.XX0X Xe.T.>X;X@X`.).",
"+X2Xm.m.a.&X@X@X).'.'.W.~.oX X X^ # ] [ 7 X - [ pXhXgXgXgXfXsXk ' Q ; OXtX} q q.=XR.,XR.|.=X).:X].].",
"`.$XN.<.h.+X$X@X).].;X).'.0XH.r.i.t   O g o.aXgXgXfXgXdXaXeXk @ T  .; ..tX$.: ( 3.v.1X;X=X<X;XW.@X`.",
"]._./.z.3X&X@X=X~.'.].'.).,X,Xv.Y G [ A.sXgXgXgXgXfXiX@.H H ` O w  .l R rX` = I k.).).@X).Y.n.|.=X`.",
"].`.`.5X+X$X$X'.;X).'.].Y.).E.D E iXdXgXgXgXgXgXiX} x _ @.eXo.O O ' X.w z = C Z.<X&XY.v.6.,.w.#X$X$X",
"`.`.:X'.).`.2X_.@X;X4X$X+X4Xx.w pXgXgXfXgXgXaX[ 7 H $.rXrXtX] O - w l X   6 x.7X&Xv.Y & @ 4 C.&X#X].",
"(.@X'.].:X;X/.;X(.E.@X&X$XB.u A.fXfXfXdXaX` @ e o.eXeXrXrXeX..X - % O % % 6 v.S.9.# f o.@.5 A m.#X;X",
"@X;X).'.).:Xn.s.1.=X&X+X$Xy.5 #.&.eXOX] 5 e e - % & e s f j # * $ a v v p # S ~ u p $.tXtX_ 6 x.`.`.",
"_.#X;X).=X@Xn.s.|.|.&X3X#XM.^ Y Z 8 X X 5 f T ` W T k w     8 K C + d v z #   X v o.OXeXtX[ & t.;X;X",
"_._.;XY.>X&X+X#X@X*XS.S.l.+X%XT.b.D X d O.x 7 w k T l *   i q.v.u.4 % z v d % X $.%.v x E a 4 N.m.).",
"_.`.=X@X*X*X#X*X#X*Xl.<.p.&X@X'.V.F   g tXeX] O           S f.%X%X7.O w v v w   ` : # X   X ~ d.s.Y.",
"'.].'.'.;X@X&X&X&X&X).n.<Xv.& # D ! o 7 tX%.7 # @ % O d : @ c.&X>X}.y X g g #   # A }.u.( v.L.w.n.$X",
").).'.'.<X=X7X*X3X+X@X,XW.Y O 7 # & o   @.v = w X . p v a   t.@X>X@Xw.& @ & t 5 Y {.<X<X;X~.J..X=X<X",
"(.#X;X;X'.=X<X+Xx.p.k.4Xi.q a &.] d O   : ; a v %   z v z X t E.$X#X`.i.^ 0.C.v. XP.Q.XX.XG.F.,X=X).",
"#X#XV./.j.~.9X.Xf.g.=X,X( @ ] eX@.%.p     = z v w   d v v 7 O 9.V.$X<X~.|.>XE.=X XD.Q.oX9X9X X9X:X).",
"'.5Xk.<.s.XX^.H.=X>XoXF.i = *.{ : } p 5 d z v v s   p v H 5 X P 5.4X@X6X}.#X2X#X;X|.|.%Xv..X,X=X=X`.",
"~.)./.N.@XXX^.F.!.9XH.U # g eXf   O X % v v v v d   a z 7 X C w.].$Xc.c.<.&X2X_.).<Xc.8.e.}.I.W.).`.",
";X_.$X#X%X,X X^.F.^. X0.0 O v + y 9 X X : z v v d   # # X X f.*X`.(.(.<.T.|.@Xn.j.XXR.v.>XI.e..X).;X",
"(.`.(.<X+XW.D. X^.P.oXe.P y $ O I w.K S 5 = a d % p { _ = A M.2X*X@XE.*X>X1X1XI.K.XX-X=XqX,XXX-X:X$X",
"#X&XU.0X5X;XJ. X X9XoXD.U.R.t.( T.=X|.}.x.D t @ 7 %.OXv & t.$X(.*XM.&X(.1Xk.n.5.>X@X,X~.K.K.9X-X=X`.",
"3X4X'.~.;X&X|.qX&X.XH.D.'.=X@X<X1X@XE.@X&Xm./ 5 O.{ - X   q $X;X@X*X7X@X<Xn.2.b.%X@X=X=XP.D..X,X=X`.",
"`.`.0X'.l.g.b.+X*X%X|..X%X+X%X@X).1X5X).@Xt.5 { rX#._ } _ X v.}.>X(.S.N.n.;X@X8X@X>X@X`.-X,X1XE.).@X",
").W.=X@Xp.h.M.*X&X*X|.c.g.l.*X@X@X$X`.(.@X! a @.$.@.#.#.c % Z.}.%X$X4.<.M.<X@X@X$X*X_.<X@Xn.z.2.`.@X",
"`.).=X$X&X$X`.).$X$X|.w.h.+X$X$X$X).;X`.`./ e r 7 5 6 e 6 ! @X@X@X@Xm.m.;X@X5X).`.`.Y.@X*Xc.w.b.$X`.",
"].'.).$X'.$X].`.`.@X*X}.%X%X@X$X@XE.:X/.`.E.y.( ( y.u.u.u.T.;X#X;X<X;X@X=X`.;X).=X;X@X@X<X&X}.7X$X]."
};
