/* XPM */
static char *result[] = {
/* columns rows colors chars-per-pixel */
"50 50 219 2 ",
"   c #040402",
".  c #0A0502",
"X  c #070904",
"o  c #0A0C05",
"O  c #0B0D09",
"+  c #1D0401",
"@  c #150D05",
"#  c #0D1106",
"$  c #0E120A",
"%  c #11140C",
"&  c #171808",
"*  c #141B0B",
"=  c #141511",
"-  c #161A12",
";  c #191C15",
":  c #1C1D1A",
">  c #250301",
",  c #360802",
"<  c #281407",
"1  c #381205",
"2  c #172409",
"3  c #1A240C",
"4  c #1D2B0F",
"5  c #1C2115",
"6  c #1E2A12",
"7  c #1E211B",
"8  c #292F0D",
"9  c #22330C",
"0  c #232915",
"q  c #21241C",
"w  c #252B1C",
"e  c #253312",
"r  c #293514",
"t  c #293B14",
"y  c #343714",
"u  c #242522",
"i  c #262922",
"p  c #292C25",
"a  c #2C2D2A",
"s  c #2E3125",
"d  c #2E312B",
"f  c #32342D",
"g  c #353B2A",
"h  c #333532",
"j  c #363931",
"k  c #3A3D35",
"l  c #3B3B3B",
"z  c #4F0F05",
"x  c #540D04",
"c  c #690A03",
"v  c #780A03",
"b  c #395A0F",
"n  c #2D4213",
"m  c #2E4912",
"M  c #324518",
"N  c #364718",
"B  c #3B531A",
"V  c #3E5B1E",
"C  c #3F641C",
"Z  c #3F4336",
"A  c #3F413A",
"S  c #434B1C",
"D  c #445A1D",
"F  c #44631B",
"G  c #4C7C1A",
"H  c #425A21",
"J  c #42443E",
"K  c #464A38",
"L  c #4C513D",
"P  c #476624",
"I  c #4B6522",
"U  c #4C6B23",
"Y  c #546B26",
"T  c #4C7325",
"R  c #547526",
"E  c #59742B",
"W  c #557B2A",
"Q  c #5A7D2B",
"!  c #66782C",
"~  c #757928",
"^  c #444541",
"/  c #464A41",
"(  c #494C45",
")  c #4D4E4B",
"_  c #4E514B",
"`  c #545947",
"'  c #51544E",
"]  c #545552",
"[  c #575856",
"{  c #595B55",
"}  c #5B5D59",
"|  c #5E614D",
" . c #5F615C",
".. c #656952",
"X. c #61635D",
"o. c #646562",
"O. c #666961",
"+. c #696B66",
"@. c #6C6D6A",
"#. c #6F706D",
"$. c #71726F",
"%. c #747573",
"&. c #777976",
"*. c #7C7C7B",
"=. c #850702",
"-. c #940501",
";. c #9C0301",
":. c #A60100",
">. c #A80100",
",. c #558C1A",
"<. c #5A9918",
"1. c #66991B",
"2. c #639D1D",
"3. c #5DA11E",
"4. c #67A51F",
"5. c #5B852C",
"6. c #5E9C21",
"7. c #5F9D2D",
"8. c #5E8532",
"9. c #5F9530",
"0. c #638B2C",
"q. c #689A25",
"w. c #759C24",
"e. c #658934",
"r. c #679533",
"t. c #6A9432",
"y. c #6E9D34",
"u. c #749A36",
"i. c #739D35",
"p. c #5EA523",
"a. c #64A323",
"s. c #6BA424",
"d. c #67A529",
"f. c #6CA42C",
"g. c #67AB29",
"h. c #6CAC2C",
"j. c #7BA528",
"k. c #73AD2C",
"l. c #6BB32D",
"z. c #72B12E",
"x. c #6BA734",
"c. c #77A637",
"v. c #74AD33",
"b. c #73B233",
"n. c #7BB335",
"m. c #7BBB35",
"M. c #7CB53C",
"N. c #75B838",
"B. c #7CBC3C",
"V. c #7EC138",
"C. c #79B641",
"Z. c #7F807F",
"A. c #7FC341",
"S. c #7DC846",
"D. c #878B22",
"F. c #859A25",
"G. c #839D2A",
"H. c #849B35",
"J. c #84A42D",
"K. c #88A32C",
"L. c #85AB33",
"P. c #8AAB32",
"I. c #8AAA38",
"U. c #96AA39",
"Y. c #84B435",
"T. c #8DB335",
"R. c #83BB35",
"E. c #84B33B",
"W. c #8CB43B",
"Q. c #84BD3C",
"!. c #8BBD3D",
"~. c #93B33C",
"^. c #9AB43D",
"/. c #93BC3D",
"(. c #A0AA3E",
"). c #80C536",
"_. c #85C33D",
"`. c #8BC43D",
"'. c #85CA3D",
"]. c #8DC93E",
"[. c #92C43D",
"{. c #92C83E",
"}. c #84BD43",
"|. c #82B945",
" X c #8CBC42",
".X c #94BD43",
"XX c #9BBC43",
"oX c #99B846",
"OX c #A5B842",
"+X c #80817F",
"@X c #84C442",
"#X c #8CC543",
"$X c #85C943",
"%X c #8CCA43",
"&X c #87C749",
"*X c #8CC54A",
"=X c #8DCB4A",
"-X c #92C443",
";X c #9BC345",
":X c #92CB44",
">X c #99CA45",
",X c #94C64A",
"<X c #9BC44A",
"1X c #93CC4B",
"2X c #9BCC4B",
"3X c #8BD045",
"4X c #8DD14B",
"5X c #93D14A",
"6X c #9CD24C",
"7X c #8FCB50",
"8X c #97CC52",
"9X c #95D154",
"0X c #9BD253",
"qX c #A2C547",
"wX c #A1C34C",
"eX c #A3CB54",
"rX c #A2D250",
"tX c #848484",
"yX c #8A8A8A",
/* pixels */
"[.:X_.=X$X4X1X`.[.].].V.).3X$X&X1X#X-X:X`.#X:X_.#X%X_._.%XQ.0.U V T 9.C.$X3X%X%X-XR.-X-X:X`.!.:X3X{.",
">XQ.1X_.=Xk.`.:X`.{.{.].'.3X&X#X_.:X6X`.:X_.5X2X%X%X$Xv.5.r . > > + . e 9.%X_.[.`.:X:X`.`.1X1X=X:X{.",
">X:X`.k.s.s.Q.>X:X:X{.`.%X#X#X_.m.$X=Xm.:X%X:X:X`.`.}.V & , c =.-.v c , 0 j.6X{.[.[.[.:X_.$XN.B.=X`.",
"'.5X#XQ.s._.@X%X].].{.[.:X_.k.2.z.=X'.'.$X$X#X[.6XR.5.& c -.:.:.:.:.:.v o T :X`.{.`.`.:Xb.a.g.&X%X%X",
"%X'.:X:X%X=X$X$X'.).%X-X-X,Xv.k._.>X#X:X%X-X,XY.Y.w.t , ;.:.:.>.>.>.:.1 * x.$X3X].'.=X_.m.v.Q.%X].[.",
"3X'.=X%X1X%X$X3X$X_.:X[.[..X#X0X2X:X,X-X/.Y.2Xj.1.,.@ c :.-.z < x ;.v o W l.N.a.'.$X%X#X1X,X,X#X:X:X",
"].%X:X-X_.0X=X$X$X-X[.2XXXL.I..X.X.X-X-XT.w.~.!.R.R + v ;.< 4 V 8 v z o i.B.<.h.$X=X1X=X#X!.,XrX`.!.",
"%X_.R.j.k.1X%X%X#X#XY.-XXXj..XXX,X#XY.<XH.Y E E.#XM , ;.x 3 x.v.r $ # . e.Q.#X#X&X,X}.,X:X,X1X#X#X`.",
"$X_.a.<.V.4X_.#Xg.<.m.8X#X<XwX!.4.3.n.i.r w r x.M.o x -.> U W M $ A J o W 1X-X[.-X[.,X1X=XC.N.d._.].",
"1X_.m.%X5X_.%X#Xs.N.A._.1X-XL.;Xg.b.#Xu.- | d F U . =.v & $ X     = 5   2 Q !.[./.2X>X-X7Xv.p.h.=X].",
"#X1X%X%X$X,XeX-X,X#X9X,X1XY.w.qX:X1X~.G.8 L L r $ < :.x . 0 { +.( 7 O O - $ U W.;X/.P.j.-X-Xn.1X#X$X",
",X,X1X_.-X-X X-X,X*X=XB.n.[.^./.,X-XP.K.Y w ` - . =.v @ f *.yXyXyXyX&. .#.J & E .X/./.L..X2X>X:X&XB.",
"7X=X#X#X1X,X,X1X*X*Xh.<.M.1X>X[.:X:X-X<Xv.6 ` s & -., = X.yXyXtX#.+.*.yXyX*.j $ e.#X*X-X:X`.:Xk.x.7.",
"C.b.f.#X-X-X2Xn.*X&Xh.h.%X@X`.:X:X-X#X#Xq.9 k L @ , o O q ' yX&.d u p / o.%.] X 4 M.}.$X:X_.].m.d.C.",
"N.6.f.-X/.J.s.1.@X&X*X*X#X%X>X`.-X-X$X$XG # w ..- 3 X u q X +.[ = p p : $ $ $   X Y 2X:X:X!.`.:X&X=X",
"@X|.2XJ.w.T.s./.8X X7X8X*X#X_.R.[.#XA.5.O @ & K w X O ' } X Z h   O = u a p i 7   B :X[.[.:X#X`.%X].",
"7X#X<X^./.qX/.<XoXJ.oXeX,X,X#X%X[.n.H X . +     o w % l f O 5 = a J i = % = = = X V :X`.[.:X`.:X:X%X",
"Q.,XwXU.K.OXqX~.XXK.U..X1X|.5.M.i.n X         . & f O O u _ i O J a ] j j l K ( o P `.:X:XR.].%X:X:X",
"XXP.~.~.K.^.OXXXXX/.:X$XN.F * e 4   X .   a ] ^ o   X X j yXs 7 _ q ' % f j g f X R '.N.b.M.1X#X:X].",
"^.F.~.XX~.T.w.XXwX:X=X).G 2 5             a tXtX@.- = i o J ' ; k ] { p l j f q # i.'.p.p.M.*X#X#X].",
"6X!.j.2.v.-X XXX^.qX[.I.n 7 *.& O a f h d ; o.yXyXo.$ ( j o : p X X 5 p d k f # t _.&XM.Q.=X,X1X].{.",
"`.1Xs.k.#X2X<XI.j./..XI O [ yXk o a l l l : d [ [ ' = l #.' u : % # o O O   : = 6 u.-X,X0X#X&Xm.#X].",
"#X9X|.:X-XR.!.#Xx.e.H $ d *.Z.h   O 7 a f u = X   $ - 5 d } @.@.X.{ { } ' 5  .@.= y E.`.#Xb.f.d.#X%X",
",X*X5X=X/.rX-XM.n * 0 J &.*.a @ S Y r % O O O ; X i { { j ; u l  .+.@.O./ 5 @.yX) o E .X9Xn.d.C.$X`.",
".X7X%X_.1X[.[.E & @.tXtXyXo.X H <XOXU.u.N = J #._ $ a  .@. .k 5 O X O X X : %.yX+X: N I. X,X0X$X-X].",
",X X1X3X:X_.E.N q tXyX*.k h % R ,XqXG.G.H u tXyXyXo.; = A o.@.@.} _ ' ] p O [ yXtXk r 0.E.-X,X#X:X].",
"$X:Xm.V.a.%XE.B % / @.X.; & S oX.X-XXXE.M u *.yXyXyX&.J 7 = u l ) _ ^ d =   a &.X.; y c.-X-X[.:X`.].",
"_.%XN.<.h.@X&Xc.B 9 5 0 r ! H.F.,X6X,X7Xt : %.yXyXyXyXtX$.k ; i 7 7 7 X O - o u % & e. X#X>X:X!.[.%X",
"{.'.).z.4X$X#X-XY.j.u.0.c.<X;XW.Q.R.@X1XB : &.yXyXyXyXyXyX/ Z &.#.%.( X u a O X n t.!.#X`.E.n. X:X`.",
"{.].].5X@X=X#X[.>X`.`.[.R.`.Q.k.h.4.5X%XV u *.yXyXyXyXyXZ.7  .yXyX&.- o h h O 5.#X#XQ.:Xn.<.q.&X#X:X",
"]._.qX[.`.`.3X'.$X,X1X#X_.4X%X4.h.Q.#X-Xe o i Z _  .@.#.A ; yXyXZ.j   u l u * |.&X%X0X,X|.m.&X=X%X].",
"_.%X[.{.6X:X).3X_.`.@X=X$X$X#X$X=X1X,XE.o o   o ; : ; ; : 5 %.Z.A O ; h h = V A.$X|.}.f.*X1X$XV.%X%X",
"#X%X`.{.[.2Xn.s.1.,X=X$X=X=X:X-X<X.X,XF - L p % ; j ) } X.k a ' O % h l u 2 y.@X%Xh.<.x. X,X#X%X_.`.",
"].].:X_.:X#Xk.s. X X&X3X$X_.2X2X-X:Xv.4 o K K g * O ; f J ] % % $ - d 7 O 2 C.&X#XB.B.&X8X,X%X_.:X:X",
"'.'.:XY.,X&X$X%X$X|.A.S.l.S.2X[.V.N.M O : % . % 0 q : o   O   * W e . 5 q $ 8.9X9X=X=X=X@X_.=X4Xm._.",
"'.%X-X-X=X=XV.C.U $ m ,.p.&X:X{.V.C 5 &.yX*.' =     0 K K g * $ 8.N f yX*.p P x.x.M.@X@X_._.B.g.s.R.",
"].{.[.[.,Xr.B 4 % f % B 1X#X`.$X5.- ( [ A u ; O . o     u ( a e c.t.g #.( - 5 $ m c.4X%X:X>XY.q.n.].",
"`.`.[.!.t.3 q h } tX_ 0 u.-X#X,Xt O 5 = - u i h a p u : = . & 5.,X#XU 7 = J o.i o E 1X1X[.~.I.oX,X>X",
"'.'.%X:XY o ' tXyXtX*.i 3 e. X}.Y $ : h l l l J l l l l h : $ r.&X'.Y.& i &.yXZ o ! U.XXXXL.G.wX-X:X",
"%X%XV.'.q.& q %.( a yX$.u O t |.T X - h l l l l l l ^ l l h X R V.=X,XI o 7 p o y w.oXoX<XOXoXqX-X`.",
"{.>Xk.<.s.e.& ; % o j tXX.% . 3 ; ; X X - 5 5 w i u a l l l # n 4.5X#X*XQ e 2 C #X!.|.,Xc.oX<X-X[.%X",
"[.`.V.N.*XOX~ 8 D ! & a u = a : a h p = O     $ * * * u l l 3 * t.#Xb.b.<.&XS.$X`.1Xv.6.q. XY.!.`.].",
":X].$X&X=X<X^.(.D.U.~ $   : l h l l l p % X e e.r.0.U 5 u d =   n i.W b c. X%XY.j.OXQ.M.,XE.w./.{.:X",
"_.]._.1X#X!.H.U.(.U.oXF 9 % u l l h : O # V v.#X%X%X|.U $ o ; 7 # t # # E 2X1XY.K.XX<X.XeX<XXX;X-X%X",
"$X%XT.>X5X1XL.oXoXwXOXF.P.E o - ; O   e t._.3X'._.1XM.5.2 ; tXo.o   o   r q.n.2.,X X;X/.P.K.qX;X-X].",
"4X5XqX/.=X%X.X0XS.oXU.F./.-XR o # 9 R Q.].).`.=X4X%Xv.h.F 3 %.@.= q &.A 3 0.4.b.&X#X,X;XU.K./.<X-X].",
"%X`.;X`.z.g.v.#X7X*X.X X=X@X=Xr.c.,X6X%X_.%X#X1XQ.,X!.%X,Xe p &.] *.tX+.$ W $X8X#X1X%X$X;X;X2X_.`.:X",
"[.!.#X#X3.g.m.=X$X7X}.v.d.h.1X%X`.:X`._.1X:Xn.v.2.`.:X`.%XM = *.tX+.^ : * e.#X#X:X:X_.=X%Xn.v.2.#X`.",
"].`.-X%X%X%X`.].%X=X#Xq.h._.:X$X,X`.:X].{.3XM.q.M.Q.:X`.!.U X h h = # t r. X6X`.`.#XQ.$X1Xv.d.n.#X%X",
"{.{.`.#X#X%X{.].`.#X*X}.*X&X%X#X_.R.:X].{.%X&X}.@X#X=X$X_.`.B   O B i.Q.#X#X:X`.`.:X`.%X1X#X}.7X#X]."
};
