/* XPM */
static char *result[] = {
/* columns rows colors chars-per-pixel */
"50 50 228 2 ",
"   c #030402",
".  c #0C0502",
"X  c #060904",
"o  c #090C05",
"O  c #0C0D0A",
"+  c #140903",
"@  c #1C0B04",
"#  c #0D1306",
"$  c #0E120A",
"%  c #121407",
"&  c #161C06",
"*  c #12150B",
"=  c #151B0B",
"-  c #151612",
";  c #161912",
":  c #1A1D14",
">  c #1D1E1A",
",  c #280903",
"<  c #350B03",
"1  c #331206",
"2  c #17210B",
"3  c #1A240C",
"4  c #1D2A0D",
"5  c #1D2315",
"6  c #1E221A",
"7  c #212B0E",
"8  c #25340E",
"9  c #232B16",
"0  c #22251D",
"q  c #25291D",
"w  c #253313",
"e  c #293714",
"r  c #2B3B13",
"t  c #2B381B",
"y  c #353B13",
"u  c #242622",
"i  c #262922",
"p  c #2A2D24",
"a  c #2C2D2B",
"s  c #2D3225",
"d  c #2E312B",
"f  c #31352B",
"g  c #353929",
"h  c #363B2C",
"j  c #353534",
"k  c #373934",
"l  c #3A3D34",
"z  c #3B3B3B",
"x  c #490B04",
"c  c #590B03",
"v  c #461106",
"b  c #670903",
"n  c #760802",
"m  c #2D4116",
"M  c #2F4119",
"N  c #324315",
"B  c #334419",
"V  c #364C19",
"C  c #3C531B",
"Z  c #385618",
"A  c #3B610E",
"S  c #3B452B",
"D  c #3F5A21",
"F  c #3E4236",
"G  c #404F1C",
"H  c #41581B",
"J  c #43671C",
"K  c #5A6C1B",
"L  c #445C22",
"P  c #41443C",
"I  c #454938",
"U  c #4F523E",
"Y  c #446121",
"T  c #496222",
"R  c #4B6A27",
"E  c #4C6E24",
"W  c #516C25",
"Q  c #4B7324",
"!  c #567827",
"~  c #677226",
"^  c #617C30",
"/  c #444542",
"(  c #494D45",
")  c #494C46",
"_  c #4C5146",
"`  c #4E514B",
"'  c #575A46",
"]  c #51544E",
"[  c #555753",
"{  c #5A5C56",
"}  c #5C5D5A",
"|  c #5D614A",
" . c #5E605A",
".. c #60634F",
"X. c #686A55",
"o. c #61635E",
"O. c #71735D",
"+. c #656663",
"@. c #676964",
"#. c #6D6D6B",
"$. c #6F706D",
"%. c #70716E",
"&. c #747572",
"*. c #777A75",
"=. c #787976",
"-. c #7C7C7B",
";. c #850501",
":. c #8E0502",
">. c #950401",
",. c #9C0301",
"<. c #A40100",
"1. c #A90100",
"2. c #4D811F",
"3. c #598A19",
"4. c #599B18",
"5. c #639B1C",
"6. c #77991E",
"7. c #5DA11E",
"8. c #63A31E",
"9. c #5A852A",
"0. c #5E9C24",
"q. c #5E8934",
"w. c #66842A",
"e. c #638B2D",
"r. c #75842C",
"t. c #679A27",
"y. c #769E21",
"u. c #648932",
"i. c #679632",
"p. c #6B9532",
"a. c #6D9B34",
"s. c #729B33",
"d. c #769B38",
"f. c #5EA523",
"g. c #64A323",
"h. c #6BA524",
"j. c #6BA32B",
"k. c #68A629",
"l. c #67AA2A",
"z. c #6CAC2C",
"x. c #7AA42A",
"c. c #73AC2C",
"v. c #6BB32D",
"b. c #73B12D",
"n. c #6CA933",
"m. c #79A536",
"M. c #74AC34",
"N. c #75A53A",
"B. c #7CAB3B",
"V. c #73B232",
"C. c #7BB335",
"Z. c #7BBA35",
"A. c #7CB53C",
"S. c #75B938",
"D. c #7DBB3B",
"F. c #7EC23A",
"G. c #78AC40",
"H. c #79B942",
"J. c #7F837C",
"K. c #7EC544",
"L. c #849C27",
"P. c #839035",
"I. c #84A42E",
"U. c #88A42C",
"Y. c #85AC33",
"T. c #8AAB36",
"R. c #93AB37",
"E. c #83B235",
"W. c #8BB737",
"Q. c #83BA36",
"!. c #83B53B",
"~. c #84BC3B",
"^. c #8BBD3D",
"/. c #94B43C",
"(. c #99B53C",
"). c #93BB3C",
"_. c #80C536",
"`. c #85C43D",
"'. c #8BC43D",
"]. c #85CA3D",
"[. c #8CC93E",
"{. c #91C43D",
"}. c #93C93E",
"|. c #87B747",
" X c #84BC43",
".X c #8CBC42",
"XX c #98B744",
"oX c #94BD43",
"OX c #9CBC43",
"+X c #A3AE41",
"@X c #A3BD47",
"#X c #858778",
"$X c #85C442",
"%X c #8CC543",
"&X c #85CA43",
"*X c #8CC943",
"=X c #87C74A",
"-X c #8CC549",
";X c #8DCB4A",
":X c #92C443",
">X c #9BC344",
",X c #92CB44",
"<X c #99C944",
"1X c #93C54B",
"2X c #9BC449",
"3X c #93CC4B",
"4X c #9BCB4B",
"5X c #8CD045",
"6X c #8DD14A",
"7X c #92D24C",
"8X c #9BD24C",
"9X c #97CD52",
"0X c #99D252",
"qX c #A2C648",
"wX c #A2C24C",
"eX c #A2CE52",
"rX c #858584",
"tX c #888A87",
"yX c #8A8A8A",
"uX c #8E908C",
"iX c #999B98",
"pX c #A7A9A6",
"aX c #B4B6B4",
"sX c #BDBEBD",
"dX c #C6C6C7",
"fX c #CCCCCD",
"gX c #CFCFD0",
"hX c #D2D2D3",
/* pixels */
"{.,X].;X&X6X3X'.}.{.[.F._.5X$X;X3X`.:X,X'.:X,X'.~.a.E V Q a.`.,X&X6X].&X&X6X*X*X,XQ.:X,X,X'.'.,X,X[.",
"<X~.3X`.;Xc.%X:X'.}.[.[.].5X&X;X`.,X8X%X,X'.7X.XY 2 + @ + 3 ! '.Z.`.7.`.&X*X`.}.'.:X,X'.'.3X3X,X5X*X",
"<X,X%Xc.h.h.~.<X,X,X}.`.[.%X$X%XZ.&X*XZ.6X&XB.r X v ;.>.;.1 % N.B.3.M.%X,X'.8X}.{.{.{.,X`.&XS.D.*X'.",
"].7X{.~.h.%X`.&X[.}.,X}.,X'.j.5.b.;X&X].$XM.r . n <.1.<.<.;.X W .X1XoX3X%X'.}.{.}.'.[.:Xb.f.l.=X,X-X",
"&X].,X,X*X;X&X&X].F.*X{.:X:XM.c.`.7X,X,XB.B @ n <.<.1.<.<.,.o T %XoX3X~.5X7X].&X[.[.*X`.Z.c.!.-X}.{.",
"6X].,X,X,X;X&X5X*X`.,X{.:X:X.X0XeX:X:X!.B @ n ,.1.>.;.:.<.>.X C 2X{.:X'.5XV.S.f.F.&X;X-X3X1X4X%X,X,X",
"[.*X:X:X'.0X;X].%X*X{.2XOXI.W.oX).oX:XT . c <.<.b , , , ;.,.. N /./.).<X%XQ.4.c.&X;X3X;X-X^.2X8X'.~.",
",X`.Q.c.c.3X&X%X$X*XE.<X:XI.XXOX<X%X! % v <.<.b . C ! r @ 1 . r /.y.Y.<X:X~.-X*X=X1X$X1X,X3X3X%X:X'.",
"$X`.8.4.F.;X`.&Xh.4.Z.7X:X2XwX^.g.3.8 @ <.<.n @ R %Xs.3   - - 5 N.K.;X$X*X<X:X{.,X{.,X3X;XH.S.g.`.[.",
"3X`.Z.&X6X`.*X%Xz.C.$X X3X:XY.:Xl.J % n <.:.< C D.;Xs.3 d +.[ = q.f.$X;X`.'.{.<X).qX4X:X9XV.0.v.;X[.",
":X3X;X*X%X3XeX:X1X-X9X;X1XE.6.>XN.w x <.,.x r |.-Xw.B o 0 z u   = V n.&X&X,X{.).>X).T.x.:XoX!.3X&X&X",
"1X3X3X`.:X:X.X:X1X-X;XD.C.:X).).J , ;.1.c 9 p.|.J = 0 l l s a / P > 4 e.*X-X:X2X:X).W.Y.oX4X,X:X-XD.",
"3X;X%X-X3X:X4X1X%X-Xl.4.A.3X<Xd.& b <.n X 9.Z.! o s =.rXrXrXrXrXtX%.5 $ u.;X3X$X1X%X-X-X,X'.,Xb.n.0.",
"H.V.j.%X:X{.4XC.-X=Xz.b.;X`.Q.e , >.;.o Z 7.t.w : rXyXyXyXyXyXyXyXtX+.o 3 Q b.l.7X;X`.'.,X'.[.Z.n.H.",
"S.t.h.:XoXI.h.5.$X=X;X-X%X%X! . n ;., Z k.b.e.= ] yXyXrXyXyXrXrXyX[ - O $ # A C.'.,X8X,X,XQ.'.,X=X;X",
" XH.9XI.y.W.y.^.9X|.1X9X-Xp.= c ;.1 Z H.A.d.D * =.yX+.P  .[ z ` -.F ; > - O w B.*X'.,X'.{.,X:X`.%X].",
";X-X<X).(.qX).>XXXI.XXeXd.e x ;.1 C A.n.M 5 # 5 rX#.6 g p $ o * l I * o ; P 0 G $X`.,X{.}.,X'.,X,X,X",
" X2XqXR.U.OXqX/.@XU.R.d.e < b @ r ! 9.= p #.F * =.=.s | S X / { q 0 X ; .._ ; J ~.[.[.[.,XQ.*X,X,X,X",
"XXU.R./.U.(.XXOXOX^.|.r , < .         u yXyX} O F yX` I X.: i } q X q X.I $ w C.W.}.].S.V.C.1X-X*X[.",
"@XL./.2X/.R.L.OXqX:XE + , . O u u * - #.#.o.P $ $ %.&.f ' ' o ; : h X.h * + H {.}.[.].g.f.A.-X%X%X[.",
"4X^.c.5.c.oX.XOX(.XX! y   O a z z u > a ; : 5 q O 6 +.) f O.h o h ' q   o % K OX8X`.-XZ.~.;X;X3X*X[.",
"'.,Xh.c.;X4X2XE.y.XXr.%   - z z z u * * p $.&.*.{ ; ; p 5 I X.9 ; ; .   & G ~ T.1X7X1X1X0X=X;XD.%X}.",
"-X9X~.3X,XW.^.%XD.;Xm > a   0 : 0 q i * l yXyXyXtX#.= { iX5 | ' - . % H I.:X^.XXXX@XOX^.-XV.z.t.%X*X",
"1X-X9X*X{.eX:X-Xz.2.6 *.&.>   * 3 o o   I yXyXyX&.q [ dXhXJ.q X.U : l ; W -X:X>XL.U.(.:X4XC.g.H.`.'.",
"1X1X*X`.8X{.^.w.4 * ] yX-.f = 9.XXI.~ o F yXrX .q  .dXhXhXhXl S X.g f } 5 9.{.OX(.(.qX)..X1X0X%X,X,X",
"1X$X;X6X*X'.E.e > } rX-.z = w.W.1X4Xr.o F rX) d J.gXhXgXsX=.h p ' ..p ] q V m.Y.{.qX/.! p.1X*X}.,X'.",
"'.,XZ.Z.g.;XN.7 P rXyX=.k $ ~ @X.X:Xm.o p F F iXgXhXhXsX[ $ ] @.h ..X.5 ; C m.Y.OXT.^ 4 4 W !.,X'.*X",
"`.&XZ.4.v.$XN.4 z yXyX+.: X ~ U.:X8XH.$ X F aXgXhXhXsX_ p O $ ` ) h F   % u..Xx.3.w % 0 * o C !.}.[.",
"[.'._.b.6X&X|.C = l ] _ = L oX!..XZ.9.% ) fXhXhXhXsXF z rX%.:   a u     9 m.,Xt.H - s -.rXl = u.*X:X",
"}.[.[.8X$X;X'.m.V 3 4 r E A.^.c.t.Z f J.hXhXhXgXpXF / rXyXyX%.O   O O > % C i.Y 9 ` -.rXyX+.# u.%X[.",
"&X'.}.{.'.{.5X].~.B. X!.`.7X*X5.J F iXhXhXhXfXuXf ` rXyXyXyXrXk   > j z i * # O ] -.&.] } u V H.*X[.",
"].:X{.}.8X,X_.5X`.~. X;X&X$X&XA.D tXgXhXhXdX-.f o.yXyXyXyXyXrXj   o a z k > O X #.#.a = t B n.F.*X,X",
"%X,X'.}.{.4Xb.h.5.oX=X&X6X*X%X!.I aXhXhXgX*.o # f _ } +.o.} f + N 3 o f z z a O > - # Q |..X%X&X`.'.",
"`.&X,X'.,X%XC.h..X.X=X6X&X%X4X^  .gXdXsX` ; I s % o   X       8 m.e.% X a z z >   o R  X;X1X,X`.,X,X",
"].].}.Q.-X;X].K.$X;X$XK.v.K.1XC / ( q 6 6 > f _ ' ' U f o   e w.!. Xp.& $ p i $ * L =X;X'.$X5X6XZ.`.",
"].*X:X:X;XN.E Y 9.;Xl.4.f.;X:X! $ 6 ) @.&.} j 5 6 q q o   X 2 e t J B.a.B = * e Q n.$X].`.`.S.z.h.Q.",
"[.}.{.:Xd.w i 6 = D p.j.3X,XB.B s $.tXyXrX&.{ f .   o * $ > > : : = w b.V.e.q.9.t.H.;X&X,X4XY.t.C.,X",
"'.'.{.a.2 - =.-./ X o 7 u.:XC o q f u 6 - O o X   ; ' q u z z z z j o C [.&X;XM.oX1X3X3X{./.Y.OX:X,X",
"`.`.a.3 O @.-.rXyX/     % R B X 0 u 0 9 0 0 ; O g #XI % a j z z z z * 4 :X1X%X-X@XR.R.OXXXY.L.wX:X}.",
"&Xi.4 6 +. .$ / rXj X 6 - X   i z z z z j - $ S O.g   o $ O $ 0 z z ; % m.2X~.:XXXL.XXOXwX@XXXqX:X'.",
"'.T $ +.&.: + : P O > z k a > j z z k a O O q P > = r N V Z o : a > X   L $X5X].1X%X.X-Xm.oX2X'.'.,X",
").e.= f a * ~ y O   u z z z z z z j ;   3 e w M E s.C.C.`.D.4 X O o 6   8 G.S.].`.1XM.4.s..XE.^.[.*X",
",X~.Y o o ^ +XP.= * X 0 j z z z q o # H  X XA.-X-X'.`.3X;X-Xm   - } %.  = 2 4 i.I.OXW.B.1XE.y.oX:X}.",
"].].A.p.s.^.I.R.P.~ y o - u u - o r i.-X-X;X;X[.*X*X-X;X~.;X9.X z rX-.o   5 $ 8 I.OX2X:XeX2XOX>X:X[.",
"&X*XW.qX3X3XY.XXXXOX+XK 8 & & 7 ! .X3X,X[.[.5X].`.;XA.M.j.%X$XH X } tX( ( -./   q.oX2X).R.U.qX2X:X[.",
"6X3X>X).,X&XoX0XH.XXR.L.T.u.u.|.4X{.Q.%X&X_.'.*X7X,XM.j.c.%X3Xm.4 k rXrXrX#.j X B $X,X>XR.L.XX1X:X,X",
"[.'.<X).b.l.V.$X9X;X.XoX;X$X3X$X'.8X8X*X`.*X-X3X~.:X^.*X3X-X$XA.D - -.&.z ; 3 R a.3X%X`.<X<X4X`.'.[.",
"{.'.%X-Xf.l.D.;X=X6X XM.l.z.3X:X%X*X'.'.3X,XC.V.t.'.,X'.,X*X-X~.! $ u $ X e p.^.-X3X`.3X-XC.b.5.'.[.",
"[.{.:X%X&X*X[.*X[.,X Xk.j.$X&X*X,X'.,X[.[.5XA.t.A.~.,X%X'.[.*X-XG.r X # E ~.8X%X'.%X~.%X3XV.k.C.-X[.",
"}.[.%X%X,X'.{.[.[.%X1X X-X;X%X%X'.~.,X'.}.*X=X X$X%X;X%X`.'.,X%X-XN.V ! :X`.,X'.}.:X'.*X3X%XH.9X-X[."
};
