/* XPM */
static char *result[] = {
/* columns rows colors chars-per-pixel */
"50 50 224 2 ",
"   c #2A1D35",
".  c #2A1E35",
"X  c #2A2032",
"o  c #2F213B",
"O  c #312937",
"+  c #3C3D36",
"@  c #484F39",
"#  c #525C3C",
"$  c #567236",
"%  c #637C3E",
"&  c #372745",
"*  c #372845",
"=  c #453D49",
"-  c #402F50",
";  c #443255",
":  c #4A365B",
">  c #4F3A61",
",  c #503B63",
"<  c #57307E",
"1  c #46464D",
"2  c #4D5668",
"3  c #5A5173",
"4  c #546266",
"5  c #5B667B",
"6  c #637170",
"7  c #5C8F17",
"8  c #5A9A18",
"9  c #64971C",
"0  c #629C1D",
"q  c #77991E",
"w  c #5DA11D",
"e  c #63A31E",
"r  c #5E9C24",
"t  c #679C24",
"y  c #769D23",
"u  c #6A8A3B",
"i  c #6A9937",
"p  c #5FA422",
"a  c #64A323",
"s  c #6BA424",
"d  c #67AA26",
"f  c #64A42B",
"g  c #6CA42B",
"h  c #66AA29",
"j  c #6CAC2C",
"k  c #79A529",
"l  c #73AC2C",
"z  c #6BB32D",
"x  c #74B12E",
"c  c #6BAE32",
"v  c #76AB35",
"b  c #73B433",
"n  c #7BB334",
"m  c #75BA36",
"M  c #7BBA35",
"N  c #7DB63B",
"B  c #7CBC3B",
"V  c #7FC23A",
"C  c #6D8941",
"Z  c #7BA74A",
"A  c #7BBB42",
"S  c #7EC445",
"D  c #8A9729",
"F  c #869B28",
"G  c #85A42D",
"H  c #88A52C",
"J  c #95A22F",
"K  c #84AC33",
"L  c #8AA936",
"P  c #94A937",
"I  c #84B335",
"U  c #88B837",
"Y  c #84B43A",
"T  c #84BD3C",
"R  c #8CBD3C",
"E  c #94B33C",
"W  c #99B63C",
"Q  c #94BC3D",
"!  c #A3AB3C",
"~  c #84C535",
"^  c #85C43D",
"/  c #8CC43D",
"(  c #85CA3D",
")  c #8DC93E",
"_  c #91C43D",
"`  c #99C43F",
"'  c #93C93E",
"]  c #8FAC41",
"[  c #84BE43",
"{  c #8CBC42",
"}  c #86B848",
"|  c #95BD43",
" . c #9CBC43",
".. c #98B946",
"X. c #89A757",
"o. c #89BA57",
"O. c #97B958",
"+. c #A4B947",
"@. c #89BC67",
"#. c #97B969",
"$. c #92AD75",
"%. c #87B978",
"&. c #A4BB69",
"*. c #A3B975",
"=. c #84C442",
"-. c #8CC543",
";. c #85CA43",
":. c #8CCA43",
">. c #86C649",
",. c #8CC54A",
"<. c #8DCB4A",
"1. c #92C443",
"2. c #9AC344",
"3. c #93CA45",
"4. c #99C945",
"5. c #93C54B",
"6. c #9BC44A",
"7. c #93CB4B",
"8. c #9ACB4B",
"9. c #8AD046",
"0. c #8DD14B",
"q. c #92D24C",
"w. c #9CD24C",
"e. c #8CC856",
"r. c #93CD52",
"t. c #98C856",
"y. c #95CB5D",
"u. c #9CCB5C",
"i. c #95D353",
"p. c #9BD257",
"a. c #A2C548",
"s. c #A1C24C",
"d. c #A3C656",
"f. c #A1D255",
"g. c #8CC668",
"h. c #98C865",
"j. c #99CC79",
"k. c #9BD371",
"l. c #A2C86A",
"z. c #A4D36C",
"x. c #A4C579",
"c. c #593281",
"v. c #5D3B84",
"b. c #6B3D99",
"n. c #6F509A",
"m. c #6C6F99",
"M. c #6D7199",
"N. c #7543A4",
"B. c #7944AC",
"V. c #7E4FB0",
"C. c #814BB6",
"Z. c #8553B6",
"A. c #956CBC",
"S. c #9374BC",
"D. c #9358CD",
"F. c #965AD1",
"G. c #9B6ACA",
"H. c #9F70D1",
"J. c #A279C9",
"K. c #A46EDA",
"L. c #A575D4",
"P. c #A466E1",
"I. c #A96EE3",
"U. c #AE6EED",
"Y. c #AA70E3",
"T. c #AF70EE",
"R. c #B173ED",
"E. c #B47AEC",
"W. c #748C81",
"Q. c #7996A7",
"!. c #88B784",
"~. c #92B295",
"^. c #B1B78F",
"/. c #8784AC",
"(. c #9197BE",
"). c #AD98B9",
"_. c #82A9A9",
"`. c #9DBDA3",
"'. c #81A6B3",
"]. c #B3ADAA",
"[. c #95C687",
"{. c #91C58C",
"}. c #9CD283",
"|. c #A9C786",
" X c #A6D287",
".X c #A5CA94",
"XX c #B5C697",
"oX c #A6D398",
"OX c #ACCDA7",
"+X c #A9D6A5",
"@X c #AEC9B9",
"#X c #ABD5B8",
"$X c #B1D6B6",
"%X c #9989CC",
"&X c #9696C5",
"*X c #9D9DCD",
"=X c #A883CA",
"-X c #AD84D3",
";X c #AC93D1",
":X c #B998D8",
">X c #ACAAD4",
",X c #ADB5DB",
"<X c #B988E9",
"1X c #A991E1",
"2X c #BD94E6",
"3X c #B8AEEA",
"4X c #B7B3EC",
"5X c #C6BFC8",
"6X c #C4A7DC",
"7X c #CAB7DB",
"8X c #C19AE7",
"9X c #C7A3EA",
"0X c #CBABED",
"qX c #ACD6C5",
"wX c #B2D5C6",
"eX c #B1DBC6",
"rX c #B3DBC9",
"tX c #B6DCD7",
"yX c #BEC4EA",
"uX c #BDD8EA",
"iX c #BAE0E7",
"pX c #C7C4D7",
"aX c #C2CFEB",
"sX c #C2C8F1",
/* pixels */
"_ 3.( <.;.0.7./ ' ) ) ~ V 9.>.<.:.-.1.3./ :.3.# .   $ ^ :.-.^ 3.:.9.S 9.S 9.:.-.3.T _ 1.3./ / 3.3.) ",
"4.T 3.^ <.l -.3./ ) ) ) ( 9.:.:.=.3.w.^ <.N u @ o . @ $ N 7.1./ B Y e ( :.:.( / _ 3.1./ / 7.7.<.0.) ",
"4.' -.l s s T 3.' 4.' / :.^ -.=.m ;.:.M :.u O o * * & O u Y 3.8.n 7 v -.:._ w.' _ _ / 3.^ =.B B :./ ",
"( q.1.T s / ^ -.:.) ' _ 3./ l 9 x :.:.( $ + X . . o   . + % 1.2.} 2.1.7.3.~ ' _ ' / ) 3.b p h >.3.-.",
":.^ 3.:.:.<.;.;.( ^ ) 1.3.,.l l ^ q.] u 1 * * & & & & & * 1 u Y 1.| 7.T 9.q.;.:.( ) :.=.T l T -.' _ ",
"9.( 0.3.7.:.;.9.;.^ :._ 1.| -.p.f.1.u X - : > > > > , > , - . u 4.` 1.=.9.z m p ( ;.>.:.7.-.6.-.3.3.",
") :.3.) / p.:.;.-.:._ 6. .K L 2.Q | C . - , , : - - : > > - X u Q W Q 2.1.T 8 j =.<.<.7.-.R 8.w./ T ",
"3.^ I k l 7.:.:./ :.I 1.| G |  .2.-.i @ 1 ; : ; - - ; : ; = @ v ` q K 4.1.T -.:.,.7.{ ,.5.7.7.-.3./ ",
";.^ e 8 V q.^ =.d 8 N q.-.6.6.R d 8 n { 1 o * * > > ; * o # B :.:.=.<.=.-.4./ 1.3._ 1.7.,.A m p T ) ",
"7.^ m :.<.^ :.-.s M =.T 5.1.K 2.j b ^ | # & : : , , > ; o # -.^ i.b ;.:.^ / ` 3._ a.8.1.r.b p c :.:.",
"-.7.:.:.-.7.p.1.5.-.r.r.7.I q 2.1.7.W G $ 1 2 2 3 3 3 3 : 4 8.n 8 d ;.=.-.3.1.Q 2.W K k 2.{ I 7.:.;.",
"5.7.7.-.-.1.Q 1.5.,.<.B I 1.Q ` 1.3.U I W.Q.Q.Q./.Q.Q.Q.Q.Z 2.I d m :.=.:.-.1.6.| Q Q K | 8.8.:.>.B ",
"7.,.=.,.7.1.3.8.-.,.j 8 N 7.4.` 3.3.h.oXZ v.m.m.m.5 m.5 3 W.+Xy.8./ q.3.=.<.7.^ <.-.<.1.' ) 3.l f f ",
"A b g -.1.1.8.n ,.>.j j :.^ ^ ' 7.t. XtX6 O o & o O o * O 6 tX X6.1.4.3.-.B b j <.<.^ -.3.^ ) M f A ",
"m 8 y | | H s 9 [ >.,.<.:.-.4.^ 8.oX+Xg.i $ O         O C X.l.OX+Xt./ ^ ^ e e M ^ 3.7.4.3.R / 3.e.<.",
"S [ t.K k K y / r.{ r.t.,.-.^ U 8.#X#X9.V o.4 2 2 2 2 4 Z Y D $X$Xe.7.3.-.T / :.3.^ 4./ _ 3.-./ ^ ) ",
"<.-.2.Q W a.Q 2. .G ..d.{ 7.-.3.7.#X#X;.S @.Q._._.'._._.g.=.| $X#XS A 7.-.7.1.-.:.( 3.^ ' ' / 3.3.3.",
"[ 5.s.P H W a.E W G E | r.=.T 7.7.#X#X9.%.!.g.@.#.o.@.@.!.%.1.#X#Xf c 5.6.1.` w.^ ) ) 3.3.T :.:.:.3.",
"W L E E H W .. . .R 4.;.B j c ,.q.oX+Xj.{.%.>.8.5.j.y.=.%.{.j.+X[.c -.6.+.W ) ~ ~ ' ( m b b r.-.3.) ",
"W F E 6.E P F  .a.4.<.^ a h A >.l T j.iX}.( ^ / y.qX{.d q. XiXj.=.:.d.L H a.` ' ` _ ;.e t N ,.:.-.) ",
"w.Q k 0 l | {  . .a. ._ N ,.>.t k n h. X[.%.-./ g.rX{.A %.{.j.r.3.4.2.K K  .J +.4.;.:.N B ,.,.7.) ' ",
"/ 7.s l -.w.6.Y y Q 1.| f.6.6.Y L ..p.h.!.%.6.u. XtX+Xe.!.!.k.7.Q  .` ` Q 1.F L 5.7.5.1.i.<.:.N -.) ",
",.r.^ 7.1.U R -.B <.R { ..k E +.D P j.tXj.1.2.^.pXuX+Xm <.}.tXx...E Q Q U 4.R ..W +.2.{ -.n j t -.:.",
"5.,.7.:._ f.1.:.m f t 6.+.H R a.+.|.OX.Xh.4.1.l.XX.XoXoXy.y.oXoX|.F E 2.` 3.3.1.F J Q -.r.n f A -./ ",
"5.5.:.^ 8._ _ 8.n s { ....s.5.e.l.$XoXE 6.1.7.:.( 3.}.wX Xu.:.+X$XO.] 5.r.Y ` ` W W ..| | 5.i.^ :.) ",
"5.-.3.0.:./ 1.1.-.1.s.L F | | j.rX XP G 6.,.B ;.9.' 7.z.OX.XN A |.qX[.Y a g K H ` s...y Y 5.3.3.-.' ",
"^ <.M V a :.:.-./ _ 1.R Q d.^..XoXu.&.^.O.A 8 h.x.p._ =.}.{.%.o.h..X.Xj.v Y Y K 2.E 6.Y { -./ 1.) ) ",
"( :.x 8 z =.<./ / ' 3./ 1.d.#X.X2.8.x.5X$.p b .X@Xd.4.:.V j.iX}.y.r.+XeXh.5.{ i t v 8.3.1.4.1.R _ :.",
") ) ~ x <.;.-.1.R _ ' _ / l.rX+X[ N o.l.} n q.e.h.-.x.].g.y.j.+XoXA $XrXu.1.7.s k -./ -.^ Y n -.-.:.",
") ' ( q.^ <.:._ 4._ _ _ U e.qX@X$.v q.:.3.f.x.y.3.7.x.^.h.5.c #XtX$.wXeXt.1.-.=.7.:.^ 3.M 7 t ,.-.' ",
":.^ 4._ _ ~ 9.) ^ 3.7.=.^ y.rXsX9X#.1.1._ #.7X|.3.1.6...G s.[ OXaXpXaXrXu.3.=.i.>.:.i.5.[ N ;.<.:.' ",
"^ -._ ` w.3.~ 9.^ =.=.0.9.i.rX,X=X;X^.8./ 6.l.t.[ n K ] ^.^.R #XrXx.$XrXy.<.<.;.:.A { g ,.r.;.V :.:.",
":.3./ ' / 8.x s 9 2.<.;.<.y.rX,XG.-X).*.#.l.7.=.f Z h.&.^.^.+.@XwXx.@XrXo.b <.( 3.x 8 g e.5.=.) ^ / ",
"^ ) 3./ 3.-.n s [ { >.0.;.e.rX4XU.G.=X9X9X].o.,.O.5XXXW F ] +.@XaX9XyXqXZ v :.<.:.B B >.6.5.:.^ 3.3.",
"( ( 3.T 5.:.;.:.-.<.;.S z e.rX4XU.P.L.L.L.;X].&.+.&.&. .L s.Y #XsX0XsXqXe.1.<.i.i.>.,.7.R ^ 0.9.M / ",
"( :.1.R <.<.;.;.;.<.h 8 p g.rX4XU.8XL.A.G.J.8X].&.X...d.X.X.X.wXyX2XyXrXu.7.S A v N =.( ^ =.B j e T ",
"' ' _ 1.1.-.=.>.;.;.-.n q.y.eX4XU.8X8XI.K.K.A.;X8X6X^.O.].:X:X0X2XJ.,X#Xi.;.>.f r A 0.:.3.4.K t n 3.",
"/ ^ _ / 7.-.i.<.0.>.-.8.1.u.rX4XU.8X<XU.<X2XL.L.-XL.).].;XL.-X0X4X;XyXeXr.:.r.v } 2.8.7.` R L ..1.3.",
"( ( :.' ` 1.8.>.c p j 4.R z.rX3XU.U.R.T.8X8XR.K.A.A.J.8XJ.S.A.,XaX>XpXrXu.1.-.{ +.P E  .| L F s.1.3.",
":.:.V ( k R s.| g f 1.6.4.#.qX>XD.:X8XT.E.E.T.I.I.I.L.J.:X:XL.7X,XA.>XrXu.5.T 7. .D ]  .s. . .s.1./ ",
"_ 4.j 8 t 2.! J | 5.+.+.+.J wX1XC.J.E.U.U.R.<X<XT.T.Y.H.1X<XT.1X%XB.*XrXe.=.9.;.7.-.{ ,.v | 8.1._ ) ",
"_ / T m =.+.! D  .s.J D +.&.qX*XB.B.D.I.U.<X0X2XT.T.T.T.T.T.Y.D.Z.N.*XqXi 9.9.( ^ 7.v r t ] I R -.) ",
"3.) :.9.7.2.+.! D ! ..k Y O.rX*XN.B.C.D.P.R.<XE.E.2X<XT.T.P.D.1X%XV.*XqXo.=.:.I G  .Y n 5.Y y | 3.) ",
"( ( ^ 7.=.R G P ! P +.y 8 } rX*Xb.N.B.B.D.I.<XR.E.9X2X<XI.K.J.*X(.n.&XrXh.8.8.I H  .2.1.8.6. .2.1.' ",
";.:.Q 2.q.7.L ....6.+.D E u.rX(.< b.N.N.V.G.0X2XT.T.2X6XH.%XuXS.b.< (.qXu.x n t 5.1.6.Q P H a.2.1.:.",
"0.7.` Q :.:.{ f.>.5.J F Q 5.j.`.&Xn.b.b.B.Z.J.F.F.F.H.=X1X*X%Xn.n.(.`.j.r.n e b :.=.3.1.E F | 6.1.) ",
":./ 6.R z h n -.<.<.| E <.=.<.k.@XQ.n.b.b.b.B.B.B.B.B.V.&X/.b.n.Q.@Xj.m n 3.-.i.-.7.-.-.4.2.8.R 1.) ",
"_ / 1.-.w h M <.>.<.[ v h j <.5.y.#X&Xc.c.c.c.c.c.c.c.c.v.v.< &X@Xy.p 8 N 5.-.:.1.,.^ q.-.n v 8 ^ ) ",
") / -.:.:.:.( 1.) 7.=.t j T 3.:.7.j.~.m.m.m.m.m.m.m.m.m.m.m.M.~.j.,.M M 1.-.w./ / / T -.<.v a M -.1.",
") ' 1./ -.' ) ) / -.5.[ >.<.-.-./ T g.'.'.'.'.'.'.'.'.'.'.'.'.@.-.1.7.:.3./ 3.^ 3.3./ 3.7.-.A i.-.:."
};
