/* XPM */
static char *result[] = {
/* columns rows colors chars-per-pixel */
"50 50 225 2 ",
"   c #2A1D35",
".  c #2A1E35",
"X  c #2A2032",
"o  c #2F213B",
"O  c #312937",
"+  c #3C3D36",
"@  c #484F39",
"#  c #525C3C",
"$  c #567236",
"%  c #637C3E",
"&  c #372745",
"*  c #372845",
"=  c #453D49",
"-  c #402F50",
";  c #443255",
":  c #4A365B",
">  c #4F3A61",
",  c #503B63",
"<  c #57307E",
"1  c #46464D",
"2  c #5D6B49",
"3  c #4D5668",
"4  c #5A5173",
"5  c #546266",
"6  c #5B667B",
"7  c #637170",
"8  c #5C8F17",
"9  c #5A9A18",
"0  c #64971C",
"q  c #629C1D",
"w  c #77991E",
"e  c #5DA11D",
"r  c #63A31E",
"t  c #5E9C24",
"y  c #679C26",
"u  c #769D23",
"i  c #6A8A3B",
"p  c #6A9937",
"a  c #5EA523",
"s  c #64A323",
"d  c #6BA424",
"f  c #65A62A",
"g  c #6CA42B",
"h  c #66AA29",
"j  c #6CAC2C",
"k  c #79A529",
"l  c #73AC2C",
"z  c #6BB32D",
"x  c #74B12E",
"c  c #6BAE32",
"v  c #76AC34",
"b  c #6DB231",
"n  c #73B433",
"m  c #7BB334",
"M  c #75B936",
"N  c #7BBA35",
"B  c #7DB63B",
"V  c #7CBC3B",
"C  c #7EC239",
"Z  c #719048",
"A  c #79AF46",
"S  c #7EC445",
"D  c #8A9729",
"F  c #869B28",
"G  c #85A42D",
"H  c #88A52C",
"J  c #95A22F",
"K  c #8AA736",
"L  c #84AC33",
"P  c #8AAB33",
"I  c #94A937",
"U  c #84B335",
"Y  c #86BB35",
"T  c #84B43A",
"R  c #8CB43B",
"E  c #84BD3C",
"W  c #8CBD3C",
"Q  c #94B33C",
"!  c #99B63C",
"~  c #94BC3D",
"^  c #A3AB3C",
"/  c #84C535",
"(  c #85C43D",
")  c #8CC43D",
"_  c #85CA3D",
"`  c #8DC93E",
"'  c #92C43D",
"]  c #99C43F",
"[  c #93C93E",
"{  c #8EAC46",
"}  c #84BE43",
"|  c #8CBC42",
" . c #86B748",
".. c #94BD43",
"X. c #97B845",
"o. c #9CBC43",
"O. c #89BB56",
"+. c #97B959",
"@. c #A4B947",
"#. c #A0BC52",
"$. c #89BC67",
"%. c #98BC68",
"&. c #8CAE77",
"*. c #87B978",
"=. c #A4B872",
"-. c #84C442",
";. c #8CC543",
":. c #85CA43",
">. c #8CCA43",
",. c #86C649",
"<. c #8CC54A",
"1. c #8DCB4A",
"2. c #92C443",
"3. c #9AC344",
"4. c #93CB45",
"5. c #99C945",
"6. c #93C54B",
"7. c #9BC54B",
"8. c #94CB4B",
"9. c #9ACB4B",
"0. c #8AD046",
"q. c #8DD14B",
"w. c #93D14B",
"e. c #9CD24B",
"r. c #8CC956",
"t. c #97C756",
"y. c #94CC52",
"u. c #95CB5E",
"i. c #9CCC5D",
"p. c #95D353",
"a. c #9BD257",
"s. c #A2C548",
"d. c #A1C24C",
"f. c #A3D24D",
"g. c #A3C757",
"h. c #A0D259",
"j. c #8CC668",
"k. c #97C964",
"l. c #99CC79",
"z. c #9BD371",
"x. c #A3CF67",
"c. c #A4C679",
"v. c #593281",
"b. c #5D3B84",
"n. c #6B3D99",
"m. c #6F509A",
"M. c #6C6F99",
"N. c #6D7199",
"B. c #7543A4",
"V. c #7944AC",
"C. c #7E4FB0",
"Z. c #814AB6",
"A. c #8554B7",
"S. c #946DB9",
"D. c #9A75BC",
"F. c #9357CD",
"G. c #965AD1",
"H. c #9C6CCB",
"J. c #9D72C7",
"K. c #9C69D3",
"L. c #A47CC9",
"P. c #A36ED7",
"I. c #A674D7",
"U. c #A566E2",
"Y. c #A96EE3",
"T. c #AE6FED",
"R. c #AA72E3",
"E. c #AF70EE",
"W. c #B174ED",
"Q. c #B47BEC",
"!. c #748C81",
"~. c #7996A7",
"^. c #88B784",
"/. c #92B295",
"(. c #B0B78B",
"). c #8784AC",
"_. c #9197BE",
"`. c #AC9DA8",
"'. c #82A9A9",
"]. c #9DBDA3",
"[. c #81A6B3",
"{. c #AEAAA7",
"}. c #B5BBA3",
"|. c #B9AEB7",
" X c #B9B8B8",
".X c #97C787",
"XX c #91C58C",
"oX c #9DD383",
"OX c #A9C686",
"+X c #A6D288",
"@X c #A6CB96",
"#X c #B1C498",
"$X c #A7D397",
"%X c #9EC6A6",
"&X c #ACCAA7",
"*X c #AAD6A5",
"=X c #A8CDB8",
"-X c #ABD6B8",
";X c #B1D6B5",
":X c #9989CC",
">X c #9696C5",
",X c #9D9DCD",
"<X c #AA87C8",
"1X c #AB92D2",
"2X c #A7A5D8",
"3X c #B7B2D0",
"4X c #B989E8",
"5X c #A991E1",
"6X c #BE93E7",
"7X c #B7ADEA",
"8X c #B6B6EB",
"9X c #C5AFD6",
"0X c #C9B6DA",
"qX c #C19BE6",
"wX c #C7A6E7",
"eX c #CBA8EF",
"rX c #ACD6C5",
"tX c #B1D8C6",
"yX c #B3DBC9",
"uX c #BACADA",
"iX c #B7D9D6",
"pX c #BDCBEB",
"aX c #BAE0E7",
"sX c #C4CAE6",
"dX c #C2C9F1",
/* pixels */
"' 4.( >.:.q.8.) [ ' ` / C 0.,.1.>.;.2.4.) ;.4.#     $ ( >.` ;.:.:.q.:.0.:.:.>.>.4.Y ;.2.4.) ) 4.w.` ",
"5.E w.( 1.l ;.4.) [ ` ` _ 0.;.>.;.>.e.( 4.B Z @ .   @ $ A 5.5.) V V e ( >.>./ ) 2.2.5.) ) 8.>.1.4.[ ",
"5.4.) l d d E 5.>.4.[ ) >.( ;.-.N 0.>.N -.i O o & * & O i R 5.8.L 8 v ;.>.2.e.[ ' ' ) 4.( -.M V :.;.",
"_ w.2.E d ;.( :.` ` [ 2.4.) l q x >.:._ % + .   . .   . + % 2.2.| 6...8.4./ 4.' [ ' ` >.m a h <.4.;.",
":._ 4.4.>.>.:.:._ C ` ' 2.2.l l ( 8. .i @ * & & & & & & & 1 i T 2.2.8.V ` w._ :._ ` >.-.N x E <.` ' ",
"q.( 4.>.4.1.:.0.0.( 4.' 2.2.| a.9.2.i X - , , , , , , , , - X i 7.~ 4.) 0.n M a _ :.1.;.9.2.8.| 4.4.",
"` >.>.4.) a.>.:.:.2.2.7.o.L R ..2...i X - , , : - - : , > - X i ~ ! ~ 3.4.V 9 j ,.1.1.<.;.W 8.f.) Y ",
"4._ Y k l 8.>.;.) >.U 2.o.k ..o.7.;.i @ = ; : ; - - - : ; = @ v ] w U 7.2.Y <.>.;.<.;.6.1.8.8.;.4.) ",
"( ( r 9 V w.( -.d 9 N 9.;.7.d.W d 9 m | # o * * > > : * o # V ;.>.( 8.;.>.5.' 2.2.' 2.8.1.V M f ( :.",
"8.-.N :.q.-.>.;.j M S ( 6.2.L 3.z n E 2.# & : : , , : ; o # ;.( p.z S >.( ( ' 5.~ f.7.' y.b t c >.>.",
";.8.>.>.;.6.a.2.6.;.y.8.8.U w s.>.9.~ G 2 1 3 3 4 4 4 4 1 5 9.m e h :.-.;.2.2.~ 3.~ P k 2...U 8.;.>.",
"6.8.8.;.>.2.~ 2.8.<.<.V m 2.~ ~ 2.2.P m !.~.~.~.).~.~.~.~.Z 3.U d M 1.( >.>.2.9...~ W L ..9.9.>.,.V ",
"8.<.;.>.8.2.5.8.| <.h 9 V 8.5.5.8.<.k.$XZ M.b.M.6 6 6 M.6 !.*Xk.5.' 8.4.;.1.8.( 1.<.4.2.` ` 4.l g t ",
"A n g ;.2.2.9.m <.,.j l >.-.Y 4.5.y.+XiX7 O * * & & o * O 7 iX+Xt.5.5.>.-.V n j w.,.-.;.4.) ` N c A ",
"M t g ....L d q ,.,.1.<.;.;.5.) e.$X*Xj.p $ O     X o O % { x.&X*X6.W ;.( r q N ( 4.w.5.5.E ) 4.1.1.",
"S E 9.L u P u W 8.| t.y.<.;.( / 9.-X-X0.S O.5 3 3 3 3 4 A R K &XtX1.1.1.>.Y ) ;.4._ 5.) ' 4.;.) :.:.",
"q.;.7.~ ~ s.~ 5.o.F X.g...8.>.>.9.-X-X:.S A [.[.[.'.'.'.j.-.X.-XrXr.M 4.;.2.2.2.>._ 4.' ' 4.) 4.4.4.",
"} 7.s.I H ! s.Q o.H R ..y.-.E >.1.-X-X1.l.'.j.*.%.O.j.$.*.*.6.-X-Xa j 8.7.2.' e.( :.` [ 4.E >.>.>.4.",
"X.H I Q H ! X.@.o.W 4.;.V h M 1.p.$X*Xz.XXA <.9.y.l.u.} *.XXl.*XXXj <.9.@.o.) / / [ _ M n m 8.;.4.` ",
"! F Q 7.Q I F ! 7.9.>._ s j A } l m oXaXoX( ) ;.u.rXXXh 8.+XaXl.-.>.g.P H s.] [ ] ' _ a a B ;.<.>.` ",
"f.W k q l <.X.o.! s.3.' Y <.-.y k m k.oX.X*.;.) z.yXXXA *.XXoX<.' 5.5.P H o.P @.5.:.;.V V <.1.8.) ) ",
") 8.s l ;.9.6.U u ~ ' o.h.t.t.T K X.i.k.^.*.8.2.u.yX*Xr.*.^.z.y.3.~ ~ 3.W o.F K 6.y.6.2.e.<.>.E >.4.",
"<.y.( 8.2.W W ;.V 1.| | o.u Q d.D I c.iXl.2.3.' k.yX*XM 1.oXiXc.@.Q ! ~ W 5.W ..Q d.o.W 1.n g s ;.) ",
"6.<.9.>.' f.2.>.M f y 7.@.H R 7.X.OX*X$X#XOX7.3.a.oX$X$Xu.u.$X$XOXF R 7.' 4.5...F J ~ 2.y.m f A ;.` ",
"6.6.>.( 9.4.' 5.B d R X.X.#.5.6.x.;X&XQ }.}.t.;.:.8.+XiX+Xh.<.*X;X+.{ 6.y.B 2.] Q o.X.X.| 6.p.;.>.4.",
"6.;.>.w.>.) 2.2.2.2.7.R u ! ..l.yX+XI G g.u.V ( >.` #XsXiX@Xn  .OXrXc.A y d L L ] d.o.u T 2.4.>.) ` ",
"( 4.N N s >.;.;.) ' ' W o.g.OX#X$Xk.#.(.+.O.$.k.` w.k.(.@XXX*.O.k.@X$X*.v T L K ..R 7.T 2.2.) 2.[ 4.",
"_ :.M 9 j -.>.>.) [ 4.) 2.g.tX].+.h.c.0X&.A 3XOX:.e.9./ V l.aXoXi.h.;XyXk.t.| g u v 9.2.;.9.4.W >.) ",
"` ` / x q.:.2.2.W ' [ ' ' k.rXuX3X|.#Xx.| } c.<.t.&X=.;.0.u.l.-X=X XiXyXi.2.2.d l ;.) ) ( E m | 2.` ",
"[ ` _ w.-.1.` ;.4.) ' ' Y j.rXuX4XwX X2.5.h.l.t.t.#X=...6.<.c *XiX}.iXyXt.2.4.:.8.;.( 4.m 8 y <.>.` ",
":.) 5.' ' / 0.` ;.4.9.:.( k.yX3XS.6X|.6.2.%.0XOX8.6.7.X.G g.} %X-X,.*XyXk.4.-.p.>.,.a.6.} B :.>.:.' ",
"( >.' ] e.4./ 0.( ( -.1.0.p.tX7XP.L.<X|.|.{.c.t.E m L { (.(...;XuX XuXyXk.>.1.-.:.} } g <.8.,._ :.4.",
";.4.) ' ' 9.x k 0 ;.:.:.1.k.yX8XT.H.L.6X4X|.(.=.Z p o.g.}.(.@.=XdXeXdXrXO.v 1.;.>.x 9 g r.6.;.:.( ) ",
"` :.4.) 2.;.m d E | ,.q.:.r.yX8XT.T.P.S.S.L.qXeX3Xl.7.X.D I @.}.dXeXdXrXA m >.1.;.V V ,.6.6.4.( 4.4.",
"_ _ [ E >.<.:.:.;.1.:.S z r.yXdXqXQ.T.P.K.P.L.L.<X`.=.#.(.{.{.3X7X1X8XrXr.;.1.p.p.,.<.8.( ( >.0.N ( ",
"_ ` 2.;.8.1.:.0.:.1.j 9 a j.yXsXwX4XW.Q.T.P.J.S.L.4X`.(.1X6XqX6X1XJ.3XyXh.4.,.A v B -._ ( ( V c d Y ",
"' [ ' 2.2.>.,.-.:.:.) m 8.u.tX8XQ.E.4XwX4XT.T.T.P.J.<XwXL.D.D.D.<X9XpXtXq.;.,.f y B w.:.4.5.U y N ;.",
") ) ' ) 5.2.p.1.q.,.;.9.2.u.yX8XE.E.Q.qXQ.T.T.E.Y.P.I.L.L.H.P.1X1XqXpXyXy.:.r.v  .6.8.8.3.Q L X.2.4.",
"_ :.4.4.2.2.9.,.c a j 5.W x.yX7XU.T.E.E.T.T.Q.W.T.T.P.J.I.W.T.8X8XR.8XyXk.2.;.;.#.I ! o...H F @.2.;.",
":.:.C / k W 7.X.g f 6.7.3.t.iX2XF.U.E.E.E.Q.qXqXT.T.T.I.qXqXT.8X8XC.2XrXi.7.E 2.@.F { o.d.d.X.s.5.) ",
"' 5.l 9 d o.^ J ..6.@.@.@.K uX1XZ.G.P.qXW.Q.qXQ.E.E.E.E.4X4XE.5X:XV.,XyXr.,.:.:.4.) } ..v X.7.' ) [ ",
"' ) ( M -.s.^ D o.d.J D #.#.tX,XB.Z.H.0X4XE.E.E.E.E.E.E.E.T.T.G.A.B.,XrXp 1.0._ ( 8.v t p W T Y ;.` ",
"4.` :.:.1.7.@.^ D ^ X.k T +.yX,XB.V.A.H.Y.T.T.E.Q.7X4XE.E.U.F.,X:XC.,XrXO.) ;.N G @.Y m <.T u ~ 4.[ ",
"( _ ( w.;.R G I ^ I @.u q  .yX,Xn.n.V.V.G.Y.4XW.W.6X4XE.U.K.:X,X).m.>XyXk.9.e.U G ~ 7.2.g.7.o.s.2.` ",
":.>.~ ] e.5.L X...d.@.D Q i.tX_.< m.n.B.C.H.wXqXE.E.E.T.F.:XaXJ.n.v.>XrXk.l m q 6.| 3.~ I H s.5.2.>.",
"q.8.] ~ 4.:.| i.,.6.J D ~ 6.l.]._.m.n.B.V.A.P.K.G.G.G.G.5X1XJ.m.m.>X%Xz.a.m r m ;.;.4.7.Q F ! 2.2.` ",
">.;.7.' z h m <.,.1...W <.-.>.l.=X).m.n.n.n.V.V.V.V.V.C.>X).n.m.).=Xl.M m >.;.p.;.8.:.;.7.3.9.( ;.) ",
"[ Y 2.;.e h N >.,.y.} v h z 1.8.u.=X>Xv.v.v.v.v.v.v.v.v.b.b.< >X=Xj.a 9 m 9.;.;.4.1.( 1.>.m x q ) 2.",
"` ) ;.;.>.` ` >.` 4.} s g -.>.>.8.l./.N.N.N.M.M.M.M.M.M.M.M.N./.l.;.N N 4.4.e.) ;.) ( ;.>.v s m >.>.",
"` ' [ ;.;.4.` ) ` ;.6.} <.<.;.>.( E j.[.[.[.[.[.[.[.[.[.[.[.[.$.>.4.8.>.2.( 4.) ) 4.) 4.8.;.S y.>.;."
};
