/* XPM */
static char *result[] = {
/* columns rows colors chars-per-pixel */
"50 50 86 1 ",
"  c #476F93",
". c #486F93",
"X c #477095",
"o c #497195",
"O c #4B759A",
"+ c #4C799E",
"@ c #507799",
"# c #51799B",
"$ c #4D7DA2",
"% c #4F81A6",
"& c #4F83A9",
"* c #5182A6",
"= c #5085AA",
"- c #5289AE",
"; c #5D8DAC",
": c #538DB3",
"> c #5490B6",
", c #5C92B4",
"< c #5694BB",
"1 c #5A96BA",
"2 c #5798BF",
"3 c #5B99BE",
"4 c #6592AE",
"5 c #6395B3",
"6 c #699AB5",
"7 c #649CBD",
"8 c #6E9FB8",
"9 c #6FA0BA",
"0 c #7CA4B9",
"q c #579AC1",
"w c #599CC3",
"e c #5EA1C5",
"r c #62A3C6",
"t c #6DA4C1",
"y c #6DA9C6",
"u c #64A6C8",
"i c #68A7C9",
"p c #66A8CA",
"a c #6BABCB",
"s c #74AAC4",
"d c #71AECC",
"f c #79AFCA",
"g c #6FB0CE",
"h c #73B1CE",
"j c #79B3CE",
"k c #74B5D1",
"l c #7AB6D1",
"z c #77B8D3",
"x c #7CBBD4",
"c c #89B0C2",
"v c #82B6CD",
"b c #94BCCB",
"n c #83BCD4",
"m c #88BFD5",
"M c #9CC3CF",
"N c #83C0D7",
"B c #8BC2D7",
"V c #84C3D9",
"C c #8BC5DA",
"Z c #8BCADD",
"A c #92C6D9",
"S c #93CADC",
"D c #9ACDDC",
"F c #9ED0DF",
"G c #A1D1DF",
"H c #AED6DD",
"J c #B1D8DE",
"K c #91CFE0",
"L c #95D3E2",
"P c #9AD5E3",
"I c #9CD9E5",
"U c #A4D5E1",
"Y c #A8D7E2",
"T c #A3DCE6",
"R c #ACDBE4",
"E c #A7DFE8",
"W c #A9DFE8",
"Q c #B2DEE5",
"! c #AEE2E9",
"~ c #B5E1E7",
"^ c #B5E3E9",
"/ c #BBE5EA",
"( c #BDE8EB",
") c #C4ECED",
"_ c #C8EEEE",
"` c #CAF0EF",
/* pixels */
"oooooo>wqVIIxww: Xooo+2w<O8Pp:X +qquIxqw:....:wwwq",
"ooo**&<ezxxVgww<&&&&=&-<2&sIp<=&:wkBnaq:-===-<rmnz",
"oOO<eweaPkqwwwwwwwwq2<O-eezLaeeewwP/rq<+=weerwd)WP",
"<<<qwwFYpewwwwwwww<++$<2rRSaVU~IVwBIr:$:1wG/^UCdau",
"w1:qwwAPni<:::qwww1%$=qanUnwxSYZVxmxe:=jlkLYUDx:qw",
"w:o<wwqj)m<+OO1wwwqqwwwD(iqwwwwwj)mqwqu~/Paqww<O-w",
"w:o<wqSUlDD1:>wwq=$$>uCNjw:$$-wwaWlqqnYnkgVxqwq:=$",
"q:$rajUDqU(rikw1<$+$3hZgqw:++%<quZxiqA/iqqVVaahk,O",
"wqwZW_lwwG/rA(i:O>wqVSewwwqqw:O>wwVKwxIiwqwdP(``mq",
"VSGxlniqwkmVVBVd:2wqLWeqwwwww1:<wwDWrC^p>=<w6fmnDU",
"LY^aq<qwquaKzwZVawwiURdrwwww<qwwwwU/rB~d,+<>$-<qA(",
"eruw:O<wqD^iwwwm)dpLkj(mqwwq$&wwqqF(rwaKxqqwq$$wwe",
"-&-q<-1uxBBwwwwdAABnurAABe<-=:wknAAmw:-kxxeqw:==<q",
".OO<wqwaLkq1wwwwuRYwwwqD(i-O<wiCT)nqq=+<kLaeuw1O:w",
" $<qwwVCie<$:wql/luwwwqVIr212l^liae<$=<wwiCI/jqqqw",
"6smzawLPww<O&wnAF7-:<wqhVkawlCFnaqad=7zwinVZPmawww",
"P!_TCeRRrw<O-i~D1$oo:weweLNe^GwZZeVLwxLim)kwwVKrwe",
"aakpkZllZaq<dZl7$:><qeZgwpxZzawukZkpwrkUDdUDwrkQIZ",
">:>qaZia!kqwnEu-o<wwpkCxawgVu2>2aWzqwqu(UwDFlknRFC",
"XOO<wwwh_mqwA)a:o<wwVKeNLewew:o>j)mqwwr/Fwql_`Qeew",
"Xoo$$$1rxDDwA)a1:%-qFWwNLr:%$&>kVlaqwwr/GqqilnxCaw",
"++O++.:<qARkSRiqq+$wY~eNTr:++&eSD<2wwraRAw11qquIzw",
"qqqq:..$qed)Aewwq+$qY~rD(uq22qeRH#:wqxLaeq$$wqpIzq",
"xNxDv--:wqenVnDnw:3nBnwjBNgwwaDCfo:exxke<=-:wdxxBD",
"LLL(IuiuwwwqzI/DuwgTkq1qrPNwrn)j>+>aLkqw:+>euVZwA)",
"uueukL^YwqwweeuzLpj)l>+-u(DwRUiwq<xKpwqqq2qaLhewru",
"wwwqinAAziqqpzzxxeaSnao-rASBDv-<uzxxznNraBxzNpwwww",
"wwwwwwqaTkwrxIIxqwwwCA@-wqB`a:O:aIkrL!(dm)EVwqqwww",
"wwwwwqwh)nu~Cpp1O+%wUH@-wqB_4$<qd)nwiidQDaarw=%qww",
":::qwwqaGCnGnqw3545wYQ=>rjAP;-waxUkqqukPBqw<:%=q<:",
"OOO<wwqwwF~r2wwkIIVeU~rqi/DwwwwZKwwwqxPuwww>O:ww&o",
">::%$$>pVnf*:rFDaakZndqmYnxCuwwURwwwwxLuqw&&>2ww&o",
"www&+$>aWd:.,kRAqqgEkqaAYrkZguwR^w1<qnTpqq+$wwww&o",
"wwwqqqqd`0..c)ywwwl`luLlwwweKVwRQe%$<A)pwq+$qwww&o",
"qqqqdGUDm7,bbl;$&$5nDKl7%&:waxVmf=-:qA)awq>-$<ww<-",
"uuuam//Uwuk/m<$$O+$qUQw-OO-wilKa>+:wuAQdeww<O:qwep",
"LIP(UrrewDQawwww<qqqZLw1q1qwQUewwqquKnpKVwwwq%$<xI",
"xxxCAAiwwKReww-=-<izxxSdqwdDAxw::qjAx7-kxzeww:,CNz",
"qqqqx_kqqnKiwq$OO<gTda)BrrB(aqw$+wF/u-O:gLgwwwj(Bq",
"O&wqkTd<$,jQmqq<<qk)lwiS((Duwww$+qCIeq<$:pCCwnZaew",
"6tknnVu> -rLmhwuknBUdwgmMGBheww$+wgNka2+$wKZwSI:<w",
"III)Yww1o:wqnLikI(YwwuI9O<zLaww$$wwrLx2+&wZZeUJ#:w",
"paadxKRD<qqwedYKpkawwuIk>qudYAq<<wwwpxZ3<w;6Zla<2w",
"qqqqaZUUliejhdYAa1>:qrCnkwqeDFkrwwweaxVrww&5Tdqw<>",
"wwwwwwwh_np(^LukL;.o:wwD)uqwwx)lqwweLxwwwwwaIhww*o",
"wwwwwwwrlVVnlawn/t::=&qVYu:&<inVxwBIkrq&$%<l(zqw&o",
"<<q<<>wwwxZpuuwl^naw=*anZe:$:<wVCdDRhau*++3l~kww-+",
"oOoOOO>wwwuLILuwrQYw<a)Bwww<+%wwj)ma(^Sr2qZZrwwwwq",
"--:--:<wwwwkzxxkwILwknBdww<&-:wqa!zeNnlSZNzaw:*=>w",
"wwwwqwwwwwwwqwLVwZZeCLwwww-o<wwwaIhwqqr)(Paqw%.o-w"
};
